<?xml version="1.0" encoding="UTF-8"?> <svg xmlns="http://www.w3.org/2000/svg" id="Слой_1" data-name="Слой 1"
  viewBox="0 0 683.51 681.76">
  <defs>
    <style>
      .cls-1 {
        fill: #e0e0e0;
      }
    </style>
  </defs>
  <title>Дорогие гости svg</title>
  <path
    d="M330.48,369.57V372a20.48,20.48,0,0,0-6.18.9,4.5,4.5,0,0,0-2.82,2.88,21.76,21.76,0,0,0-.72,6.54v59.52q0,6.6,1.8,8.46t7.92,1.86h3.72q-.48,4.2-.66,8.16t-.18,6a60.35,60.35,0,0,0,.36,7.44H331a58.88,58.88,0,0,0-2-11.28,10.21,10.21,0,0,0-4.5-6.06q-3.18-1.86-9.54-1.86h-34.2q-6.36,0-9.54,1.86a10,10,0,0,0-4.44,6.06,68.9,68.9,0,0,0-2.1,11.28h-2.76a60.35,60.35,0,0,0,.36-7.44q0-2-.18-6t-.66-8.16h38.52q6.12,0,7.92-1.86t1.8-8.46V382.29q0-6.6-1.8-8.46T299.88,372h-1.56a17.51,17.51,0,0,0-6.12.78,4.2,4.2,0,0,0-2.52,3,46.26,46.26,0,0,0-1.08,6.54q-.72,8.16-1.38,17.88t-1.92,19.26a105.6,105.6,0,0,1-3.72,17.46,33.66,33.66,0,0,1-6.78,12.72,14.46,14.46,0,0,1-11.28,4.8v-2.28a11.92,11.92,0,0,0,9.24-4.14,31.29,31.29,0,0,0,6.06-11.22,95.62,95.62,0,0,0,3.66-16.14q1.32-9.06,2-18.9t1.32-19.44q.36-6.36-1.44-8.22t-8.28-2.1v-2.4q2.52.12,6,.24t6.36.12q2.76,0,5.34-.18t5.22-.18q4.56,0,8.28.18t8.88.18q2.4,0,5-.06l5.1-.12Q328.8,369.69,330.48,369.57Z"
    transform="translate(-229.43 -367.89)"></path>
  <path
    d="M379.92,367.89a38,38,0,0,1,20,5.16,34.6,34.6,0,0,1,13.32,14.82q4.74,9.66,4.74,23.46,0,13.44-4.86,23.52a38,38,0,0,1-13.5,15.72,35.4,35.4,0,0,1-19.8,5.64,38,38,0,0,1-20-5.16,34.49,34.49,0,0,1-13.32-14.88q-4.74-9.72-4.74-23.4,0-13.44,4.92-23.52a38.56,38.56,0,0,1,13.5-15.72A35.12,35.12,0,0,1,379.92,367.89Zm-.48,2.16a19.17,19.17,0,0,0-13.56,5.4q-5.76,5.4-8.94,14.88a69,69,0,0,0-3.18,22,62.84,62.84,0,0,0,3.54,22.14q3.54,9.42,9.6,14.52a20.29,20.29,0,0,0,13.38,5.1,19.18,19.18,0,0,0,13.56-5.4q5.76-5.4,8.94-14.94a69.23,69.23,0,0,0,3.18-21.9q0-12.84-3.54-22.2t-9.54-14.46A20.23,20.23,0,0,0,379.44,370Z"
    transform="translate(-229.43 -367.89)"></path>
  <path
    d="M428.4,369.57q2.52.12,6.6.24t8,.12q5.64,0,10.8-.12t7.32-.12q14.52,0,21.72,6.6t7.2,17a31.14,31.14,0,0,1-1.44,9.06,23.54,23.54,0,0,1-5,8.76,25.56,25.56,0,0,1-9.66,6.54q-6.12,2.52-15.48,2.52H447v-2.4h10.32q8.52,0,13-3.24a16,16,0,0,0,6.12-8.52,38.68,38.68,0,0,0,1.62-11.4q0-11.4-4.5-17T458.16,372q-5.52,0-7.2,2t-1.68,8.28v59.52a17.74,17.74,0,0,0,.9,6.48,5,5,0,0,0,3.54,2.88,37.9,37.9,0,0,0,7.68,1v2.4q-3.12-.24-7.92-.3t-9.72-.06q-4.68,0-8.76.06t-6.6.3v-2.4a24.67,24.67,0,0,0,6.18-1,4.33,4.33,0,0,0,2.82-2.88,21.84,21.84,0,0,0,.72-6.48V382.29a21.76,21.76,0,0,0-.72-6.54,4.5,4.5,0,0,0-2.82-2.88,20.5,20.5,0,0,0-6.18-.9Z"
    transform="translate(-229.43 -367.89)"></path>
  <path
    d="M538.08,367.89a38,38,0,0,1,20,5.16,34.61,34.61,0,0,1,13.32,14.82q4.74,9.66,4.74,23.46,0,13.44-4.86,23.52a38,38,0,0,1-13.5,15.72,35.4,35.4,0,0,1-19.8,5.64A38,38,0,0,1,518,451a34.49,34.49,0,0,1-13.32-14.88q-4.74-9.72-4.74-23.4,0-13.44,4.92-23.52a38.56,38.56,0,0,1,13.5-15.72A35.12,35.12,0,0,1,538.08,367.89ZM537.6,370a19.17,19.17,0,0,0-13.56,5.4q-5.76,5.4-8.94,14.88a69,69,0,0,0-3.18,22,62.84,62.84,0,0,0,3.54,22.14q3.54,9.42,9.6,14.52a20.29,20.29,0,0,0,13.38,5.1,19.17,19.17,0,0,0,13.56-5.4q5.76-5.4,8.94-14.94a69.24,69.24,0,0,0,3.18-21.9q0-12.84-3.54-22.2T551,375.15A20.23,20.23,0,0,0,537.6,370Z"
    transform="translate(-229.43 -367.89)"></path>
  <path
    d="M641.64,369.57q-.48,4.56-.66,8.82t-.18,6.54q0,2.88.12,5.4t.24,4.44H638.4a75.11,75.11,0,0,0-2.28-13.26,11.61,11.61,0,0,0-5-7q-3.6-2.16-11.16-2.16h-2.76A21.92,21.92,0,0,0,611,373a4.16,4.16,0,0,0-2.82,2.76,21.78,21.78,0,0,0-.72,6.54v59.52a17.74,17.74,0,0,0,.9,6.48,5,5,0,0,0,3.54,2.88,37.89,37.89,0,0,0,7.68,1v2.4q-3.12-.24-7.92-.3t-9.72-.06q-4.68,0-8.76.06t-6.6.3v-2.4a24.66,24.66,0,0,0,6.18-1,4.33,4.33,0,0,0,2.82-2.88,21.83,21.83,0,0,0,.72-6.48V382.29a21.75,21.75,0,0,0-.72-6.54,4.5,4.5,0,0,0-2.82-2.88,20.5,20.5,0,0,0-6.18-.9v-2.4l12.6.24q6.72.12,12.66.12h9.54q4.44,0,10.14-.06T641.64,369.57Z"
    transform="translate(-229.43 -367.89)"></path>
  <path
    d="M680.52,369.57V372a20.47,20.47,0,0,0-6.18.9,4.5,4.5,0,0,0-2.82,2.88,21.78,21.78,0,0,0-.72,6.54v59.52a21.86,21.86,0,0,0,.72,6.48,4.32,4.32,0,0,0,2.82,2.88,24.63,24.63,0,0,0,6.18,1v2.4q-2.76-.24-6.9-.3t-8.34-.06q-4.68,0-8.76.06t-6.6.3v-2.4a24.68,24.68,0,0,0,6.18-1,4.32,4.32,0,0,0,2.82-2.88,21.86,21.86,0,0,0,.72-6.48V382.29a21.78,21.78,0,0,0-.72-6.54,4.5,4.5,0,0,0-2.82-2.88,20.51,20.51,0,0,0-6.18-.9v-2.4q2.52.12,6.6.24t8.76.12q4.2,0,8.34-.12T680.52,369.57Zm33.72,7.92q-.24,2.52-.36,5.16l-48,68,.36-5.16Zm18.84-7.92V372a20.49,20.49,0,0,0-6.18.9,4.5,4.5,0,0,0-2.82,2.88,21.75,21.75,0,0,0-.72,6.54v59.52a21.83,21.83,0,0,0,.72,6.48,4.32,4.32,0,0,0,2.82,2.88,24.64,24.64,0,0,0,6.18,1v2.4q-2.52-.24-6.6-.3t-8.76-.06q-4.08,0-8.28.06t-7,.3v-2.4a24.68,24.68,0,0,0,6.18-1,4.32,4.32,0,0,0,2.82-2.88,21.82,21.82,0,0,0,.72-6.48V382.29a21.74,21.74,0,0,0-.72-6.54,4.5,4.5,0,0,0-2.82-2.88,20.51,20.51,0,0,0-6.18-.9v-2.4q2.76.12,7,.24t8.28.12q4.68,0,8.76-.12T733.08,369.57Z"
    transform="translate(-229.43 -367.89)"></path>
  <path
    d="M803,369.57q-.48,4.2-.66,8.16t-.18,6q0,2.16.12,4.14t.24,3.3H799.8a57.51,57.51,0,0,0-2-11.22,9.69,9.69,0,0,0-4.5-5.88q-3.18-1.74-9.54-1.74h-10a21.92,21.92,0,0,0-6.18.66,4.16,4.16,0,0,0-2.82,2.76,21.78,21.78,0,0,0-.72,6.54v59.52a21.86,21.86,0,0,0,.72,6.48,4.16,4.16,0,0,0,2.82,2.82,21.85,21.85,0,0,0,6.18.66h8.76q7.56,0,11.46-2a11.89,11.89,0,0,0,5.64-6.66,52.49,52.49,0,0,0,2.58-12.54H805a81.91,81.91,0,0,0-.36,8.64q0,2.28.18,6.54t.66,8.82q-6.12-.24-13.8-.3T778,454.17h-9.54q-5.94,0-12.66.06t-12.6.3v-2.4a24.66,24.66,0,0,0,6.18-1,4.33,4.33,0,0,0,2.82-2.88,21.86,21.86,0,0,0,.72-6.48V382.29a21.78,21.78,0,0,0-.72-6.54,4.5,4.5,0,0,0-2.82-2.88,20.5,20.5,0,0,0-6.18-.9v-2.4l12.6.24q6.72.12,12.66.12H778q5.52,0,12.54-.06T803,369.57Zm-20.64,41V413h-22v-2.4Zm3.48-15.84q-.48,6.84-.42,10.44t.06,6.6q0,3,.12,6.6t.6,10.44h-2.76q-.48-3.84-1.14-7.5a11.44,11.44,0,0,0-2.88-6Q777.24,413,772,413v-2.4q5.28,0,7.38-2.76a14.28,14.28,0,0,0,2.7-6.48q.6-3.72,1.08-6.6Z"
    transform="translate(-229.43 -367.89)"></path>
  <path
    d="M529.48,557.94a7.17,7.17,0,0,1-1.56,1.89c-6.7,6.18-13.3,12.5-20.18,18.48-9.31,8.09-19.65,14.79-30.35,20.89a52.46,52.46,0,0,1-15.28,6.26,17.73,17.73,0,0,1-4.92.39c-3.94-.31-6.45-2.69-6.68-6.61a28.85,28.85,0,0,1,4.21-16.19,90.68,90.68,0,0,1,8.17-12c5.9-7.52,12.54-14.37,19-21.35,1.87-2,3.7-4.11,5.46-6.24a12.35,12.35,0,0,0,2.89-5.69,7.74,7.74,0,0,0-2.52-.19,101.86,101.86,0,0,0-11.31,4,74,74,0,0,0-21.18,14.33,14.14,14.14,0,0,1-2.58,2c-.31.19-1-.06-1.43-.31a1.14,1.14,0,0,1-.2-1.11,12.7,12.7,0,0,1,1.84-2.73,65,65,0,0,1,5.66-5.47,88.73,88.73,0,0,1,20-12.51,36.74,36.74,0,0,1,9.12-2.68c7.58-1.21,9.79,4.17,7.76,9.51a33.38,33.38,0,0,1-3.7,6.91A98.69,98.69,0,0,1,485,558c-4.53,5.22-9.29,10.24-13.76,15.52-4,4.75-7.82,9.67-11.61,14.6a23.5,23.5,0,0,0-4.15,8.07c-1.23,4.41.34,6.41,4.9,5.87a22.56,22.56,0,0,0,6-1.52,101.4,101.4,0,0,0,10.1-4.78A183.1,183.1,0,0,0,510,572.13c4.76-4.21,9.48-8.47,14.26-12.66,1.41-1.24,2.7-2.79,5-3.06C529.36,557,529.67,557.6,529.48,557.94Z"
    transform="translate(-229.43 -367.89)"></path>
  <path
    d="M580.13,557.82a9.48,9.48,0,0,1-2.26,1.76c-4.08,2-8.14,4.11-12.32,5.9A34.94,34.94,0,0,1,551,568.32c-1,0-1.92,0-2.91,0-.86,1.42-1.67,2.71-2.44,4a77.63,77.63,0,0,1-20,21.92,39.68,39.68,0,0,1-5.27,3.27,12.53,12.53,0,0,1-3.48,1.28c-4.22.88-7.38-1.27-8.18-5.51a18.67,18.67,0,0,1,.58-8.6,55,55,0,0,1,10.26-19.26c2.06-2.59,4.27-5.06,6.42-7.6.9-1.05,1.8-2.08,2.86-3.32-.24-1-.48-2-.73-3.08-1-4.32-.84-8.51,1.59-12.39a14.53,14.53,0,0,1,8.72-6.58,11.85,11.85,0,0,1,14.18,6.44,21.12,21.12,0,0,1,1.49,13.38,77.69,77.69,0,0,1-2.58,8.72c-.36,1.15-.86,2.26-1.49,3.86A28.07,28.07,0,0,0,564,563,69.86,69.86,0,0,0,575,557.37a24.07,24.07,0,0,1,3.71-1.8,1.73,1.73,0,0,1,1.45.45A1.19,1.19,0,0,1,580.13,557.82Zm-36.29,9.66c-1.94-1-3.67-1.84-5.28-2.86s-3.33-2.41-5.37-3.9c-5.77,7.49-11.7,14.41-16.14,22.37a45.83,45.83,0,0,0-2.8,6.86,8.65,8.65,0,0,0-.37,2.85,1.92,1.92,0,0,0,2.14,2,10.83,10.83,0,0,0,5.42-1.81,40.86,40.86,0,0,0,9.88-8.08,102.26,102.26,0,0,0,11.4-15.17C543.14,569,543.43,568.32,543.85,567.48Zm6.63-20.34a9.12,9.12,0,0,0-.16-2.48,27.16,27.16,0,0,0-1.81-5.46c-1.83-3.45-4.85-4.71-8.72-4-5.74,1-12,7.64-8.33,16.71l2.24-1.68c.77-.57,1.52-1.2,2.34-1.7a6.37,6.37,0,0,1,1.89-.78,2.07,2.07,0,0,1,2.45,2.11c0,1.64-1,2.8-1.83,4.09-1,1.61-2.61,2.82-3.06,4.72,3.39,3.43,6.23,4.92,10.35,5.37C548.39,558.71,550.41,553.2,550.48,547.14Z"
    transform="translate(-229.43 -367.89)"></path>
  <path
    d="M637.09,555.35c.49,1.3-.59,2-1.29,2.81-.26.31-.57.59-.86.89a164.71,164.71,0,0,1-47.59,32.67,88.56,88.56,0,0,1-9,3.1,10.67,10.67,0,0,1-2.44.45,8.72,8.72,0,0,1-9.5-6.34,8.24,8.24,0,0,1-.4-1.6c-.12-1.1-.17-2.21-.25-3.3a26.69,26.69,0,0,1,1.81-9.32c5.3-13.88,12.68-26.38,24.39-35.9a61.72,61.72,0,0,1,6.74-4.79,32.39,32.39,0,0,1,5.65-2.54c5-1.84,10.7-.18,12.78,7a12.63,12.63,0,0,1-1.4,10.4,6.25,6.25,0,0,1-1.58,1.87,2.23,2.23,0,0,1-1.85.31,2.09,2.09,0,0,1-.88-1.65c0-.94.49-1.86.61-2.81a22.93,22.93,0,0,0,.29-4.93c-.37-3.43-2.95-5-6.25-4a20.9,20.9,0,0,0-4.08,2,38,38,0,0,0-8.57,7.14,66.63,66.63,0,0,0-5.8,7,143.43,143.43,0,0,0-13.15,23.46,54.36,54.36,0,0,0-2.27,7.08,7,7,0,0,0-.2,2.46c.19,2.5,1.46,3.65,4,3.85a14.33,14.33,0,0,0,6.45-1.27,129.24,129.24,0,0,0,22.16-11.19,202.93,202.93,0,0,0,23.1-17.52c2-1.71,4-3.42,6.07-5C635.23,554.65,636.82,554.55,637.09,555.35Z"
    transform="translate(-229.43 -367.89)"></path>
  <path
    d="M740,557.83a22.13,22.13,0,0,1-2,2.08c-11.06,9.39-21.82,19.15-33.46,27.84a59.7,59.7,0,0,1-8,5.14c-6.25,3.23-10.83,1.39-13.64-5.14-1.88-4.39-1.81-8.9-.82-13.42a44.36,44.36,0,0,1,5.76-14.14c.87-1.39,1.74-2.78,2.6-4.17-1.15-.78-1.79,0-2.44.32a310.55,310.55,0,0,0-28.1,16.79,19.78,19.78,0,0,1-2.82,1.71,2.05,2.05,0,0,1-2.94-2.24,12.26,12.26,0,0,1,1.14-3.51,62,62,0,0,1,7.94-11.61c4.18-5.15,8.27-10.37,12.37-15.59a8.65,8.65,0,0,0,2.06-3.78A4.91,4.91,0,0,0,676,538a39.27,39.27,0,0,0-6.91,2.69,154.81,154.81,0,0,0-13.6,8.7A229.41,229.41,0,0,0,626.68,575c-1.83,1.89-3.43,4-5.14,6a12.26,12.26,0,0,1-1.66,1.83,1.74,1.74,0,0,1-1.51.29,2.65,2.65,0,0,1-1.18-1.52,4.2,4.2,0,0,1,.27-2A46.86,46.86,0,0,1,625,564c7.58-9.86,15.26-19.64,22.93-29.43a13.09,13.09,0,0,1,2.7-2.52,1.71,1.71,0,0,1,2.29.18,2.55,2.55,0,0,1,.58,1.85,7.29,7.29,0,0,1-1,2.69c-1.36,2.24-2.73,4.48-4.28,6.6-4,5.47-8.08,10.87-12.11,16.31-.81,1.09-1.5,2.25-2.33,3.48,1.42.37,1.87-.71,2.51-1.29a222.06,222.06,0,0,1,20.92-17,101.34,101.34,0,0,1,16.12-9.33,21.24,21.24,0,0,1,4.68-1.6c3.66-.75,6.24,1.43,6.22,5.21a10,10,0,0,1-.66,3.63,28.12,28.12,0,0,1-2.82,5.51c-2.87,4.06-5.94,8-9,11.93-.67.87-1.42,1.68-2.13,2.52l.42.55,3.47-2q8.77-5.12,17.53-10.25a15.08,15.08,0,0,1,2.61-1.24,2.69,2.69,0,0,1,3.66,2.24,9.16,9.16,0,0,1-.32,3.66c-1.17,3.54-2.49,7-3.8,10.51-1.16,3.1-2.44,6.16-3.6,9.26a25.2,25.2,0,0,0-1.54,8.53,15.07,15.07,0,0,0,.65,4.46,3.08,3.08,0,0,0,3.8,2.41,10.44,10.44,0,0,0,3.55-1,62.23,62.23,0,0,0,7.81-4.66c8.75-6.54,17.38-13.24,25-21.09,2-2.07,4.11-4.09,6.23-6.08a23.91,23.91,0,0,1,2.92-2.3,1.6,1.6,0,0,1,2.23.21A1.48,1.48,0,0,1,740,557.83Z"
    transform="translate(-229.43 -367.89)"></path>
  <path
    d="M817.31,556.14a1.16,1.16,0,0,1,0,1.1,13.69,13.69,0,0,1-1.67,1.84c-5.31,5-10.59,10.12-15.94,15.11a153.56,153.56,0,0,1-23.8,18.62,37.48,37.48,0,0,1-9.67,4.68,20.86,20.86,0,0,1-5.29.85c-3.83,0-6.52-1.92-8.05-5.43a15.41,15.41,0,0,1-1.05-7.32A33.07,33.07,0,0,1,756,572.23c.71-1.33,1.45-2.64,2.16-4l-.53-.59c-1.23.86-2.48,1.71-3.69,2.6a103.52,103.52,0,0,1-14.38,9,51.8,51.8,0,0,1-6.13,2.46,7.84,7.84,0,0,1-2.84.38,4.49,4.49,0,0,1-4.63-3.94,13.86,13.86,0,0,1,.18-4.5,28.55,28.55,0,0,1,3.47-8.84,79.22,79.22,0,0,1,17.3-21,26.53,26.53,0,0,1,3.38-2.37,5.55,5.55,0,0,1,1.92-.71,2.12,2.12,0,0,1,2.6,2.39,8.49,8.49,0,0,1-1.38,3.38c-1.71,2.33-3.61,4.54-5.51,6.72-3.36,3.85-6.87,7.58-10.15,11.51a92.46,92.46,0,0,0-5.62,7.69,10.08,10.08,0,0,0-2.06,5.57c.64.18,1.29.58,1.85.48a22.59,22.59,0,0,0,4.38-1.19,45,45,0,0,0,6-2.83A189.81,189.81,0,0,0,762,561.52a19.09,19.09,0,0,0,3.51-3.47,128.57,128.57,0,0,1,15.62-16.58,33.54,33.54,0,0,1,4.3-3.21,2,2,0,0,1,2.68,0,2.46,2.46,0,0,1,.5,2.69,11.19,11.19,0,0,1-1.17,2.64c-1.32,2.1-2.63,4.23-4.16,6.18-2.55,3.26-5.22,6.44-8,9.56a150.82,150.82,0,0,0-12.21,16.21,29.36,29.36,0,0,0-4.74,11,11.6,11.6,0,0,0-.22,3.28c.27,2.59,1.94,4,4.5,3.77a23.33,23.33,0,0,0,4.82-1.13,44.7,44.7,0,0,0,10-5,139,139,0,0,0,17.3-13.51c5.9-5.2,11.8-10.43,17.73-15.6a28.24,28.24,0,0,1,3.71-2.57A1.18,1.18,0,0,1,817.31,556.14Z"
    transform="translate(-229.43 -367.89)"></path>
  <path
    d="M830.47,604.56a39.71,39.71,0,0,1-2.33,4.18,3.49,3.49,0,0,1-4.14,1.13,3.72,3.72,0,0,1-2.39-3c-.62-3,2.34-6.72,5.45-7C828.82,599.63,830.61,601.6,830.47,604.56Zm82.47-132.34a8.46,8.46,0,0,1-1.22,3.16c-1.61,2.61-3.33,5.16-5.08,7.71-11.44,16.66-22.81,33.35-34.37,49.93-10,14.37-19.28,29.24-28.42,44.17a27.69,27.69,0,0,1-3.41,4.6c-.38.4-1.59,0-2.45,0-.22-2.72,1.22-4.4,2.23-6.21,7.83-13.94,16.41-27.4,25.37-40.63,12.19-18,24.28-36.08,36.44-54.11,1.83-2.71,3.78-5.35,5.75-8a11.87,11.87,0,0,1,2.49-2.36,1.7,1.7,0,0,1,1.58-.11C912.38,470.83,913,471.65,912.94,472.22Z"
    transform="translate(-229.43 -367.89)"></path>
  <path
    d="M268.58,755q0,.35-.17.35-1.86,0-2.9-.06l-3.94-.06-4.12.06q-1,.06-2.84.06-.17,0-.17-.35t.17-.35a13.13,13.13,0,0,0,3.28-.29,2,2,0,0,0,1.36-1.1,7.13,7.13,0,0,0,.35-2.61V724a10.58,10.58,0,0,0-.2-2.61,1.23,1.23,0,0,0-1-.81,19.66,19.66,0,0,0-3.31-.17H243.18a21.93,21.93,0,0,0-3.48.17,1.32,1.32,0,0,0-1.1.84,9.28,9.28,0,0,0-.23,2.58V750.6a6.64,6.64,0,0,0,.38,2.58,2,2,0,0,0,1.39,1.13,13.13,13.13,0,0,0,3.28.29q.12,0,.12.35t-.12.35q-1.8,0-2.84-.06l-4.18-.06-3.94.06q-1,.06-2.9.06c-.08,0-.12-.12-.12-.35s0-.35.12-.35a13.57,13.57,0,0,0,3.28-.29,2.06,2.06,0,0,0,1.45-1.13,6.66,6.66,0,0,0,.38-2.58V724.44a8.11,8.11,0,0,0-.38-2.78,2.55,2.55,0,0,0-1.48-1.45,8.55,8.55,0,0,0-3.19-.46c-.08,0-.12-.12-.12-.35s0-.35.12-.35q2,0,3.77.06,7.54.12,15.83.12,7.54,0,17.28-.17h1.91q.17,0,.17.35t-.17.35a8.55,8.55,0,0,0-3.19.46,2.54,2.54,0,0,0-1.48,1.45,8.08,8.08,0,0,0-.38,2.78V750.6a6.64,6.64,0,0,0,.38,2.58,2,2,0,0,0,1.42,1.13,13.18,13.18,0,0,0,3.25.29Q268.58,754.6,268.58,755Z"
    transform="translate(-229.43 -367.89)"></path>
  <path
    d="M293.17,733.43a9,9,0,0,1,3.25,3.71,12.56,12.56,0,0,1,1.22,5.68,13,13,0,0,1-2,7.34,12.77,12.77,0,0,1-10.5,5.89,14.7,14.7,0,0,1-3.25-.32,10.58,10.58,0,0,1-2.9-1.19v12a5.66,5.66,0,0,0,.44,2.55,2.45,2.45,0,0,0,1.65,1.13,15.89,15.89,0,0,0,3.71.32q.17,0,.17.35t-.17.35q-2,0-3.19-.06l-4.18-.06-3.48.06q-.93.06-2.44.06-.17,0-.17-.35t.17-.35a8.55,8.55,0,0,0,2.73-.32,1.92,1.92,0,0,0,1.19-1.13,7.5,7.5,0,0,0,.32-2.55V737.61a6.05,6.05,0,0,0-.41-2.52,2.23,2.23,0,0,0-1.42-1.16,10.89,10.89,0,0,0-3-.32q-.17,0-.17-.35t.17-.35h7c.46,0,.76.1.9.29a2.41,2.41,0,0,1,.2,1.22v2.73q4.93-5,9.74-5A8.14,8.14,0,0,1,293.17,733.43ZM292,752.14q2-2.7,2-7.51t-2.15-7.54a6.65,6.65,0,0,0-5.45-2.73,7.63,7.63,0,0,0-3.83,1,15,15,0,0,0-3.48,2.84v13a11.19,11.19,0,0,0,3.42,2.73,9.89,9.89,0,0,0,4.47.93A6,6,0,0,0,292,752.14Z"
    transform="translate(-229.43 -367.89)"></path>
  <path
    d="M328.15,755q0,.35-.17.35-1.45,0-2.26-.06l-3-.06-3.13.06q-.81.06-2.26.06c-.12,0-.17-.12-.17-.35s.06-.35.17-.35a7.12,7.12,0,0,0,2.38-.29,1.75,1.75,0,0,0,1-1.13,8.49,8.49,0,0,0,.29-2.58V738.65l-12.35,12.41a4.29,4.29,0,0,0,.75,2.87,4.4,4.4,0,0,0,2.9.67q.17,0,.17.35t-.17.35q-1.45,0-2.26-.06l-3-.06-3.07.06q-.81.06-2.32.06-.17,0-.17-.35t.17-.35a7.4,7.4,0,0,0,2.41-.29,1.66,1.66,0,0,0,1-1.13,9.39,9.39,0,0,0,.26-2.58v-13a9.4,9.4,0,0,0-.26-2.58,1.67,1.67,0,0,0-1-1.13,7.13,7.13,0,0,0-2.38-.29c-.12,0-.17-.12-.17-.35s.06-.35.17-.35q1.45,0,2.26.06l3.07.06,3-.06q.81-.06,2.2-.06.17,0,.17.35t-.17.35A6,6,0,0,0,310,734a1.85,1.85,0,0,0-1,1.19,9.37,9.37,0,0,0-.26,2.58v11.72L321.07,737a4.06,4.06,0,0,0-.75-2.78,4.55,4.55,0,0,0-2.9-.64q-.17,0-.17-.35t.17-.35q1.45,0,2.26.06l3.07.06,3-.06q.81-.06,2.2-.06.17,0,.17.35t-.17.35a6,6,0,0,0-2.38.35,1.85,1.85,0,0,0-1,1.19,9.37,9.37,0,0,0-.26,2.58V750.6a9.37,9.37,0,0,0,.26,2.58,1.66,1.66,0,0,0,1,1.13,7.12,7.12,0,0,0,2.38.29Q328.15,754.6,328.15,755Z"
    transform="translate(-229.43 -367.89)"></path>
  <path
    d="M349.43,733a1,1,0,0,1,.06.43q0,1-.12,3.31l-.12,3.71c0,.08-.12.12-.35.12s-.35,0-.35-.12q-.23-3.65-1.59-5.19a5.42,5.42,0,0,0-4.26-1.54,7.16,7.16,0,0,0-2.58.35,2,2,0,0,0-1.16,1.19,7.3,7.3,0,0,0-.32,2.46V750.6a9.37,9.37,0,0,0,.26,2.58,1.66,1.66,0,0,0,1,1.13,7.12,7.12,0,0,0,2.38.29q.17,0,.17.35t-.17.35q-1.45,0-2.26-.06l-3-.06-3.07.06q-.81.06-2.32.06-.17,0-.17-.35t.17-.35a7.4,7.4,0,0,0,2.41-.29,1.66,1.66,0,0,0,1-1.13,9.39,9.39,0,0,0,.26-2.58v-13a9.4,9.4,0,0,0-.26-2.58,1.67,1.67,0,0,0-1-1.13,7.13,7.13,0,0,0-2.38-.29c-.12,0-.17-.12-.17-.35s.06-.35.17-.35H349C349.26,732.91,349.39,732.94,349.43,733Z"
    transform="translate(-229.43 -367.89)"></path>
  <path
    d="M351.41,755.36a1.74,1.74,0,0,1-.58-1.45,1.38,1.38,0,0,1,.64-1.33,3.51,3.51,0,0,1,1.68-.35,3.78,3.78,0,0,0,3.39-1.74,10.8,10.8,0,0,0,1.48-4.61,62.34,62.34,0,0,0,.35-7.28,11.12,11.12,0,0,0-.35-3.22,2.37,2.37,0,0,0-1.3-1.51,7.07,7.07,0,0,0-2.81-.44c-.08,0-.12-.11-.12-.32s0-.32.12-.32l10,.12H375.3c.08,0,.12.12.12.35s0,.35-.12.35a6,6,0,0,0-2.38.35,1.85,1.85,0,0,0-1,1.19,9.39,9.39,0,0,0-.26,2.58V750.6a9.39,9.39,0,0,0,.26,2.58,1.66,1.66,0,0,0,1,1.13,7.11,7.11,0,0,0,2.38.29c.08,0,.12.12.12.35s0,.35-.12.35q-1.51,0-2.32-.06l-2.9-.06-3.13.06q-.87.06-2.32.06-.17,0-.17-.35t.17-.35a7.12,7.12,0,0,0,2.38-.29,1.75,1.75,0,0,0,1-1.13,8.5,8.5,0,0,0,.29-2.58v-13a18.28,18.28,0,0,0-.12-2.61,1,1,0,0,0-.64-.81,7.63,7.63,0,0,0-2-.17H363.3a8.46,8.46,0,0,0-2.38.23,1.32,1.32,0,0,0-.9.93,8.91,8.91,0,0,0-.2,2.26q0,5.16-.35,8.93a17.06,17.06,0,0,1-1.88,6.61,5,5,0,0,1-4.67,2.84A2.34,2.34,0,0,1,351.41,755.36Z"
    transform="translate(-229.43 -367.89)"></path>
  <path
    d="M401.17,752.17a.33.33,0,0,1,.32.26.28.28,0,0,1-.15.38l-6,2.84a1.86,1.86,0,0,1-.52.12,1.62,1.62,0,0,1-1.33-1,6.73,6.73,0,0,1-.75-2.73l-3.6,1.91a24.16,24.16,0,0,1-3,1.33,6.85,6.85,0,0,1-2.26.41,3.73,3.73,0,0,1-2.76-1,3.34,3.34,0,0,1-1-2.47,3,3,0,0,1,1.22-2.49,17.21,17.21,0,0,1,4.29-2l7-2.44v-4.81q0-3.83-1-5.39a3.12,3.12,0,0,0-2.78-1.57,3.59,3.59,0,0,0-3,1.42,6.84,6.84,0,0,0-1.31,3.39A3.87,3.87,0,0,1,384,740a1.77,1.77,0,0,1-1.54.61,2.1,2.1,0,0,1-1.45-.46,1.62,1.62,0,0,1-.52-1.28A4.07,4.07,0,0,1,382.2,736a15.74,15.74,0,0,1,4.21-2.55,11.54,11.54,0,0,1,4.44-1,4.68,4.68,0,0,1,3.71,1.6,7.11,7.11,0,0,1,1.39,4.79V749a6.5,6.5,0,0,0,.52,3,1.78,1.78,0,0,0,1.68,1,8.3,8.3,0,0,0,2.9-.81Zm-8.47-.93V746l-6,2.26a4.2,4.2,0,0,0-1.88,1.13,2.51,2.51,0,0,0-.55,1.65A2.59,2.59,0,0,0,385,753a2.51,2.51,0,0,0,1.86.7,5.83,5.83,0,0,0,2.32-.64Z"
    transform="translate(-229.43 -367.89)"></path>
  <path
    d="M403.08,755q0-.35.17-.35a6,6,0,0,0,2.38-.35,1.85,1.85,0,0,0,1-1.19,9.39,9.39,0,0,0,.26-2.58V737.61a9.4,9.4,0,0,0-.26-2.58,1.67,1.67,0,0,0-1-1.13,7.13,7.13,0,0,0-2.38-.29q-.17,0-.17-.35t.17-.35q1.45,0,2.26.06l3,.06,2.84-.06q.81-.06,2.15-.06c.12,0,.17.12.17.35s-.06.35-.17.35a5.68,5.68,0,0,0-2.12.29,1.69,1.69,0,0,0-.93,1.13,9.39,9.39,0,0,0-.26,2.58v13a17.5,17.5,0,0,0,.12,2.55,1,1,0,0,0,.64.81,7.63,7.63,0,0,0,2,.17h5.39a7.32,7.32,0,0,0,2-.17,1.08,1.08,0,0,0,.7-.81,11,11,0,0,0,.17-2.44V737.61a10.53,10.53,0,0,0-.23-2.58,1.59,1.59,0,0,0-1-1.13,6.4,6.4,0,0,0-2.23-.29c-.08,0-.12-.12-.12-.35s0-.35.12-.35q1.45,0,2.2.06l2.78.06,2.78-.06q.81-.06,2.2-.06c.12,0,.17.12.17.35s-.06.35-.17.35a5.68,5.68,0,0,0-2.12.29,1.69,1.69,0,0,0-.93,1.13,9.37,9.37,0,0,0-.26,2.58v13a17.5,17.5,0,0,0,.12,2.55,1,1,0,0,0,.64.81,7.63,7.63,0,0,0,2,.17h5.39a8,8,0,0,0,2.09-.17,1,1,0,0,0,.64-.81,19,19,0,0,0,.12-2.67V737.61a10.53,10.53,0,0,0-.23-2.58,1.61,1.61,0,0,0-.9-1.13,5.68,5.68,0,0,0-2.12-.29q-.17,0-.17-.35t.17-.35q1.33,0,2.09.06L437,733l3.07-.06q.81-.06,2.32-.06.17,0,.17.35t-.17.35a7.41,7.41,0,0,0-2.41.29,1.66,1.66,0,0,0-1,1.13,9.37,9.37,0,0,0-.26,2.58v12.88a9.66,9.66,0,0,0,.26,2.64,1.75,1.75,0,0,0,1,1.16,6.52,6.52,0,0,0,2.38.32q.17,0,.17.35t-.17.35H403.26Q403.08,755.3,403.08,755Z"
    transform="translate(-229.43 -367.89)"></path>
  <path
    d="M468.33,752.17a.33.33,0,0,1,.32.26.28.28,0,0,1-.15.38l-6,2.84a1.86,1.86,0,0,1-.52.12,1.62,1.62,0,0,1-1.33-1,6.73,6.73,0,0,1-.75-2.73l-3.6,1.91a24.16,24.16,0,0,1-3,1.33,6.85,6.85,0,0,1-2.26.41,3.73,3.73,0,0,1-2.76-1,3.34,3.34,0,0,1-1-2.47,3,3,0,0,1,1.22-2.49,17.21,17.21,0,0,1,4.29-2l7-2.44v-4.81q0-3.83-1-5.39a3.12,3.12,0,0,0-2.78-1.57,3.59,3.59,0,0,0-3,1.42,6.84,6.84,0,0,0-1.31,3.39,3.87,3.87,0,0,1-.61,1.6,1.77,1.77,0,0,1-1.54.61,2.1,2.1,0,0,1-1.45-.46,1.62,1.62,0,0,1-.52-1.28,4.07,4.07,0,0,1,1.74-2.84,15.74,15.74,0,0,1,4.21-2.55,11.54,11.54,0,0,1,4.44-1,4.68,4.68,0,0,1,3.71,1.6,7.11,7.11,0,0,1,1.39,4.79V749a6.5,6.5,0,0,0,.52,3,1.78,1.78,0,0,0,1.68,1,8.3,8.3,0,0,0,2.9-.81Zm-8.47-.93V746l-6,2.26a4.2,4.2,0,0,0-1.88,1.13,2.51,2.51,0,0,0-.55,1.65,2.59,2.59,0,0,0,.7,1.91,2.51,2.51,0,0,0,1.86.7,5.83,5.83,0,0,0,2.32-.64Z"
    transform="translate(-229.43 -367.89)"></path>
  <path
    d="M489.68,752c.12,0,.22.08.32.23s.11.27,0,.35a14,14,0,0,1-4.09,2.61,11.84,11.84,0,0,1-4.38.81,10.91,10.91,0,0,1-5.89-1.54,10,10,0,0,1-3.74-4.09,12.15,12.15,0,0,1-1.28-5.51,12.39,12.39,0,0,1,1.65-6.29A12.15,12.15,0,0,1,476.8,734a12.34,12.34,0,0,1,6.32-1.65,7.12,7.12,0,0,1,4.87,1.54,5.32,5.32,0,0,1,1.74,4.21,2.87,2.87,0,0,1-.15,1,.54.54,0,0,1-.55.35l-14.27.06a16.52,16.52,0,0,0-.29,3,13.07,13.07,0,0,0,2.44,8.21,8,8,0,0,0,6.67,3.16,10.44,10.44,0,0,0,6-1.91Zm-12.5-17.08a7.27,7.27,0,0,0-2.23,3.86l10.79-.23a5.4,5.4,0,0,0-1.28-3.68,4.3,4.3,0,0,0-3.31-1.31A5.91,5.91,0,0,0,477.18,734.91Z"
    transform="translate(-229.43 -367.89)"></path>
  <path
    d="M524.3,755c0,.23-.06.35-.17.35q-1.51,0-2.38-.06l-2.9-.06-2.78.06q-.7.06-1.91.06c-.08,0-.12-.12-.12-.35s0-.35.12-.35a5,5,0,0,0,2-.29,1.63,1.63,0,0,0,.87-1.13,9.39,9.39,0,0,0,.17-2.58l-.29-14.44-7.95,19.14c0,.15-.19.23-.46.23a.55.55,0,0,1-.46-.23l-9-17.57-.06-.17-.12,11.72a7.27,7.27,0,0,0,.78,4.09,3.2,3.2,0,0,0,2.87,1.25q.12,0,.12.35t-.12.35q-1.22,0-1.91-.06l-2.38-.06-2.44.06q-.7.06-2,.06c-.08,0-.12-.12-.12-.35s0-.35.12-.35a3.36,3.36,0,0,0,2.93-1.25,7.42,7.42,0,0,0,1-4.09l.12-13.51a5,5,0,0,0-3.89-2.15c-.08,0-.12-.12-.12-.35s0-.35.12-.35l2.78.06,2.61-.06a1.44,1.44,0,0,1,1.19.46,22.12,22.12,0,0,1,1.48,2.49l7.66,15,6.84-16.47a2.16,2.16,0,0,1,.73-1.07,1.65,1.65,0,0,1,1-.38l2.73.06,3.19-.06q.17,0,.17.35t-.17.35a4.91,4.91,0,0,0-3.07.75q-.93.75-.87,3.07l.29,13.17a10.43,10.43,0,0,0,.32,2.61,1.65,1.65,0,0,0,1,1.1,7.11,7.11,0,0,0,2.38.29C524.24,754.6,524.3,754.72,524.3,755Z"
    transform="translate(-229.43 -367.89)"></path>
  <path
    d="M565.83,737.93a9,9,0,0,1,2.78,6.7,10.57,10.57,0,0,1-5.66,9.48,12.21,12.21,0,0,1-5.89,1.42q-1.91,0-4.12-.17l-1.91-.12q-1.1-.06-2.49-.06l-3.94.06q-1,.06-2.9.06c-.12,0-.17-.12-.17-.35s.06-.35.17-.35a12.86,12.86,0,0,0,3.19-.29,2.05,2.05,0,0,0,1.42-1.13,6.66,6.66,0,0,0,.38-2.58V723.75a6.44,6.44,0,0,0-.38-2.55,2.15,2.15,0,0,0-1.39-1.13,11.44,11.44,0,0,0-3.16-.32c-.12,0-.17-.12-.17-.35s.06-.35.17-.35l2.84.06q2.44.12,3.94.12,1,0,1.94-.06l1.59-.12q1.74-.17,3.31-.17,4.87,0,7.28,2.12a7,7,0,0,1,2.41,5.54,7.57,7.57,0,0,1-1.8,5,11.81,11.81,0,0,1-4.87,3.39A11.52,11.52,0,0,1,565.83,737.93ZM551.88,720a1.83,1.83,0,0,0-1.07,1.1,7.82,7.82,0,0,0-.35,2.75v11l2.61.06q4.23,0,6.23-2.18a8.19,8.19,0,0,0,2-5.77,7.69,7.69,0,0,0-1.74-5.28q-1.74-2-5.45-2A7.07,7.07,0,0,0,551.88,720Zm12.67,26a9.85,9.85,0,0,0-2.58-7.1,9.55,9.55,0,0,0-7.11-2.76q-1.39-.06-4.41.06V750.6a5,5,0,0,0,.43,2.32,2.63,2.63,0,0,0,1.65,1.19,13.18,13.18,0,0,0,3.65.38Q564.55,754.49,564.55,746Z"
    transform="translate(-229.43 -367.89)"></path>
  <path
    d="M595.58,752.17a.33.33,0,0,1,.32.26.28.28,0,0,1-.15.38l-6,2.84a1.87,1.87,0,0,1-.52.12,1.62,1.62,0,0,1-1.33-1,6.73,6.73,0,0,1-.75-2.73l-3.6,1.91a24.16,24.16,0,0,1-3,1.33,6.85,6.85,0,0,1-2.26.41,3.73,3.73,0,0,1-2.76-1,3.34,3.34,0,0,1-1-2.47,3,3,0,0,1,1.22-2.49,17.21,17.21,0,0,1,4.29-2l7-2.44v-4.81q0-3.83-1-5.39a3.12,3.12,0,0,0-2.78-1.57,3.59,3.59,0,0,0-3,1.42,6.84,6.84,0,0,0-1.31,3.39,3.86,3.86,0,0,1-.61,1.6,1.77,1.77,0,0,1-1.54.61,2.1,2.1,0,0,1-1.45-.46,1.62,1.62,0,0,1-.52-1.28,4.07,4.07,0,0,1,1.74-2.84,15.73,15.73,0,0,1,4.21-2.55,11.54,11.54,0,0,1,4.44-1A4.68,4.68,0,0,1,589,734a7.11,7.11,0,0,1,1.39,4.79V749a6.51,6.51,0,0,0,.52,3,1.77,1.77,0,0,0,1.68,1,8.29,8.29,0,0,0,2.9-.81Zm-8.47-.93V746l-6,2.26a4.2,4.2,0,0,0-1.88,1.13,2.51,2.51,0,0,0-.55,1.65,2.59,2.59,0,0,0,.7,1.91,2.51,2.51,0,0,0,1.86.7,5.83,5.83,0,0,0,2.32-.64Z"
    transform="translate(-229.43 -367.89)"></path>
  <path
    d="M602.89,754.34a10.1,10.1,0,0,1-3.77-4.26,12.88,12.88,0,0,1-1.22-5.51,11.16,11.16,0,0,1,1.88-6.47,12.68,12.68,0,0,1,4.81-4.23,13.17,13.17,0,0,1,6-1.48,10.38,10.38,0,0,1,4.7,1q2,1,2,2.52a1.78,1.78,0,0,1-.55,1.31,2,2,0,0,1-1.48.55,3,3,0,0,1-2.55-1.86,5.07,5.07,0,0,0-1.6-1.8,4.64,4.64,0,0,0-2.52-.58,5.91,5.91,0,0,0-5.08,2.52,11.29,11.29,0,0,0-1.83,6.76,12.68,12.68,0,0,0,2.44,8q2.44,3.16,7.37,3.16a9,9,0,0,0,5.86-1.91h.12a.42.42,0,0,1,.32.17c.1.12.09.21,0,.29a13.59,13.59,0,0,1-4.06,2.67,12.1,12.1,0,0,1-4.52.81A11.39,11.39,0,0,1,602.89,754.34Z"
    transform="translate(-229.43 -367.89)"></path>
  <path
    d="M655.84,733.43a9,9,0,0,1,3.25,3.71,12.55,12.55,0,0,1,1.22,5.68,13,13,0,0,1-2,7.34,12.77,12.77,0,0,1-10.5,5.89,14.7,14.7,0,0,1-3.25-.32,10.59,10.59,0,0,1-2.9-1.19v12a5.64,5.64,0,0,0,.44,2.55,2.45,2.45,0,0,0,1.65,1.13,15.9,15.9,0,0,0,3.71.32c.12,0,.17.12.17.35s-.06.35-.17.35q-2,0-3.19-.06l-4.18-.06-3.48.06q-.93.06-2.44.06c-.12,0-.17-.12-.17-.35s.06-.35.17-.35a8.55,8.55,0,0,0,2.73-.32,1.92,1.92,0,0,0,1.19-1.13,7.52,7.52,0,0,0,.32-2.55V737.61a6,6,0,0,0-.41-2.52,2.23,2.23,0,0,0-1.42-1.16,10.89,10.89,0,0,0-3-.32c-.12,0-.17-.12-.17-.35s.06-.35.17-.35h7q.7,0,.9.29a2.41,2.41,0,0,1,.2,1.22v2.73q4.93-5,9.74-5A8.14,8.14,0,0,1,655.84,733.43Zm-1.22,18.71q2-2.7,2-7.51t-2.15-7.54a6.65,6.65,0,0,0-5.45-2.73,7.64,7.64,0,0,0-3.83,1,15,15,0,0,0-3.48,2.84v13a11.19,11.19,0,0,0,3.42,2.73,9.89,9.89,0,0,0,4.47.93A6,6,0,0,0,654.63,752.14Z"
    transform="translate(-229.43 -367.89)"></path>
  <path
    d="M686.64,752.17a.33.33,0,0,1,.32.26.28.28,0,0,1-.15.38l-6,2.84a1.87,1.87,0,0,1-.52.12,1.62,1.62,0,0,1-1.33-1,6.73,6.73,0,0,1-.75-2.73l-3.6,1.91a24.16,24.16,0,0,1-3,1.33,6.85,6.85,0,0,1-2.26.41,3.73,3.73,0,0,1-2.76-1,3.34,3.34,0,0,1-1-2.47,3,3,0,0,1,1.22-2.49,17.21,17.21,0,0,1,4.29-2l7-2.44v-4.81q0-3.83-1-5.39a3.12,3.12,0,0,0-2.78-1.57,3.59,3.59,0,0,0-3,1.42,6.84,6.84,0,0,0-1.31,3.39,3.86,3.86,0,0,1-.61,1.6,1.77,1.77,0,0,1-1.54.61,2.1,2.1,0,0,1-1.45-.46,1.62,1.62,0,0,1-.52-1.28,4.07,4.07,0,0,1,1.74-2.84,15.73,15.73,0,0,1,4.21-2.55,11.54,11.54,0,0,1,4.44-1A4.68,4.68,0,0,1,680,734a7.11,7.11,0,0,1,1.39,4.79V749a6.51,6.51,0,0,0,.52,3,1.77,1.77,0,0,0,1.68,1,8.29,8.29,0,0,0,2.9-.81Zm-8.47-.93V746l-6,2.26a4.2,4.2,0,0,0-1.88,1.13,2.51,2.51,0,0,0-.55,1.65,2.59,2.59,0,0,0,.7,1.91,2.51,2.51,0,0,0,1.86.7,5.83,5.83,0,0,0,2.32-.64Z"
    transform="translate(-229.43 -367.89)"></path>
  <path
    d="M703.78,744.68a5,5,0,0,1,1.6,3.83,6.62,6.62,0,0,1-2.61,5.37,10.07,10.07,0,0,1-6.55,2.12,10.65,10.65,0,0,1-4.09-.75,10.17,10.17,0,0,1-3.33-2.26l-.06-.12a.43.43,0,0,1,.23-.38c.15-.1.27-.09.35,0a8.07,8.07,0,0,0,2.75,1.51,10.66,10.66,0,0,0,3.33.52,5.8,5.8,0,0,0,4.47-1.62,5.9,5.9,0,0,0,1.51-4.18,4.59,4.59,0,0,0-1.62-3.8q-1.62-1.31-5.28-1.31-.23,0-.29-.35t.29-.35q3.42-.06,4.87-1.19a3.91,3.91,0,0,0,1.45-3.28q0-5.16-4.93-5.16-4.29,0-6.61,5.68c0,.08-.13.12-.29.12a.61.61,0,0,1-.32-.09c-.1-.06-.13-.11-.09-.15l1.86-7.19c0-.08.08-.12.23-.12a.6.6,0,0,1,.32.09c.1.06.13.11.09.14a2.42,2.42,0,0,0-.06.58,1.17,1.17,0,0,0,.29.87.94.94,0,0,0,.7.29,2.66,2.66,0,0,0,.84-.2q.55-.2.78-.26a11.75,11.75,0,0,1,4.18-.93,7.5,7.5,0,0,1,5,1.48,4.59,4.59,0,0,1,1.74,3.63,4.89,4.89,0,0,1-1.42,3.39,8.58,8.58,0,0,1-3.92,2.29A7.32,7.32,0,0,1,703.78,744.68Z"
    transform="translate(-229.43 -367.89)"></path>
  <path
    d="M733.62,754.17a1.73,1.73,0,0,1,.06.61l-.06,1.57q-.23,2.67-.23,7.77c0,.19-.12.29-.35.29s-.35-.1-.35-.29q0-4.87-1.74-6.84a6.16,6.16,0,0,0-4.87-2H715a5.39,5.39,0,0,0-4.44,2q-1.6,2-1.59,6.84c0,.19-.12.29-.35.29s-.35-.1-.35-.29q0-3.65-.12-5.48T708,756.4q-.12-1.28-.12-1.62a1.14,1.14,0,0,1,.09-.61.83.83,0,0,1,.49-.09,5.45,5.45,0,0,0,5.48-3.89q1.48-3.88,1.48-11.6a11.12,11.12,0,0,0-.35-3.22,2.37,2.37,0,0,0-1.3-1.51,7.07,7.07,0,0,0-2.81-.44c-.12,0-.17-.11-.17-.32s.06-.32.17-.32l10,.12h12.3c.08,0,.12.12.12.35s0,.35-.12.35a7.86,7.86,0,0,0-2.73.35,2,2,0,0,0-1.19,1.19,7.75,7.75,0,0,0-.32,2.58V750.6q0,.47,0,1.8t.81,1.51a19.64,19.64,0,0,0,3.28.17C733.43,754.08,733.58,754.11,733.62,754.17Zm-7.77-16.56a18.28,18.28,0,0,0-.12-2.61.89.89,0,0,0-.64-.78,10,10,0,0,0-2.15-.15h-2.61a8.13,8.13,0,0,0-2.35.23,1.31,1.31,0,0,0-.87.87,8.51,8.51,0,0,0-.2,2.26,54,54,0,0,1-.84,10.7,10,10,0,0,1-3.16,5.89h7.25a34.45,34.45,0,0,0,4-.15,1.68,1.68,0,0,0,1.36-.81,5.94,5.94,0,0,0,.35-2.47Z"
    transform="translate(-229.43 -367.89)"></path>
  <path
    d="M756.41,752a.4.4,0,0,1,.32.23c.1.16.11.27,0,.35a14,14,0,0,1-4.09,2.61,11.84,11.84,0,0,1-4.38.81,10.91,10.91,0,0,1-5.89-1.54,10,10,0,0,1-3.74-4.09,12.15,12.15,0,0,1-1.28-5.51,12.39,12.39,0,0,1,1.65-6.29,12.15,12.15,0,0,1,4.5-4.52,12.34,12.34,0,0,1,6.32-1.65,7.12,7.12,0,0,1,4.87,1.54,5.32,5.32,0,0,1,1.74,4.21,2.85,2.85,0,0,1-.15,1,.54.54,0,0,1-.55.35l-14.27.06a16.56,16.56,0,0,0-.29,3,13.07,13.07,0,0,0,2.44,8.21,8,8,0,0,0,6.67,3.16,10.44,10.44,0,0,0,6-1.91Zm-12.5-17.08a7.28,7.28,0,0,0-2.23,3.86l10.79-.23a5.4,5.4,0,0,0-1.28-3.68,4.3,4.3,0,0,0-3.31-1.31A5.91,5.91,0,0,0,743.92,734.91Z"
    transform="translate(-229.43 -367.89)"></path>
  <path
    d="M760.24,755.36a1.74,1.74,0,0,1-.58-1.45,1.38,1.38,0,0,1,.64-1.33,3.5,3.5,0,0,1,1.68-.35,3.78,3.78,0,0,0,3.39-1.74,10.8,10.8,0,0,0,1.48-4.61,62.33,62.33,0,0,0,.35-7.28,11.12,11.12,0,0,0-.35-3.22,2.37,2.37,0,0,0-1.3-1.51,7.07,7.07,0,0,0-2.81-.44c-.08,0-.12-.11-.12-.32s0-.32.12-.32l10,.12h11.37c.08,0,.12.12.12.35s0,.35-.12.35a6,6,0,0,0-2.38.35,1.85,1.85,0,0,0-1,1.19,9.39,9.39,0,0,0-.26,2.58V750.6a9.39,9.39,0,0,0,.26,2.58,1.66,1.66,0,0,0,1,1.13,7.12,7.12,0,0,0,2.38.29c.08,0,.12.12.12.35s0,.35-.12.35q-1.51,0-2.32-.06l-2.9-.06-3.13.06q-.87.06-2.32.06c-.12,0-.17-.12-.17-.35s.06-.35.17-.35a7.11,7.11,0,0,0,2.38-.29,1.75,1.75,0,0,0,1-1.13,8.53,8.53,0,0,0,.29-2.58v-13a18.49,18.49,0,0,0-.12-2.61,1,1,0,0,0-.64-.81,7.62,7.62,0,0,0-2-.17h-2.26a8.47,8.47,0,0,0-2.38.23,1.32,1.32,0,0,0-.9.93,8.86,8.86,0,0,0-.2,2.26q0,5.16-.35,8.93a17.08,17.08,0,0,1-1.88,6.61,5,5,0,0,1-4.67,2.84A2.34,2.34,0,0,1,760.24,755.36Z"
    transform="translate(-229.43 -367.89)"></path>
  <path
    d="M814.18,755c0,.23-.06.35-.17.35q-1.45,0-2.26-.06l-3-.06-3.13.06q-.81.06-2.26.06c-.12,0-.17-.12-.17-.35s.06-.35.17-.35a7.12,7.12,0,0,0,2.38-.29,1.75,1.75,0,0,0,1-1.13,8.49,8.49,0,0,0,.29-2.58V738.65l-12.35,12.41a4.28,4.28,0,0,0,.75,2.87,4.39,4.39,0,0,0,2.9.67c.12,0,.17.12.17.35s-.06.35-.17.35q-1.45,0-2.26-.06l-3-.06-3.07.06q-.81.06-2.32.06c-.12,0-.17-.12-.17-.35s.06-.35.17-.35a7.41,7.41,0,0,0,2.41-.29,1.66,1.66,0,0,0,1-1.13,9.39,9.39,0,0,0,.26-2.58v-13a9.39,9.39,0,0,0-.26-2.58,1.66,1.66,0,0,0-1-1.13,7.13,7.13,0,0,0-2.38-.29c-.12,0-.17-.12-.17-.35s.06-.35.17-.35q1.45,0,2.26.06l3.07.06,3-.06q.81-.06,2.21-.06c.12,0,.17.12.17.35s-.06.35-.17.35A6,6,0,0,0,796,734a1.85,1.85,0,0,0-1,1.19,9.36,9.36,0,0,0-.26,2.58v11.72L807.11,737a4.06,4.06,0,0,0-.75-2.78,4.56,4.56,0,0,0-2.9-.64c-.12,0-.17-.12-.17-.35s.06-.35.17-.35q1.45,0,2.26.06l3.07.06,3-.06q.81-.06,2.2-.06c.12,0,.17.12.17.35s-.06.35-.17.35a6,6,0,0,0-2.38.35,1.85,1.85,0,0,0-1,1.19,9.35,9.35,0,0,0-.26,2.58V750.6a9.35,9.35,0,0,0,.26,2.58,1.66,1.66,0,0,0,1,1.13,7.12,7.12,0,0,0,2.38.29C814.12,754.6,814.18,754.72,814.18,755Z"
    transform="translate(-229.43 -367.89)"></path>
  <path
    d="M822.82,755q0-.35.12-.35a7.39,7.39,0,0,0,2.41-.29,1.66,1.66,0,0,0,1-1.13,9.35,9.35,0,0,0,.26-2.58V737.72a6.38,6.38,0,0,0-.52-3.16q-.52-.78-2.26-.78a4.48,4.48,0,0,0-3.77,1.57q-1.22,1.57-1.33,5.1c0,.08-.17.12-.38.12s-.32,0-.32-.12L818,737q-.06-.64-.12-1.54t-.06-2.06a1,1,0,0,1,.06-.44c0-.06.17-.09.41-.09q1.22,0,2.15.06l7.77.06,7.95-.06q1-.06,2.26-.06c.23,0,.37,0,.41.09a1,1,0,0,1,.06.44q0,1.16-.06,2.06t-.12,1.54l-.12,3.48c0,.08-.11.12-.32.12s-.34,0-.38-.12q-.12-3.54-1.33-5.1a4.48,4.48,0,0,0-3.77-1.57q-1.74,0-2.26.78a6.38,6.38,0,0,0-.52,3.16V750.6a9.39,9.39,0,0,0,.26,2.58,1.66,1.66,0,0,0,1,1.13,7.12,7.12,0,0,0,2.38.29c.08,0,.12.12.12.35s0,.35-.12.35q-1.51,0-2.32-.06l-2.9-.06-3.07.06q-.87.06-2.38.06Q822.82,755.3,822.82,755Z"
    transform="translate(-229.43 -367.89)"></path>
  <path
    d="M861.28,743.67a5.39,5.39,0,0,1,1.91,4.55,6.63,6.63,0,0,1-2.26,5.16,8.19,8.19,0,0,1-5.68,2q-.87,0-3.31-.12-2.78-.12-3.94-.12l-3.07.06q-.81.06-2.32.06c-.12,0-.17-.12-.17-.35s.06-.35.17-.35a7.41,7.41,0,0,0,2.41-.29,1.66,1.66,0,0,0,1-1.13,9.39,9.39,0,0,0,.26-2.58v-13a9.39,9.39,0,0,0-.26-2.58,1.66,1.66,0,0,0-1-1.13,7.13,7.13,0,0,0-2.38-.29c-.12,0-.17-.12-.17-.35s.06-.35.17-.35q1.45,0,2.26.06L848,733l3.36-.06q.93-.06,2.55-.06c.12,0,.17.12.17.35s-.06.35-.17.35a8.36,8.36,0,0,0-2.81.35,2,2,0,0,0-1.22,1.19,7.76,7.76,0,0,0-.32,2.58V743a20.12,20.12,0,0,1,6-.81Q859.36,742.19,861.28,743.67Zm-1.74,5.83a6.79,6.79,0,0,0-1.48-4.64,5.75,5.75,0,0,0-4.55-1.68,12,12,0,0,0-3.94.64v6.79a4.11,4.11,0,0,0,.93,3.07q.93.87,3.71.87Q859.54,754.54,859.54,749.5Z"
    transform="translate(-229.43 -367.89)"></path>
  <path
    d="M237.47,823.94a10.11,10.11,0,0,1-3.77-4.26,12.87,12.87,0,0,1-1.22-5.51,11.17,11.17,0,0,1,1.89-6.47,12.67,12.67,0,0,1,4.81-4.23,13.17,13.17,0,0,1,6-1.48,10.38,10.38,0,0,1,4.7,1q2,1,2,2.52a1.78,1.78,0,0,1-.55,1.31,2,2,0,0,1-1.48.55,3,3,0,0,1-2.55-1.86,5.07,5.07,0,0,0-1.6-1.8,4.65,4.65,0,0,0-2.52-.58,5.91,5.91,0,0,0-5.07,2.52,11.29,11.29,0,0,0-1.83,6.76,12.68,12.68,0,0,0,2.44,8q2.44,3.16,7.37,3.16a9,9,0,0,0,5.86-1.91h.12a.42.42,0,0,1,.32.17c.1.12.09.21,0,.29a13.58,13.58,0,0,1-4.06,2.67,12.09,12.09,0,0,1-4.52.81A11.39,11.39,0,0,1,237.47,823.94Z"
    transform="translate(-229.43 -367.89)"></path>
  <path
    d="M296,824.55q0,.35-.17.35-1.45,0-2.26-.06l-3-.06-3.13.06q-.81.06-2.26.06c-.12,0-.17-.12-.17-.35s.06-.35.17-.35a7.12,7.12,0,0,0,2.38-.29,1.75,1.75,0,0,0,1-1.13,8.49,8.49,0,0,0,.29-2.58v-5.92H276.62v5.92a9.37,9.37,0,0,0,.26,2.58,1.66,1.66,0,0,0,1,1.13,7.12,7.12,0,0,0,2.38.29q.17,0,.17.35t-.17.35q-1.45,0-2.26-.06l-3-.06-3.07.06q-.81.06-2.32.06-.17,0-.17-.35t.17-.35a7.4,7.4,0,0,0,2.41-.29,1.66,1.66,0,0,0,1-1.13,9.39,9.39,0,0,0,.26-2.58v-13a9.4,9.4,0,0,0-.26-2.58,1.67,1.67,0,0,0-1-1.13,7.13,7.13,0,0,0-2.38-.29c-.12,0-.17-.12-.17-.35s.06-.35.17-.35q1.45,0,2.26.06l3.07.06,3-.06q.81-.06,2.2-.06.17,0,.17.35t-.17.35a6,6,0,0,0-2.38.35,1.85,1.85,0,0,0-1,1.19,9.37,9.37,0,0,0-.26,2.58v5.8H289v-5.92a9.4,9.4,0,0,0-.26-2.58,1.67,1.67,0,0,0-1-1.13,7.13,7.13,0,0,0-2.38-.29q-.17,0-.17-.35t.17-.35q1.45,0,2.26.06l3.07.06,3-.06q.81-.06,2.2-.06.17,0,.17.35t-.17.35a6,6,0,0,0-2.38.35,1.85,1.85,0,0,0-1,1.19,9.37,9.37,0,0,0-.26,2.58V820.2a9.37,9.37,0,0,0,.26,2.58,1.66,1.66,0,0,0,1,1.13,7.12,7.12,0,0,0,2.38.29Q296,824.2,296,824.55Z"
    transform="translate(-229.43 -367.89)"></path>
  <path
    d="M321.8,821.77a.33.33,0,0,1,.32.26.28.28,0,0,1-.15.38l-6,2.84a1.86,1.86,0,0,1-.52.12,1.62,1.62,0,0,1-1.33-1,6.73,6.73,0,0,1-.75-2.73l-3.6,1.91a24.16,24.16,0,0,1-3,1.33,6.85,6.85,0,0,1-2.26.41,3.73,3.73,0,0,1-2.76-1,3.34,3.34,0,0,1-1-2.47,3,3,0,0,1,1.22-2.49,17.21,17.21,0,0,1,4.29-2l7-2.44v-4.81q0-3.83-1-5.39a3.12,3.12,0,0,0-2.78-1.57,3.59,3.59,0,0,0-3,1.42,6.84,6.84,0,0,0-1.31,3.39,3.87,3.87,0,0,1-.61,1.6,1.77,1.77,0,0,1-1.54.61,2.1,2.1,0,0,1-1.45-.46,1.62,1.62,0,0,1-.52-1.28,4.07,4.07,0,0,1,1.74-2.84A15.74,15.74,0,0,1,307,803a11.54,11.54,0,0,1,4.44-1,4.68,4.68,0,0,1,3.71,1.6,7.11,7.11,0,0,1,1.39,4.79v10.27a6.5,6.5,0,0,0,.52,3,1.78,1.78,0,0,0,1.68,1,8.3,8.3,0,0,0,2.9-.81Zm-8.47-.93v-5.22l-6,2.26a4.2,4.2,0,0,0-1.88,1.13,2.51,2.51,0,0,0-.55,1.65,2.59,2.59,0,0,0,.7,1.91,2.51,2.51,0,0,0,1.86.7,5.83,5.83,0,0,0,2.32-.64Z"
    transform="translate(-229.43 -367.89)"></path>
  <path
    d="M354.16,824.55c0,.23-.06.35-.17.35q-1.51,0-2.38-.06l-2.9-.06-2.78.06q-.7.06-1.91.06c-.08,0-.12-.12-.12-.35s0-.35.12-.35a5,5,0,0,0,2-.29,1.63,1.63,0,0,0,.87-1.13,9.39,9.39,0,0,0,.17-2.58l-.29-14.44-7.95,19.14c0,.15-.19.23-.46.23a.55.55,0,0,1-.46-.23l-9-17.57-.06-.17-.12,11.72a7.27,7.27,0,0,0,.78,4.09,3.2,3.2,0,0,0,2.87,1.25q.12,0,.12.35t-.12.35q-1.22,0-1.91-.06l-2.38-.06-2.44.06q-.7.06-2,.06c-.08,0-.12-.12-.12-.35s0-.35.12-.35a3.36,3.36,0,0,0,2.93-1.25,7.42,7.42,0,0,0,1-4.09l.12-13.51a5,5,0,0,0-3.89-2.15c-.08,0-.12-.12-.12-.35s0-.35.12-.35l2.78.06,2.61-.06a1.44,1.44,0,0,1,1.19.46,22.12,22.12,0,0,1,1.48,2.49l7.66,15L346.27,804a2.16,2.16,0,0,1,.73-1.07,1.65,1.65,0,0,1,1-.38l2.73.06,3.19-.06q.17,0,.17.35t-.17.35a4.91,4.91,0,0,0-3.07.75q-.93.75-.87,3.07l.29,13.17a10.43,10.43,0,0,0,.32,2.61,1.65,1.65,0,0,0,1,1.1,7.11,7.11,0,0,0,2.38.29C354.1,824.2,354.16,824.32,354.16,824.55Z"
    transform="translate(-229.43 -367.89)"></path>
  <path
    d="M383.68,824.55q0,.35-.17.35-1.45,0-2.26-.06l-3-.06-3.13.06q-.81.06-2.26.06c-.12,0-.17-.12-.17-.35s.06-.35.17-.35a7.12,7.12,0,0,0,2.38-.29,1.75,1.75,0,0,0,1-1.13,8.49,8.49,0,0,0,.29-2.58V808.25l-12.35,12.41a4.29,4.29,0,0,0,.75,2.87,4.4,4.4,0,0,0,2.9.67q.17,0,.17.35t-.17.35q-1.45,0-2.26-.06l-3-.06-3.07.06q-.81.06-2.32.06-.17,0-.17-.35t.17-.35a7.4,7.4,0,0,0,2.41-.29,1.66,1.66,0,0,0,1-1.13,9.39,9.39,0,0,0,.26-2.58v-13a9.4,9.4,0,0,0-.26-2.58,1.67,1.67,0,0,0-1-1.13,7.13,7.13,0,0,0-2.38-.29c-.12,0-.17-.12-.17-.35s.06-.35.17-.35q1.45,0,2.26.06l3.07.06,3-.06q.81-.06,2.2-.06.17,0,.17.35t-.17.35a6,6,0,0,0-2.38.35,1.85,1.85,0,0,0-1,1.19,9.37,9.37,0,0,0-.26,2.58V819l12.35-12.41a4.06,4.06,0,0,0-.75-2.78,4.55,4.55,0,0,0-2.9-.64q-.17,0-.17-.35t.17-.35q1.45,0,2.26.06l3.07.06,3-.06q.81-.06,2.2-.06.17,0,.17.35t-.17.35a6,6,0,0,0-2.38.35,1.85,1.85,0,0,0-1,1.19,9.37,9.37,0,0,0-.26,2.58V820.2a9.37,9.37,0,0,0,.26,2.58,1.66,1.66,0,0,0,1,1.13,7.12,7.12,0,0,0,2.38.29Q383.68,824.2,383.68,824.55Z"
    transform="translate(-229.43 -367.89)"></path>
  <path
    d="M421.56,803a9,9,0,0,1,3.25,3.71,12.56,12.56,0,0,1,1.22,5.68,13,13,0,0,1-2,7.34,12.77,12.77,0,0,1-10.5,5.89,14.7,14.7,0,0,1-3.25-.32,10.58,10.58,0,0,1-2.9-1.19v12a5.66,5.66,0,0,0,.44,2.55,2.45,2.45,0,0,0,1.65,1.13,15.89,15.89,0,0,0,3.71.32q.17,0,.17.35t-.17.35q-2,0-3.19-.06l-4.18-.06-3.48.06q-.93.06-2.44.06-.17,0-.17-.35t.17-.35a8.55,8.55,0,0,0,2.73-.32,1.92,1.92,0,0,0,1.19-1.13,7.5,7.5,0,0,0,.32-2.55V807.21a6.05,6.05,0,0,0-.41-2.52,2.23,2.23,0,0,0-1.42-1.16,10.89,10.89,0,0,0-3-.32q-.17,0-.17-.35t.17-.35h7c.46,0,.76.1.9.29a2.41,2.41,0,0,1,.2,1.22v2.73q4.93-5,9.74-5A8.14,8.14,0,0,1,421.56,803Zm-1.22,18.71q2-2.7,2-7.51t-2.15-7.54a6.65,6.65,0,0,0-5.45-2.73,7.63,7.63,0,0,0-3.83,1,15,15,0,0,0-3.48,2.84v13a11.19,11.19,0,0,0,3.42,2.73,9.89,9.89,0,0,0,4.47.93A6,6,0,0,0,420.34,821.74Z"
    transform="translate(-229.43 -367.89)"></path>
  <path
    d="M452.35,821.77a.33.33,0,0,1,.32.26.28.28,0,0,1-.15.38l-6,2.84a1.86,1.86,0,0,1-.52.12,1.62,1.62,0,0,1-1.33-1,6.73,6.73,0,0,1-.75-2.73l-3.6,1.91a24.16,24.16,0,0,1-3,1.33,6.85,6.85,0,0,1-2.26.41,3.73,3.73,0,0,1-2.76-1,3.34,3.34,0,0,1-1-2.47,3,3,0,0,1,1.22-2.49,17.21,17.21,0,0,1,4.29-2l7-2.44v-4.81q0-3.83-1-5.39a3.12,3.12,0,0,0-2.78-1.57,3.59,3.59,0,0,0-3,1.42,6.84,6.84,0,0,0-1.31,3.39,3.87,3.87,0,0,1-.61,1.6,1.77,1.77,0,0,1-1.54.61,2.1,2.1,0,0,1-1.45-.46,1.62,1.62,0,0,1-.52-1.28,4.07,4.07,0,0,1,1.74-2.84,15.74,15.74,0,0,1,4.21-2.55,11.54,11.54,0,0,1,4.44-1,4.68,4.68,0,0,1,3.71,1.6,7.11,7.11,0,0,1,1.39,4.79v10.27a6.5,6.5,0,0,0,.52,3,1.78,1.78,0,0,0,1.68,1,8.3,8.3,0,0,0,2.9-.81Zm-8.47-.93v-5.22l-6,2.26A4.2,4.2,0,0,0,436,819a2.51,2.51,0,0,0-.55,1.65,2.59,2.59,0,0,0,.7,1.91,2.51,2.51,0,0,0,1.86.7,5.83,5.83,0,0,0,2.32-.64Z"
    transform="translate(-229.43 -367.89)"></path>
  <path
    d="M478.74,823.77a1.69,1.69,0,0,1,.06.61l-.06,1.57q-.23,2.67-.23,7.77c0,.19-.12.29-.35.29s-.35-.1-.35-.29q0-4.87-1.74-6.84a6.16,6.16,0,0,0-4.87-2H460.12a5.39,5.39,0,0,0-4.44,2q-1.6,2-1.6,6.84c0,.19-.12.29-.35.29s-.35-.1-.35-.29q0-3.65-.12-5.48t-.12-2.23q-.12-1.28-.12-1.62a1.16,1.16,0,0,1,.09-.61.83.83,0,0,1,.49-.09,5.45,5.45,0,0,0,5.48-3.89q1.48-3.88,1.48-11.6a11.12,11.12,0,0,0-.35-3.22,2.37,2.37,0,0,0-1.3-1.51,7.07,7.07,0,0,0-2.81-.44c-.12,0-.17-.11-.17-.32s.06-.32.17-.32l10,.12h12.3c.08,0,.12.12.12.35s0,.35-.12.35a7.86,7.86,0,0,0-2.73.35,2,2,0,0,0-1.19,1.19,7.76,7.76,0,0,0-.32,2.58V820.2q0,.47,0,1.8t.81,1.51a19.62,19.62,0,0,0,3.28.17C478.55,823.68,478.7,823.71,478.74,823.77ZM471,807.21a18.28,18.28,0,0,0-.12-2.61.89.89,0,0,0-.64-.78,10,10,0,0,0-2.15-.15h-2.61a8.13,8.13,0,0,0-2.35.23,1.31,1.31,0,0,0-.87.87A8.49,8.49,0,0,0,462,807a54,54,0,0,1-.84,10.7,10,10,0,0,1-3.16,5.89h7.25a34.48,34.48,0,0,0,4-.15,1.68,1.68,0,0,0,1.36-.81,6,6,0,0,0,.35-2.47Z"
    transform="translate(-229.43 -367.89)"></path>
  <path
    d="M487.94,824a11.17,11.17,0,0,1-4-4.47,13.37,13.37,0,0,1-1.42-6.12,11,11,0,0,1,1.83-6.41,11.33,11.33,0,0,1,4.7-3.94,14,14,0,0,1,5.83-1.31,10.61,10.61,0,0,1,6,1.68,11.15,11.15,0,0,1,3.92,4.44,13,13,0,0,1,1.36,5.83,11.8,11.8,0,0,1-1.65,6.29,11.33,11.33,0,0,1-4.47,4.18,13,13,0,0,1-6.12,1.48A10.78,10.78,0,0,1,487.94,824Zm12.47-1.68q1.77-2.29,1.77-7a16.56,16.56,0,0,0-1.19-6.44,10.57,10.57,0,0,0-3.28-4.44,7.63,7.63,0,0,0-4.76-1.6,5.71,5.71,0,0,0-4.84,2.26,10.61,10.61,0,0,0-1.71,6.5,17.86,17.86,0,0,0,1.16,6.53,11.35,11.35,0,0,0,3.25,4.73,7.15,7.15,0,0,0,4.7,1.74A5.84,5.84,0,0,0,500.4,822.32Z"
    transform="translate(-229.43 -367.89)"></path>
  <path
    d="M515.34,823.94a10.11,10.11,0,0,1-3.77-4.26,12.87,12.87,0,0,1-1.22-5.51,11.17,11.17,0,0,1,1.89-6.47,12.67,12.67,0,0,1,4.81-4.23,13.17,13.17,0,0,1,6-1.48,10.38,10.38,0,0,1,4.7,1q2,1,2,2.52a1.78,1.78,0,0,1-.55,1.31,2,2,0,0,1-1.48.55,3,3,0,0,1-2.55-1.86,5.07,5.07,0,0,0-1.6-1.8,4.65,4.65,0,0,0-2.52-.58,5.91,5.91,0,0,0-5.07,2.52,11.29,11.29,0,0,0-1.83,6.76,12.68,12.68,0,0,0,2.44,8q2.44,3.16,7.37,3.16a9,9,0,0,0,5.86-1.91H530a.42.42,0,0,1,.32.17c.1.12.09.21,0,.29a13.58,13.58,0,0,1-4.06,2.67,12.09,12.09,0,0,1-4.52.81A11.39,11.39,0,0,1,515.34,823.94Z"
    transform="translate(-229.43 -367.89)"></path>
  <path
    d="M539.06,824.55c0-.23,0-.35.12-.35a7.39,7.39,0,0,0,2.41-.29,1.66,1.66,0,0,0,1-1.13,9.39,9.39,0,0,0,.26-2.58V807.32a6.38,6.38,0,0,0-.52-3.16q-.52-.78-2.26-.78a4.48,4.48,0,0,0-3.77,1.57q-1.22,1.57-1.33,5.1c0,.08-.17.12-.38.12s-.32,0-.32-.12l-.12-3.48q-.06-.64-.12-1.54T534,803a1,1,0,0,1,.06-.44c0-.06.17-.09.41-.09q1.22,0,2.15.06l7.77.06,7.95-.06q1-.06,2.26-.06c.23,0,.37,0,.41.09a1,1,0,0,1,.06.44q0,1.16-.06,2.06t-.12,1.54l-.12,3.48c0,.08-.11.12-.32.12s-.34,0-.38-.12q-.12-3.54-1.33-5.1a4.48,4.48,0,0,0-3.77-1.57q-1.74,0-2.26.78a6.36,6.36,0,0,0-.52,3.16V820.2a9.39,9.39,0,0,0,.26,2.58,1.66,1.66,0,0,0,1,1.13,7.11,7.11,0,0,0,2.38.29c.08,0,.12.12.12.35s0,.35-.12.35q-1.51,0-2.32-.06l-2.9-.06-3.07.06q-.87.06-2.38.06C539.1,824.9,539.06,824.78,539.06,824.55Z"
    transform="translate(-229.43 -367.89)"></path>
  <path
    d="M577.51,813.27a5.39,5.39,0,0,1,1.91,4.55,6.63,6.63,0,0,1-2.26,5.16,8.19,8.19,0,0,1-5.68,2q-.87,0-3.31-.12-2.78-.12-3.94-.12l-3.07.06q-.81.06-2.32.06c-.12,0-.17-.12-.17-.35s.06-.35.17-.35a7.41,7.41,0,0,0,2.41-.29,1.66,1.66,0,0,0,1-1.13,9.39,9.39,0,0,0,.26-2.58v-13a9.39,9.39,0,0,0-.26-2.58,1.66,1.66,0,0,0-1-1.13,7.13,7.13,0,0,0-2.38-.29c-.12,0-.17-.12-.17-.35s.06-.35.17-.35q1.45,0,2.26.06l3.07.06,3.36-.06q.93-.06,2.55-.06c.12,0,.17.12.17.35s-.06.35-.17.35a8.36,8.36,0,0,0-2.81.35,2,2,0,0,0-1.22,1.19,7.76,7.76,0,0,0-.32,2.58v5.28a20.12,20.12,0,0,1,6-.81Q575.6,811.79,577.51,813.27Zm-1.74,5.83a6.79,6.79,0,0,0-1.48-4.64,5.75,5.75,0,0,0-4.55-1.68,12,12,0,0,0-3.94.64v6.79a4.11,4.11,0,0,0,.93,3.07q.93.87,3.71.87Q575.77,824.14,575.77,819.1Z"
    transform="translate(-229.43 -367.89)"></path>
  <path
    d="M601.84,824a11.17,11.17,0,0,1-4-4.47,13.37,13.37,0,0,1-1.42-6.12,11,11,0,0,1,1.83-6.41,11.34,11.34,0,0,1,4.7-3.94,14,14,0,0,1,5.83-1.31,10.61,10.61,0,0,1,6,1.68,11.14,11.14,0,0,1,3.91,4.44A13,13,0,0,1,620,813.7a11.8,11.8,0,0,1-1.65,6.29,11.33,11.33,0,0,1-4.47,4.18,12.94,12.94,0,0,1-6.12,1.48A10.78,10.78,0,0,1,601.84,824Zm12.47-1.68q1.77-2.29,1.77-7a16.56,16.56,0,0,0-1.19-6.44,10.56,10.56,0,0,0-3.28-4.44,7.63,7.63,0,0,0-4.76-1.6,5.71,5.71,0,0,0-4.84,2.26,10.61,10.61,0,0,0-1.71,6.5,17.87,17.87,0,0,0,1.16,6.53,11.36,11.36,0,0,0,3.25,4.73,7.15,7.15,0,0,0,4.7,1.74A5.84,5.84,0,0,0,614.31,822.32Z"
    transform="translate(-229.43 -367.89)"></path>
  <path
    d="M629.25,823.94a10.1,10.1,0,0,1-3.77-4.26,12.88,12.88,0,0,1-1.22-5.51,11.16,11.16,0,0,1,1.88-6.47,12.68,12.68,0,0,1,4.81-4.23,13.17,13.17,0,0,1,6-1.48,10.38,10.38,0,0,1,4.7,1q2,1,2,2.52a1.78,1.78,0,0,1-.55,1.31,2,2,0,0,1-1.48.55,3,3,0,0,1-2.55-1.86,5.07,5.07,0,0,0-1.6-1.8,4.64,4.64,0,0,0-2.52-.58,5.91,5.91,0,0,0-5.08,2.52,11.29,11.29,0,0,0-1.83,6.76,12.68,12.68,0,0,0,2.44,8q2.44,3.16,7.37,3.16a9,9,0,0,0,5.86-1.91h.12a.42.42,0,0,1,.32.17c.1.12.09.21,0,.29a13.59,13.59,0,0,1-4.06,2.67,12.1,12.1,0,0,1-4.52.81A11.39,11.39,0,0,1,629.25,823.94Z"
    transform="translate(-229.43 -367.89)"></path>
  <path
    d="M653.17,824a11.18,11.18,0,0,1-4-4.47,13.37,13.37,0,0,1-1.42-6.12,11,11,0,0,1,1.83-6.41,11.33,11.33,0,0,1,4.7-3.94,14,14,0,0,1,5.83-1.31,10.61,10.61,0,0,1,6,1.68,11.15,11.15,0,0,1,3.92,4.44,13,13,0,0,1,1.36,5.83A11.79,11.79,0,0,1,669.7,820a11.33,11.33,0,0,1-4.47,4.18,13,13,0,0,1-6.12,1.48A10.78,10.78,0,0,1,653.17,824Zm12.47-1.68q1.77-2.29,1.77-7a16.58,16.58,0,0,0-1.19-6.44,10.57,10.57,0,0,0-3.28-4.44,7.63,7.63,0,0,0-4.76-1.6,5.72,5.72,0,0,0-4.84,2.26,10.61,10.61,0,0,0-1.71,6.5,17.87,17.87,0,0,0,1.16,6.53,11.35,11.35,0,0,0,3.25,4.73,7.15,7.15,0,0,0,4.7,1.74A5.85,5.85,0,0,0,665.64,822.32Z"
    transform="translate(-229.43 -367.89)"></path>
  <path
    d="M694,804.11a9.43,9.43,0,0,1,3.65,4.21,13.21,13.21,0,0,1,1.1,5.28,11.9,11.9,0,0,1-1.68,6.38,11.48,11.48,0,0,1-4.5,4.21,13.06,13.06,0,0,1-6.18,1.48,9.7,9.7,0,0,1-7.89-3.6q-3-3.6-3-11.83,0-8.7,3.68-13.37a23.58,23.58,0,0,1,9.31-7.1l1.57-.7a27,27,0,0,0,5-2.52,8.22,8.22,0,0,0,2.87-3.68c0-.15.16-.2.38-.15s.3.15.26.26a13.86,13.86,0,0,1-1.71,4.9,8.09,8.09,0,0,1-2.64,2.67,35.06,35.06,0,0,1-4.29,2.06l-1.51.64a27.27,27.27,0,0,0-6.38,3.83,14.13,14.13,0,0,0-3.92,5.45,24.19,24.19,0,0,0-1.59,8.53q1.91-5.28,5-6.93a12.39,12.39,0,0,1,5.86-1.65A12,12,0,0,1,694,804.11Zm-.93,18.18q1.8-2.32,1.8-7.08a17.07,17.07,0,0,0-1-6.09,9.57,9.57,0,0,0-2.9-4.18,6.65,6.65,0,0,0-4.26-1.51,5.68,5.68,0,0,0-5,2.78,11.81,11.81,0,0,0-1.8,6.55,15.11,15.11,0,0,0,2.2,8.5,7,7,0,0,0,6.15,3.33A5.84,5.84,0,0,0,693.11,822.29Z"
    transform="translate(-229.43 -367.89)"></path>
  <path
    d="M722,821.59c.12,0,.22.08.32.23s.11.27,0,.35a14,14,0,0,1-4.09,2.61,11.84,11.84,0,0,1-4.38.81,10.91,10.91,0,0,1-5.89-1.54A10,10,0,0,1,704.3,820a12.13,12.13,0,0,1-1.28-5.51,12.4,12.4,0,0,1,1.65-6.29,12.16,12.16,0,0,1,4.49-4.52,12.34,12.34,0,0,1,6.32-1.65,7.12,7.12,0,0,1,4.87,1.54,5.33,5.33,0,0,1,1.74,4.21,2.85,2.85,0,0,1-.15,1,.54.54,0,0,1-.55.35l-14.27.06a16.56,16.56,0,0,0-.29,3,13.06,13.06,0,0,0,2.44,8.21,8,8,0,0,0,6.67,3.16,10.44,10.44,0,0,0,6-1.91Zm-12.5-17.08a7.28,7.28,0,0,0-2.23,3.86l10.79-.23a5.4,5.4,0,0,0-1.28-3.68,4.3,4.3,0,0,0-3.31-1.31A5.91,5.91,0,0,0,709.55,804.51Z"
    transform="translate(-229.43 -367.89)"></path>
  <path
    d="M752.79,824.55c0,.23-.06.35-.17.35q-1.45,0-2.26-.06l-3-.06-3.13.06q-.81.06-2.26.06c-.12,0-.17-.12-.17-.35s.06-.35.17-.35a7.13,7.13,0,0,0,2.38-.29,1.75,1.75,0,0,0,1-1.13,8.48,8.48,0,0,0,.29-2.58v-5.92H733.36v5.92a9.39,9.39,0,0,0,.26,2.58,1.66,1.66,0,0,0,1,1.13,7.11,7.11,0,0,0,2.38.29c.12,0,.17.12.17.35s-.06.35-.17.35q-1.45,0-2.26-.06l-3-.06-3.07.06q-.81.06-2.32.06c-.12,0-.17-.12-.17-.35s.06-.35.17-.35a7.4,7.4,0,0,0,2.41-.29,1.66,1.66,0,0,0,1-1.13,9.39,9.39,0,0,0,.26-2.58v-13a9.4,9.4,0,0,0-.26-2.58,1.67,1.67,0,0,0-1-1.13,7.12,7.12,0,0,0-2.38-.29c-.12,0-.17-.12-.17-.35s.06-.35.17-.35q1.45,0,2.26.06l3.07.06,3-.06q.81-.06,2.2-.06c.12,0,.17.12.17.35s-.06.35-.17.35a6,6,0,0,0-2.38.35,1.84,1.84,0,0,0-1,1.19,9.39,9.39,0,0,0-.26,2.58v5.8h12.35v-5.92a9.39,9.39,0,0,0-.26-2.58,1.66,1.66,0,0,0-1-1.13,7.13,7.13,0,0,0-2.38-.29c-.12,0-.17-.12-.17-.35s.06-.35.17-.35q1.45,0,2.26.06l3.07.06,3-.06q.81-.06,2.2-.06c.12,0,.17.12.17.35s-.06.35-.17.35a6,6,0,0,0-2.38.35,1.85,1.85,0,0,0-1,1.19,9.36,9.36,0,0,0-.26,2.58V820.2a9.35,9.35,0,0,0,.26,2.58,1.66,1.66,0,0,0,1,1.13,7.11,7.11,0,0,0,2.38.29C752.73,824.2,752.79,824.32,752.79,824.55Z"
    transform="translate(-229.43 -367.89)"></path>
  <path
    d="M782.72,824.55c0,.23-.06.35-.17.35q-1.45,0-2.26-.06l-3-.06-3.13.06q-.81.06-2.26.06c-.12,0-.17-.12-.17-.35s.06-.35.17-.35a7.12,7.12,0,0,0,2.38-.29,1.75,1.75,0,0,0,1-1.13,8.49,8.49,0,0,0,.29-2.58v-5.92H763.29v5.92a9.39,9.39,0,0,0,.26,2.58,1.66,1.66,0,0,0,1,1.13,7.12,7.12,0,0,0,2.38.29c.12,0,.17.12.17.35s-.06.35-.17.35q-1.45,0-2.26-.06l-3-.06-3.07.06q-.81.06-2.32.06c-.12,0-.17-.12-.17-.35s.06-.35.17-.35a7.39,7.39,0,0,0,2.41-.29,1.66,1.66,0,0,0,1-1.13,9.4,9.4,0,0,0,.26-2.58v-13a9.41,9.41,0,0,0-.26-2.58,1.67,1.67,0,0,0-1-1.13,7.13,7.13,0,0,0-2.38-.29c-.12,0-.17-.12-.17-.35s.06-.35.17-.35q1.45,0,2.26.06l3.07.06,3-.06q.81-.06,2.2-.06c.12,0,.17.12.17.35s-.06.35-.17.35a6,6,0,0,0-2.38.35,1.85,1.85,0,0,0-1,1.19,9.39,9.39,0,0,0-.26,2.58v5.8h12.35v-5.92a9.4,9.4,0,0,0-.26-2.58,1.67,1.67,0,0,0-1-1.13,7.12,7.12,0,0,0-2.38-.29c-.12,0-.17-.12-.17-.35s.06-.35.17-.35q1.45,0,2.26.06l3.07.06,3-.06q.81-.06,2.2-.06c.12,0,.17.12.17.35s-.06.35-.17.35a6,6,0,0,0-2.38.35,1.84,1.84,0,0,0-1,1.19,9.39,9.39,0,0,0-.26,2.58V820.2a9.39,9.39,0,0,0,.26,2.58,1.66,1.66,0,0,0,1,1.13,7.11,7.11,0,0,0,2.38.29C782.66,824.2,782.72,824.32,782.72,824.55Z"
    transform="translate(-229.43 -367.89)"></path>
  <path
    d="M791.91,824a11.18,11.18,0,0,1-4-4.47,13.37,13.37,0,0,1-1.42-6.12,11,11,0,0,1,1.83-6.41,11.33,11.33,0,0,1,4.7-3.94,14,14,0,0,1,5.83-1.31,10.61,10.61,0,0,1,6,1.68,11.15,11.15,0,0,1,3.92,4.44,13,13,0,0,1,1.36,5.83,11.79,11.79,0,0,1-1.65,6.29,11.33,11.33,0,0,1-4.47,4.18,13,13,0,0,1-6.12,1.48A10.78,10.78,0,0,1,791.91,824Zm12.47-1.68q1.77-2.29,1.77-7a16.58,16.58,0,0,0-1.19-6.44,10.57,10.57,0,0,0-3.28-4.44,7.63,7.63,0,0,0-4.76-1.6,5.72,5.72,0,0,0-4.84,2.26,10.61,10.61,0,0,0-1.71,6.5,17.87,17.87,0,0,0,1.16,6.53,11.35,11.35,0,0,0,3.25,4.73,7.15,7.15,0,0,0,4.7,1.74A5.85,5.85,0,0,0,804.38,822.32Z"
    transform="translate(-229.43 -367.89)"></path>
  <path
    d="M831.84,802.6a1,1,0,0,1,.06.43q0,1-.12,3.31l-.12,3.71c0,.08-.12.12-.35.12s-.35,0-.35-.12q-.23-3.65-1.59-5.19a5.42,5.42,0,0,0-4.26-1.54,7.16,7.16,0,0,0-2.58.35,2,2,0,0,0-1.16,1.19,7.3,7.3,0,0,0-.32,2.46V820.2a9.39,9.39,0,0,0,.26,2.58,1.66,1.66,0,0,0,1,1.13,7.12,7.12,0,0,0,2.38.29c.12,0,.17.12.17.35s-.06.35-.17.35q-1.45,0-2.26-.06l-3-.06-3.07.06q-.81.06-2.32.06c-.12,0-.17-.12-.17-.35s.06-.35.17-.35a7.39,7.39,0,0,0,2.41-.29,1.66,1.66,0,0,0,1-1.13,9.4,9.4,0,0,0,.26-2.58v-13a9.41,9.41,0,0,0-.26-2.58,1.67,1.67,0,0,0-1-1.13,7.13,7.13,0,0,0-2.38-.29c-.12,0-.17-.12-.17-.35s.06-.35.17-.35h17.28C831.67,802.51,831.8,802.54,831.84,802.6Z"
    transform="translate(-229.43 -367.89)"></path>
  <path
    d="M841.32,824a11.18,11.18,0,0,1-4-4.47,13.36,13.36,0,0,1-1.42-6.12,11,11,0,0,1,1.83-6.41,11.32,11.32,0,0,1,4.7-3.94,14,14,0,0,1,5.83-1.31,10.61,10.61,0,0,1,6,1.68,11.16,11.16,0,0,1,3.92,4.44,13,13,0,0,1,1.36,5.83,11.79,11.79,0,0,1-1.65,6.29,11.32,11.32,0,0,1-4.46,4.18,13,13,0,0,1-6.12,1.48A10.78,10.78,0,0,1,841.32,824Zm12.47-1.68q1.77-2.29,1.77-7a16.56,16.56,0,0,0-1.19-6.44,10.58,10.58,0,0,0-3.28-4.44,7.63,7.63,0,0,0-4.76-1.6,5.72,5.72,0,0,0-4.84,2.26,10.61,10.61,0,0,0-1.71,6.5,17.85,17.85,0,0,0,1.16,6.53,11.34,11.34,0,0,0,3.25,4.73,7.15,7.15,0,0,0,4.7,1.74A5.85,5.85,0,0,0,853.79,822.32Z"
    transform="translate(-229.43 -367.89)"></path>
  <path
    d="M360.8,893.37a1.69,1.69,0,0,1,.06.61l-.06,1.57q-.23,2.67-.23,7.77c0,.19-.12.29-.35.29s-.35-.1-.35-.29q0-4.87-1.74-6.84a6.16,6.16,0,0,0-4.87-2H342.18a5.39,5.39,0,0,0-4.44,2q-1.6,2-1.6,6.84c0,.19-.12.29-.35.29s-.35-.1-.35-.29q0-3.65-.12-5.48t-.12-2.23q-.12-1.28-.12-1.62a1.16,1.16,0,0,1,.09-.61.83.83,0,0,1,.49-.09,5.45,5.45,0,0,0,5.48-3.89q1.48-3.88,1.48-11.6a11.12,11.12,0,0,0-.35-3.22,2.37,2.37,0,0,0-1.3-1.51,7.07,7.07,0,0,0-2.81-.44c-.12,0-.17-.11-.17-.32s.06-.32.17-.32l10,.12h12.3c.08,0,.12.12.12.35s0,.35-.12.35a7.86,7.86,0,0,0-2.73.35,2,2,0,0,0-1.19,1.19,7.76,7.76,0,0,0-.32,2.58V889.8q0,.47,0,1.8t.81,1.51a19.62,19.62,0,0,0,3.28.17C360.61,893.28,360.76,893.31,360.8,893.37ZM353,876.81a18.28,18.28,0,0,0-.12-2.61.89.89,0,0,0-.64-.78,10,10,0,0,0-2.15-.15h-2.61a8.13,8.13,0,0,0-2.35.23,1.31,1.31,0,0,0-.87.87,8.49,8.49,0,0,0-.2,2.26,54,54,0,0,1-.84,10.7,10,10,0,0,1-3.16,5.89h7.25a34.48,34.48,0,0,0,4-.15,1.68,1.68,0,0,0,1.36-.81,6,6,0,0,0,.35-2.47Z"
    transform="translate(-229.43 -367.89)"></path>
  <path
    d="M363.82,894.56a1.74,1.74,0,0,1-.58-1.45,1.38,1.38,0,0,1,.64-1.33,3.51,3.51,0,0,1,1.68-.35,3.78,3.78,0,0,0,3.39-1.74,10.8,10.8,0,0,0,1.48-4.61,62.34,62.34,0,0,0,.35-7.28,11.12,11.12,0,0,0-.35-3.22,2.37,2.37,0,0,0-1.3-1.51,7.07,7.07,0,0,0-2.81-.44c-.08,0-.12-.11-.12-.32s0-.32.12-.32l10,.12h11.37c.08,0,.12.12.12.35s0,.35-.12.35a6,6,0,0,0-2.38.35,1.85,1.85,0,0,0-1,1.19,9.39,9.39,0,0,0-.26,2.58V889.8a9.39,9.39,0,0,0,.26,2.58,1.66,1.66,0,0,0,1,1.13,7.11,7.11,0,0,0,2.38.29c.08,0,.12.12.12.35s0,.35-.12.35q-1.51,0-2.32-.06l-2.9-.06-3.13.06q-.87.06-2.32.06-.17,0-.17-.35t.17-.35a7.12,7.12,0,0,0,2.38-.29,1.75,1.75,0,0,0,1-1.13,8.5,8.5,0,0,0,.29-2.58v-13a18.28,18.28,0,0,0-.12-2.61,1,1,0,0,0-.64-.81,7.63,7.63,0,0,0-2-.17h-2.26a8.46,8.46,0,0,0-2.38.23,1.32,1.32,0,0,0-.9.93,8.91,8.91,0,0,0-.2,2.26q0,5.16-.35,8.93a17.06,17.06,0,0,1-1.88,6.61,5,5,0,0,1-4.67,2.84A2.34,2.34,0,0,1,363.82,894.56Z"
    transform="translate(-229.43 -367.89)"></path>
  <path
    d="M412.25,894.15c0,.23-.06.35-.17.35q-1.34,0-2.09-.06l-2.9-.06-3.19.06q-.75.06-2.2.06c-.08,0-.12-.12-.12-.35s0-.35.12-.35a6.62,6.62,0,0,0,2.29-.29,1.66,1.66,0,0,0,1-1.1,9.35,9.35,0,0,0,.26-2.61v-6.32a6.37,6.37,0,0,0-3.8,1.48A15.7,15.7,0,0,0,398,889.8a42.65,42.65,0,0,1-2.26,3.92,1.56,1.56,0,0,1-1.16.78h-5q-.17,0-.17-.35t.17-.35a3.37,3.37,0,0,0,2.73-1.07,12.06,12.06,0,0,0,1.74-2.41q.7-1.28.93-1.68a12.08,12.08,0,0,1,2.7-3.33,7.86,7.86,0,0,1,3.51-1.77q-7-.52-7-5.57a5.31,5.31,0,0,1,2.06-4.41,8.6,8.6,0,0,1,5.48-1.62q.7,0,2.55.12a23.9,23.9,0,0,0,2.84.17l2.84-.06q.75-.06,2.09-.06c.08,0,.12.12.12.35s0,.35-.12.35a5.88,5.88,0,0,0-2.23.32,1.85,1.85,0,0,0-1,1.13,8.18,8.18,0,0,0-.29,2.55v13a7.52,7.52,0,0,0,.32,2.52,1.94,1.94,0,0,0,1,1.16,5.86,5.86,0,0,0,2.23.32C412.19,893.8,412.25,893.92,412.25,894.15ZM399,881.07a4.79,4.79,0,0,0,3.94,1.71,15.22,15.22,0,0,0,2.26-.17v-5.68a9.35,9.35,0,0,0-.29-2.73,2,2,0,0,0-1-1.22,5.64,5.64,0,0,0-2.26-.35,4,4,0,0,0-3,1,4.07,4.07,0,0,0-1,3A6.8,6.8,0,0,0,399,881.07Z"
    transform="translate(-229.43 -367.89)"></path>
  <path
    d="M455.75,894.15q0,.35-.17.35-1.45,0-2.26-.06l-3-.06-3.13.06q-.81.06-2.26.06c-.12,0-.17-.12-.17-.35s.06-.35.17-.35a7.12,7.12,0,0,0,2.38-.29,1.75,1.75,0,0,0,1-1.13,8.49,8.49,0,0,0,.29-2.58v-5.92H436.32v5.92a9.37,9.37,0,0,0,.26,2.58,1.66,1.66,0,0,0,1,1.13,7.12,7.12,0,0,0,2.38.29q.17,0,.17.35t-.17.35q-1.45,0-2.26-.06l-3-.06-3.07.06q-.81.06-2.32.06-.17,0-.17-.35t.17-.35a7.4,7.4,0,0,0,2.41-.29,1.66,1.66,0,0,0,1-1.13,9.39,9.39,0,0,0,.26-2.58v-13a9.4,9.4,0,0,0-.26-2.58,1.67,1.67,0,0,0-1-1.13,7.13,7.13,0,0,0-2.38-.29c-.12,0-.17-.12-.17-.35s.06-.35.17-.35q1.45,0,2.26.06l3.07.06,3-.06q.81-.06,2.2-.06.17,0,.17.35t-.17.35a6,6,0,0,0-2.38.35,1.85,1.85,0,0,0-1,1.19,9.37,9.37,0,0,0-.26,2.58v5.8h12.35v-5.92a9.4,9.4,0,0,0-.26-2.58,1.67,1.67,0,0,0-1-1.13,7.13,7.13,0,0,0-2.38-.29q-.17,0-.17-.35t.17-.35q1.45,0,2.26.06l3.07.06,3-.06q.81-.06,2.2-.06.17,0,.17.35t-.17.35a6,6,0,0,0-2.38.35,1.85,1.85,0,0,0-1,1.19,9.37,9.37,0,0,0-.26,2.58V889.8a9.37,9.37,0,0,0,.26,2.58,1.66,1.66,0,0,0,1,1.13,7.12,7.12,0,0,0,2.38.29Q455.75,893.8,455.75,894.15Z"
    transform="translate(-229.43 -367.89)"></path>
  <path
    d="M481.5,891.37a.33.33,0,0,1,.32.26.28.28,0,0,1-.15.38l-6,2.84a1.86,1.86,0,0,1-.52.12,1.62,1.62,0,0,1-1.33-1,6.73,6.73,0,0,1-.75-2.73l-3.6,1.91a24.16,24.16,0,0,1-3,1.33,6.85,6.85,0,0,1-2.26.41,3.73,3.73,0,0,1-2.76-1,3.34,3.34,0,0,1-1-2.47,3,3,0,0,1,1.22-2.49,17.21,17.21,0,0,1,4.29-2l7-2.44v-4.81q0-3.83-1-5.39a3.12,3.12,0,0,0-2.78-1.57,3.59,3.59,0,0,0-3,1.42,6.84,6.84,0,0,0-1.31,3.39,3.87,3.87,0,0,1-.61,1.6,1.77,1.77,0,0,1-1.54.61,2.1,2.1,0,0,1-1.45-.46,1.62,1.62,0,0,1-.52-1.28,4.07,4.07,0,0,1,1.74-2.84,15.74,15.74,0,0,1,4.21-2.55,11.54,11.54,0,0,1,4.44-1,4.68,4.68,0,0,1,3.71,1.6,7.11,7.11,0,0,1,1.39,4.79v10.27a6.5,6.5,0,0,0,.52,3,1.78,1.78,0,0,0,1.68,1,8.3,8.3,0,0,0,2.9-.81Zm-8.47-.93v-5.22l-6,2.26a4.2,4.2,0,0,0-1.88,1.13,2.51,2.51,0,0,0-.55,1.65,2.59,2.59,0,0,0,.7,1.91,2.51,2.51,0,0,0,1.86.7,5.83,5.83,0,0,0,2.32-.64Z"
    transform="translate(-229.43 -367.89)"></path>
  <path
    d="M488.81,893.54a10.11,10.11,0,0,1-3.77-4.26,12.87,12.87,0,0,1-1.22-5.51,11.17,11.17,0,0,1,1.89-6.47,12.67,12.67,0,0,1,4.81-4.23,13.17,13.17,0,0,1,6-1.48,10.38,10.38,0,0,1,4.7,1q2,1,2,2.52a1.78,1.78,0,0,1-.55,1.31,2,2,0,0,1-1.48.55,3,3,0,0,1-2.55-1.86,5.07,5.07,0,0,0-1.6-1.8,4.65,4.65,0,0,0-2.52-.58,5.91,5.91,0,0,0-5.07,2.52,11.29,11.29,0,0,0-1.83,6.76,12.68,12.68,0,0,0,2.44,8q2.44,3.16,7.37,3.16a9,9,0,0,0,5.86-1.91h.12a.42.42,0,0,1,.32.17c.1.12.09.21,0,.29a13.58,13.58,0,0,1-4.06,2.67,12.09,12.09,0,0,1-4.52.81A11.39,11.39,0,0,1,488.81,893.54Z"
    transform="translate(-229.43 -367.89)"></path>
  <path
    d="M526.21,893.54a10.11,10.11,0,0,1-3.77-4.26,12.87,12.87,0,0,1-1.22-5.51,11.17,11.17,0,0,1,1.89-6.47,12.67,12.67,0,0,1,4.81-4.23,13.17,13.17,0,0,1,6-1.48,10.38,10.38,0,0,1,4.7,1q2,1,2,2.52a1.78,1.78,0,0,1-.55,1.31,2,2,0,0,1-1.48.55,3,3,0,0,1-2.55-1.86,5.07,5.07,0,0,0-1.6-1.8,4.65,4.65,0,0,0-2.52-.58,5.91,5.91,0,0,0-5.07,2.52,11.29,11.29,0,0,0-1.83,6.76,12.68,12.68,0,0,0,2.44,8q2.44,3.16,7.37,3.16a9,9,0,0,0,5.86-1.91h.12a.42.42,0,0,1,.32.17c.1.12.09.21,0,.29a13.58,13.58,0,0,1-4.06,2.67,12.09,12.09,0,0,1-4.52.81A11.39,11.39,0,0,1,526.21,893.54Z"
    transform="translate(-229.43 -367.89)"></path>
  <path
    d="M550.14,893.6a11.17,11.17,0,0,1-4-4.47,13.37,13.37,0,0,1-1.42-6.12,11,11,0,0,1,1.83-6.41,11.34,11.34,0,0,1,4.7-3.94,14,14,0,0,1,5.83-1.31,10.61,10.61,0,0,1,6,1.68,11.14,11.14,0,0,1,3.91,4.44,13,13,0,0,1,1.36,5.83,11.8,11.8,0,0,1-1.65,6.29,11.33,11.33,0,0,1-4.47,4.18,12.94,12.94,0,0,1-6.12,1.48A10.78,10.78,0,0,1,550.14,893.6Zm12.47-1.68q1.77-2.29,1.77-7a16.56,16.56,0,0,0-1.19-6.44,10.56,10.56,0,0,0-3.28-4.44,7.63,7.63,0,0,0-4.76-1.6,5.71,5.71,0,0,0-4.84,2.26,10.61,10.61,0,0,0-1.71,6.5,17.87,17.87,0,0,0,1.16,6.53,11.36,11.36,0,0,0,3.25,4.73,7.15,7.15,0,0,0,4.7,1.74A5.84,5.84,0,0,0,562.61,891.92Z"
    transform="translate(-229.43 -367.89)"></path>
  <path
    d="M591,873.71a9.42,9.42,0,0,1,3.65,4.21,13.19,13.19,0,0,1,1.1,5.28,11.9,11.9,0,0,1-1.68,6.38,11.47,11.47,0,0,1-4.5,4.21,13.07,13.07,0,0,1-6.18,1.48,9.7,9.7,0,0,1-7.89-3.6q-3-3.6-3-11.83,0-8.7,3.68-13.37a23.58,23.58,0,0,1,9.31-7.1l1.57-.7a27,27,0,0,0,5-2.52,8.24,8.24,0,0,0,2.87-3.68c0-.15.16-.2.38-.15s.3.15.26.26a13.86,13.86,0,0,1-1.71,4.9,8.08,8.08,0,0,1-2.64,2.67,35,35,0,0,1-4.29,2.06l-1.51.64a27.28,27.28,0,0,0-6.38,3.83,14.12,14.12,0,0,0-3.92,5.45,24.17,24.17,0,0,0-1.59,8.53q1.91-5.28,5-6.93a12.39,12.39,0,0,1,5.86-1.65A12,12,0,0,1,591,873.71Zm-.93,18.18q1.8-2.32,1.8-7.08a17.07,17.07,0,0,0-1-6.09,9.57,9.57,0,0,0-2.9-4.18,6.65,6.65,0,0,0-4.26-1.51,5.68,5.68,0,0,0-5,2.78,11.81,11.81,0,0,0-1.8,6.55,15.11,15.11,0,0,0,2.21,8.5,7,7,0,0,0,6.15,3.33A5.84,5.84,0,0,0,590.07,891.89Z"
    transform="translate(-229.43 -367.89)"></path>
  <path
    d="M618.43,882.87a5.39,5.39,0,0,1,1.91,4.55,6.63,6.63,0,0,1-2.26,5.16,8.19,8.19,0,0,1-5.68,2q-.87,0-3.31-.12-2.78-.12-3.94-.12l-3.07.06q-.81.06-2.32.06c-.12,0-.17-.12-.17-.35s.06-.35.17-.35a7.4,7.4,0,0,0,2.41-.29,1.66,1.66,0,0,0,1-1.13,9.39,9.39,0,0,0,.26-2.58v-13a9.4,9.4,0,0,0-.26-2.58,1.67,1.67,0,0,0-1-1.13,7.12,7.12,0,0,0-2.38-.29c-.12,0-.17-.12-.17-.35s.06-.35.17-.35q1.45,0,2.26.06l3.07.06,3.36-.06q.93-.06,2.55-.06c.12,0,.17.12.17.35s-.06.35-.17.35a8.36,8.36,0,0,0-2.81.35,2,2,0,0,0-1.22,1.19,7.76,7.76,0,0,0-.32,2.58v5.28a20.13,20.13,0,0,1,6-.81Q616.52,881.39,618.43,882.87Zm-1.74,5.83a6.79,6.79,0,0,0-1.48-4.64,5.75,5.75,0,0,0-4.55-1.68,12,12,0,0,0-3.94.64v6.79a4.11,4.11,0,0,0,.93,3.07q.93.87,3.71.87Q616.69,893.74,616.69,888.7Zm16.3,5.45c0,.23,0,.35-.12.35q-1.45,0-2.32-.06l-2.9-.06-3,.06q-.87.06-2.44.06c-.08,0-.12-.12-.12-.35s0-.35.12-.35a7.4,7.4,0,0,0,2.41-.29,1.66,1.66,0,0,0,1-1.13,9.39,9.39,0,0,0,.26-2.58v-13a9.39,9.39,0,0,0-.26-2.58,1.66,1.66,0,0,0-1-1.13,7.13,7.13,0,0,0-2.38-.29c-.08,0-.12-.12-.12-.35s0-.35.12-.35q1.51,0,2.32.06l3.07.06,3-.06q.87-.06,2.26-.06c.08,0,.12.12.12.35s0,.35-.12.35a6,6,0,0,0-2.38.35,1.85,1.85,0,0,0-1,1.19,9.39,9.39,0,0,0-.26,2.58V889.8a9.39,9.39,0,0,0,.26,2.58,1.66,1.66,0,0,0,1,1.13,7.11,7.11,0,0,0,2.38.29C633,893.8,633,893.92,633,894.15Z"
    transform="translate(-229.43 -367.89)"></path>
  <path
    d="M641.63,894.15c0-.23,0-.35.12-.35a7.4,7.4,0,0,0,2.41-.29,1.66,1.66,0,0,0,1-1.13,9.35,9.35,0,0,0,.26-2.58V876.92a6.38,6.38,0,0,0-.52-3.16q-.52-.78-2.26-.78a4.48,4.48,0,0,0-3.77,1.57q-1.22,1.57-1.33,5.1c0,.08-.16.12-.38.12s-.32,0-.32-.12l-.12-3.48q-.06-.64-.12-1.54t-.06-2.06a1,1,0,0,1,.06-.44c0-.06.17-.09.41-.09q1.22,0,2.15.06l7.77.06,7.95-.06q1-.06,2.26-.06c.23,0,.37,0,.41.09a1,1,0,0,1,.06.44q0,1.16-.06,2.06t-.12,1.54l-.12,3.48c0,.08-.11.12-.32.12s-.34,0-.38-.12q-.12-3.54-1.33-5.1a4.48,4.48,0,0,0-3.77-1.57q-1.74,0-2.26.78a6.38,6.38,0,0,0-.52,3.16V889.8a9.4,9.4,0,0,0,.26,2.58,1.66,1.66,0,0,0,1,1.13,7.11,7.11,0,0,0,2.38.29c.08,0,.12.12.12.35s0,.35-.12.35q-1.51,0-2.32-.06l-2.9-.06-3.07.06q-.87.06-2.38.06C641.67,894.5,641.63,894.38,641.63,894.15Z"
    transform="translate(-229.43 -367.89)"></path>
  <path
    d="M687.8,894.15c0,.23-.06.35-.17.35q-1.45,0-2.26-.06l-3-.06-3.13.06q-.81.06-2.26.06c-.12,0-.17-.12-.17-.35s.06-.35.17-.35a7.13,7.13,0,0,0,2.38-.29,1.75,1.75,0,0,0,1-1.13,8.48,8.48,0,0,0,.29-2.58V877.85l-12.35,12.41a4.29,4.29,0,0,0,.75,2.87,4.4,4.4,0,0,0,2.9.67c.12,0,.17.12.17.35s-.06.35-.17.35q-1.45,0-2.26-.06l-3-.06-3.07.06q-.81.06-2.32.06c-.12,0-.17-.12-.17-.35s.06-.35.17-.35a7.4,7.4,0,0,0,2.41-.29,1.66,1.66,0,0,0,1-1.13,9.39,9.39,0,0,0,.26-2.58v-13a9.4,9.4,0,0,0-.26-2.58,1.67,1.67,0,0,0-1-1.13,7.12,7.12,0,0,0-2.38-.29c-.12,0-.17-.12-.17-.35s.06-.35.17-.35q1.45,0,2.26.06l3.07.06,3-.06q.81-.06,2.2-.06c.12,0,.17.12.17.35s-.06.35-.17.35a6,6,0,0,0-2.38.35,1.84,1.84,0,0,0-1,1.19,9.39,9.39,0,0,0-.26,2.58v11.72l12.35-12.41a4.06,4.06,0,0,0-.75-2.78,4.56,4.56,0,0,0-2.9-.64c-.12,0-.17-.12-.17-.35s.06-.35.17-.35q1.45,0,2.26.06l3.07.06,3-.06q.81-.06,2.2-.06c.12,0,.17.12.17.35s-.06.35-.17.35a6,6,0,0,0-2.38.35,1.85,1.85,0,0,0-1,1.19,9.36,9.36,0,0,0-.26,2.58V889.8a9.35,9.35,0,0,0,.26,2.58,1.66,1.66,0,0,0,1,1.13,7.11,7.11,0,0,0,2.38.29C687.74,893.8,687.8,893.92,687.8,894.15Z"
    transform="translate(-229.43 -367.89)"></path>
  <path
    d="M712.22,894.15c0,.23-.06.35-.17.35q-1.33,0-2.09-.06l-2.9-.06-3.19.06q-.75.06-2.2.06-.12,0-.12-.35t.12-.35a6.62,6.62,0,0,0,2.29-.29,1.66,1.66,0,0,0,1-1.1,9.35,9.35,0,0,0,.26-2.61v-6.32a6.37,6.37,0,0,0-3.8,1.48,15.71,15.71,0,0,0-3.45,4.84,42.41,42.41,0,0,1-2.26,3.92,1.56,1.56,0,0,1-1.16.78h-5c-.12,0-.17-.12-.17-.35s.06-.35.17-.35a3.37,3.37,0,0,0,2.73-1.07,12.12,12.12,0,0,0,1.74-2.41q.69-1.28.93-1.68a12.08,12.08,0,0,1,2.7-3.33,7.86,7.86,0,0,1,3.51-1.77q-7-.52-7-5.57a5.32,5.32,0,0,1,2.06-4.41,8.6,8.6,0,0,1,5.48-1.62q.69,0,2.55.12a23.91,23.91,0,0,0,2.84.17l2.84-.06q.75-.06,2.09-.06c.08,0,.12.12.12.35s0,.35-.12.35a5.88,5.88,0,0,0-2.23.32,1.85,1.85,0,0,0-1,1.13,8.17,8.17,0,0,0-.29,2.55v13a7.52,7.52,0,0,0,.32,2.52,1.94,1.94,0,0,0,1,1.16,5.85,5.85,0,0,0,2.23.32C712.16,893.8,712.22,893.92,712.22,894.15ZM699,881.07a4.79,4.79,0,0,0,3.94,1.71,15.21,15.21,0,0,0,2.26-.17v-5.68a9.37,9.37,0,0,0-.29-2.73,2,2,0,0,0-1-1.22,5.64,5.64,0,0,0-2.26-.35,4,4,0,0,0-3,1,4.07,4.07,0,0,0-1,3A6.8,6.8,0,0,0,699,881.07Z"
    transform="translate(-229.43 -367.89)"></path>
  <path
    d="M755.72,894.15c0,.23-.06.35-.17.35q-1.45,0-2.26-.06l-3-.06-3.13.06q-.81.06-2.26.06c-.12,0-.17-.12-.17-.35s.06-.35.17-.35a7.12,7.12,0,0,0,2.38-.29,1.75,1.75,0,0,0,1-1.13,8.49,8.49,0,0,0,.29-2.58V877.85l-12.35,12.41a4.28,4.28,0,0,0,.75,2.87,4.39,4.39,0,0,0,2.9.67c.12,0,.17.12.17.35s-.06.35-.17.35q-1.45,0-2.26-.06l-3-.06-3.07.06q-.81.06-2.32.06c-.12,0-.17-.12-.17-.35s.06-.35.17-.35a7.41,7.41,0,0,0,2.41-.29,1.66,1.66,0,0,0,1-1.13,9.39,9.39,0,0,0,.26-2.58v-13a9.39,9.39,0,0,0-.26-2.58,1.66,1.66,0,0,0-1-1.13,7.13,7.13,0,0,0-2.38-.29c-.12,0-.17-.12-.17-.35s.06-.35.17-.35q1.45,0,2.26.06l3.07.06,3-.06q.81-.06,2.21-.06c.12,0,.17.12.17.35s-.06.35-.17.35a6,6,0,0,0-2.38.35,1.85,1.85,0,0,0-1,1.19,9.36,9.36,0,0,0-.26,2.58v11.72l12.35-12.41a4.06,4.06,0,0,0-.75-2.78,4.56,4.56,0,0,0-2.9-.64c-.12,0-.17-.12-.17-.35s.06-.35.17-.35q1.45,0,2.26.06l3.07.06,3-.06q.81-.06,2.2-.06c.12,0,.17.12.17.35s-.06.35-.17.35a6,6,0,0,0-2.38.35,1.85,1.85,0,0,0-1,1.19,9.35,9.35,0,0,0-.26,2.58V889.8a9.35,9.35,0,0,0,.26,2.58,1.66,1.66,0,0,0,1,1.13,7.12,7.12,0,0,0,2.38.29C755.66,893.8,755.72,893.92,755.72,894.15Z"
    transform="translate(-229.43 -367.89)"></path>
  <path
    d="M322.81,963.14a10.11,10.11,0,0,1-3.77-4.26,12.87,12.87,0,0,1-1.22-5.51,11.17,11.17,0,0,1,1.89-6.47,12.67,12.67,0,0,1,4.81-4.23,13.17,13.17,0,0,1,6-1.48,10.38,10.38,0,0,1,4.7,1q2,1,2,2.52a1.78,1.78,0,0,1-.55,1.31,2,2,0,0,1-1.48.55,3,3,0,0,1-2.55-1.86,5.07,5.07,0,0,0-1.6-1.8,4.65,4.65,0,0,0-2.52-.58,5.91,5.91,0,0,0-5.07,2.52,11.29,11.29,0,0,0-1.83,6.76,12.68,12.68,0,0,0,2.44,8q2.44,3.16,7.37,3.16a9,9,0,0,0,5.86-1.91h.12a.42.42,0,0,1,.32.17c.1.12.09.21,0,.29a13.58,13.58,0,0,1-4.06,2.67,12.09,12.09,0,0,1-4.52.81A11.39,11.39,0,0,1,322.81,963.14Z"
    transform="translate(-229.43 -367.89)"></path>
  <path
    d="M346.53,963.75c0-.23,0-.35.12-.35a7.38,7.38,0,0,0,2.41-.29,1.66,1.66,0,0,0,1-1.13,9.36,9.36,0,0,0,.26-2.58V946.52a6.38,6.38,0,0,0-.52-3.16q-.52-.78-2.26-.78a4.48,4.48,0,0,0-3.77,1.57q-1.22,1.57-1.33,5.1c0,.08-.17.12-.38.12s-.32,0-.32-.12l-.12-3.48q-.06-.64-.12-1.54t-.06-2.06a1,1,0,0,1,.06-.44c0-.06.17-.09.41-.09q1.22,0,2.15.06l7.77.06,7.95-.06q1-.06,2.26-.06.35,0,.41.09a1,1,0,0,1,.06.44q0,1.16-.06,2.06t-.12,1.54l-.12,3.48c0,.08-.11.12-.32.12s-.34,0-.38-.12q-.12-3.54-1.33-5.1a4.48,4.48,0,0,0-3.77-1.57q-1.74,0-2.26.78a6.37,6.37,0,0,0-.52,3.16V959.4a9.39,9.39,0,0,0,.26,2.58,1.66,1.66,0,0,0,1,1.13,7.1,7.1,0,0,0,2.38.29c.08,0,.12.12.12.35s0,.35-.12.35q-1.51,0-2.32-.06l-2.9-.06L349,964q-.87.06-2.38.06C346.57,964.1,346.53,964,346.53,963.75Z"
    transform="translate(-229.43 -367.89)"></path>
  <path
    d="M388.52,961a.33.33,0,0,1,.32.26.28.28,0,0,1-.15.38l-6,2.84a1.85,1.85,0,0,1-.52.12,1.62,1.62,0,0,1-1.33-1,6.74,6.74,0,0,1-.75-2.73l-3.6,1.91a24.09,24.09,0,0,1-3,1.33,6.83,6.83,0,0,1-2.26.41,3.73,3.73,0,0,1-2.76-1,3.34,3.34,0,0,1-1-2.46,3,3,0,0,1,1.22-2.49,17.21,17.21,0,0,1,4.29-2l7-2.44v-4.81q0-3.83-1-5.39a3.12,3.12,0,0,0-2.78-1.57,3.59,3.59,0,0,0-3,1.42,6.84,6.84,0,0,0-1.31,3.39,3.87,3.87,0,0,1-.61,1.6,1.77,1.77,0,0,1-1.54.61,2.1,2.1,0,0,1-1.45-.46,1.62,1.62,0,0,1-.52-1.28,4.07,4.07,0,0,1,1.74-2.84,15.74,15.74,0,0,1,4.21-2.55,11.54,11.54,0,0,1,4.44-1,4.68,4.68,0,0,1,3.71,1.6,7.11,7.11,0,0,1,1.39,4.79v10.27a6.5,6.5,0,0,0,.52,3,1.78,1.78,0,0,0,1.68,1,8.31,8.31,0,0,0,2.9-.81Zm-8.47-.93v-5.22l-6,2.26a4.2,4.2,0,0,0-1.88,1.13,2.51,2.51,0,0,0-.55,1.65,2.59,2.59,0,0,0,.7,1.91,2.51,2.51,0,0,0,1.86.7,5.84,5.84,0,0,0,2.32-.64Z"
    transform="translate(-229.43 -367.89)"></path>
  <path
    d="M395.72,963.75c0-.23,0-.35.12-.35a7.38,7.38,0,0,0,2.41-.29,1.66,1.66,0,0,0,1-1.13,9.36,9.36,0,0,0,.26-2.58V946.52a6.38,6.38,0,0,0-.52-3.16q-.52-.78-2.26-.78a4.48,4.48,0,0,0-3.77,1.57q-1.22,1.57-1.33,5.1c0,.08-.17.12-.38.12s-.32,0-.32-.12l-.12-3.48q-.06-.64-.12-1.54t-.06-2.06a1,1,0,0,1,.06-.44c0-.06.17-.09.41-.09q1.22,0,2.15.06l7.77.06,7.95-.06q1-.06,2.26-.06.35,0,.41.09a1,1,0,0,1,.06.44q0,1.16-.06,2.06t-.12,1.54l-.12,3.48c0,.08-.11.12-.32.12s-.34,0-.38-.12q-.12-3.54-1.33-5.1a4.48,4.48,0,0,0-3.77-1.57q-1.74,0-2.26.78a6.37,6.37,0,0,0-.52,3.16V959.4a9.39,9.39,0,0,0,.26,2.58,1.66,1.66,0,0,0,1,1.13,7.1,7.1,0,0,0,2.38.29c.08,0,.12.12.12.35s0,.35-.12.35q-1.51,0-2.32-.06l-2.9-.06-3.07.06q-.87.06-2.38.06C395.75,964.1,395.72,964,395.72,963.75Z"
    transform="translate(-229.43 -367.89)"></path>
  <path
    d="M434.17,952.47a5.39,5.39,0,0,1,1.91,4.55,6.63,6.63,0,0,1-2.26,5.16,8.19,8.19,0,0,1-5.68,2q-.87,0-3.31-.12Q422,964,420.89,964l-3.07.06q-.81.06-2.32.06c-.12,0-.17-.12-.17-.35s.06-.35.17-.35a7.39,7.39,0,0,0,2.41-.29,1.66,1.66,0,0,0,1-1.13,9.39,9.39,0,0,0,.26-2.58v-13a9.4,9.4,0,0,0-.26-2.58,1.67,1.67,0,0,0-1-1.13,7.13,7.13,0,0,0-2.38-.29c-.12,0-.17-.12-.17-.35s.06-.35.17-.35q1.45,0,2.26.06l3.07.06,3.36-.06q.93-.06,2.55-.06c.12,0,.17.12.17.35s-.06.35-.17.35a8.36,8.36,0,0,0-2.81.35,2,2,0,0,0-1.22,1.19,7.76,7.76,0,0,0-.32,2.58v5.28a20.12,20.12,0,0,1,6-.81Q432.26,951,434.17,952.47Zm-1.74,5.83a6.79,6.79,0,0,0-1.48-4.64A5.75,5.75,0,0,0,426.4,952a12.05,12.05,0,0,0-3.94.64v6.79a4.11,4.11,0,0,0,.93,3.07q.93.87,3.71.87Q432.43,963.34,432.43,958.3Z"
    transform="translate(-229.43 -367.89)"></path>
  <path
    d="M474,963.75c0,.23-.06.35-.17.35q-1.45,0-2.32-.06l-2.9-.06-3.07.06q-.87.06-2.38.06c-.08,0-.12-.12-.12-.35s0-.35.12-.35a7.35,7.35,0,0,0,2.44-.29,1.75,1.75,0,0,0,1-1.13,8.5,8.5,0,0,0,.29-2.58v-5.92a15,15,0,0,1-3.65,1.74,11.52,11.52,0,0,1-3.42.58,6.15,6.15,0,0,1-4.73-1.71,7,7,0,0,1-1.6-5v-2.73a16.7,16.7,0,0,0-.14-2.61,1.54,1.54,0,0,0-.61-1.1,3,3,0,0,0-1.51-.29c-.12,0-.17-.12-.17-.35s.06-.35.17-.35q1.1,0,1.68.06l2.32.06,2.55-.06q.7-.06,1.91-.06c.08,0,.12.12.12.35s0,.35-.12.35q-1.86,0-2.41.81a6.58,6.58,0,0,0-.55,3.31v2q0,5.22,5,5.22a11,11,0,0,0,2.58-.35,10.5,10.5,0,0,0,2.58-1v-6a10.53,10.53,0,0,0-.23-2.58,1.65,1.65,0,0,0-.84-1.13,4.62,4.62,0,0,0-1.88-.29c-.08,0-.12-.12-.12-.35s0-.35.12-.35q1.28,0,2,.06l2.61.06,3-.06q.87-.06,2.26-.06.17,0,.17.35t-.17.35a6,6,0,0,0-2.38.35,1.85,1.85,0,0,0-1,1.19,9.39,9.39,0,0,0-.26,2.58V959.4a9.39,9.39,0,0,0,.26,2.58,1.66,1.66,0,0,0,1,1.13,7.1,7.1,0,0,0,2.38.29C474,963.4,474,963.52,474,963.75Z"
    transform="translate(-229.43 -367.89)"></path>
  <path
    d="M499.77,961a.33.33,0,0,1,.32.26.28.28,0,0,1-.15.38l-6,2.84a1.85,1.85,0,0,1-.52.12,1.62,1.62,0,0,1-1.33-1,6.74,6.74,0,0,1-.75-2.73l-3.6,1.91a24.09,24.09,0,0,1-3,1.33,6.83,6.83,0,0,1-2.26.41,3.73,3.73,0,0,1-2.76-1,3.34,3.34,0,0,1-1-2.46,3,3,0,0,1,1.22-2.49,17.21,17.21,0,0,1,4.29-2l7-2.44v-4.81q0-3.83-1-5.39a3.12,3.12,0,0,0-2.78-1.57,3.59,3.59,0,0,0-3,1.42,6.84,6.84,0,0,0-1.31,3.39,3.87,3.87,0,0,1-.61,1.6,1.77,1.77,0,0,1-1.54.61,2.1,2.1,0,0,1-1.45-.46,1.62,1.62,0,0,1-.52-1.28,4.07,4.07,0,0,1,1.74-2.84,15.74,15.74,0,0,1,4.21-2.55,11.54,11.54,0,0,1,4.44-1,4.68,4.68,0,0,1,3.71,1.6,7.11,7.11,0,0,1,1.39,4.79v10.27a6.5,6.5,0,0,0,.52,3,1.78,1.78,0,0,0,1.68,1,8.31,8.31,0,0,0,2.9-.81ZM491.3,960v-5.22l-6,2.26a4.2,4.2,0,0,0-1.88,1.13,2.51,2.51,0,0,0-.55,1.65,2.59,2.59,0,0,0,.7,1.91,2.51,2.51,0,0,0,1.86.7,5.84,5.84,0,0,0,2.32-.64Z"
    transform="translate(-229.43 -367.89)"></path>
  <path
    d="M507.07,963.14a10.11,10.11,0,0,1-3.77-4.26,12.87,12.87,0,0,1-1.22-5.51A11.17,11.17,0,0,1,504,946.9a12.67,12.67,0,0,1,4.81-4.23,13.17,13.17,0,0,1,6-1.48,10.38,10.38,0,0,1,4.7,1q2,1,2,2.52A1.78,1.78,0,0,1,521,946a2,2,0,0,1-1.48.55,3,3,0,0,1-2.55-1.86,5.07,5.07,0,0,0-1.6-1.8,4.65,4.65,0,0,0-2.52-.58,5.91,5.91,0,0,0-5.07,2.52,11.29,11.29,0,0,0-1.83,6.76,12.68,12.68,0,0,0,2.44,8q2.44,3.16,7.37,3.16a9,9,0,0,0,5.86-1.91h.12a.42.42,0,0,1,.32.17c.1.12.09.21,0,.29a13.58,13.58,0,0,1-4.06,2.67,12.09,12.09,0,0,1-4.52.81A11.39,11.39,0,0,1,507.07,963.14Z"
    transform="translate(-229.43 -367.89)"></path>
  <path
    d="M530.8,963.75c0-.23,0-.35.12-.35a7.38,7.38,0,0,0,2.41-.29,1.66,1.66,0,0,0,1-1.13,9.36,9.36,0,0,0,.26-2.58V946.52a6.38,6.38,0,0,0-.52-3.16q-.52-.78-2.26-.78a4.48,4.48,0,0,0-3.77,1.57q-1.22,1.57-1.33,5.1c0,.08-.17.12-.38.12s-.32,0-.32-.12l-.12-3.48q-.06-.64-.12-1.54t-.06-2.06a1,1,0,0,1,.06-.44c0-.06.17-.09.41-.09q1.22,0,2.15.06l7.77.06,7.95-.06q1-.06,2.26-.06c.23,0,.37,0,.41.09a1,1,0,0,1,.06.44q0,1.16-.06,2.06t-.12,1.54l-.12,3.48c0,.08-.11.12-.32.12s-.34,0-.38-.12q-.12-3.54-1.33-5.1a4.48,4.48,0,0,0-3.77-1.57q-1.74,0-2.26.78a6.37,6.37,0,0,0-.52,3.16V959.4a9.39,9.39,0,0,0,.26,2.58,1.66,1.66,0,0,0,1,1.13,7.1,7.1,0,0,0,2.38.29c.08,0,.12.12.12.35s0,.35-.12.35q-1.51,0-2.32-.06l-2.9-.06-3.07.06q-.87.06-2.38.06C530.83,964.1,530.8,964,530.8,963.75Z"
    transform="translate(-229.43 -367.89)"></path>
  <path
    d="M569.25,952.47a5.39,5.39,0,0,1,1.91,4.55,6.63,6.63,0,0,1-2.26,5.16,8.19,8.19,0,0,1-5.68,2q-.87,0-3.31-.12Q557.13,964,556,964l-3.07.06q-.81.06-2.32.06c-.12,0-.17-.12-.17-.35s.06-.35.17-.35a7.39,7.39,0,0,0,2.41-.29,1.66,1.66,0,0,0,1-1.13,9.38,9.38,0,0,0,.26-2.58v-13a9.39,9.39,0,0,0-.26-2.58,1.66,1.66,0,0,0-1-1.13,7.13,7.13,0,0,0-2.38-.29c-.12,0-.17-.12-.17-.35s.06-.35.17-.35q1.45,0,2.26.06l3.07.06,3.36-.06q.93-.06,2.55-.06c.12,0,.17.12.17.35s-.06.35-.17.35a8.36,8.36,0,0,0-2.81.35,2,2,0,0,0-1.22,1.19,7.76,7.76,0,0,0-.32,2.58v5.28a20.12,20.12,0,0,1,6-.81Q567.33,951,569.25,952.47Zm-1.74,5.83a6.79,6.79,0,0,0-1.48-4.64,5.75,5.75,0,0,0-4.55-1.68,12,12,0,0,0-3.94.64v6.79a4.11,4.11,0,0,0,.93,3.07q.93.87,3.71.87Q567.51,963.34,567.51,958.3Z"
    transform="translate(-229.43 -367.89)"></path>
  <path
    d="M605.18,942.55a10.51,10.51,0,0,1,3.63,4.29,13.47,13.47,0,0,1,1.28,5.83,12.36,12.36,0,0,1-1.6,6.26,11.58,11.58,0,0,1-4.29,4.35,11.41,11.41,0,0,1-5.83,1.57,10,10,0,0,1-5.45-1.51,10.13,10.13,0,0,1-3.68-4.12,13.82,13.82,0,0,1-1.42-5.74h-6.5v5.92a9.35,9.35,0,0,0,.26,2.58,1.66,1.66,0,0,0,1,1.13,7.1,7.1,0,0,0,2.38.29c.12,0,.17.12.17.35s-.06.35-.17.35q-1.45,0-2.26-.06l-3-.06-3.07.06q-.81.06-2.32.06c-.12,0-.17-.12-.17-.35s.06-.35.17-.35a7.39,7.39,0,0,0,2.41-.29,1.66,1.66,0,0,0,1-1.13,9.38,9.38,0,0,0,.26-2.58v-13a9.39,9.39,0,0,0-.26-2.58,1.66,1.66,0,0,0-1-1.13,7.13,7.13,0,0,0-2.38-.29c-.12,0-.17-.12-.17-.35s.06-.35.17-.35q1.45,0,2.26.06l3.07.06,3-.06q.81-.06,2.21-.06c.12,0,.17.12.17.35s-.06.35-.17.35a6,6,0,0,0-2.38.35,1.85,1.85,0,0,0-1,1.19,9.36,9.36,0,0,0-.26,2.58v5.8h6.5a11.62,11.62,0,0,1,1.94-6.21,11.48,11.48,0,0,1,4.44-3.86,12.29,12.29,0,0,1,5.45-1.31A9.63,9.63,0,0,1,605.18,942.55Zm-.61,18.85q1.62-2.41,1.62-6.93A17.32,17.32,0,0,0,605,947.8a9.86,9.86,0,0,0-3.1-4.23,7,7,0,0,0-4.26-1.45,5.09,5.09,0,0,0-4.47,2.29,11.62,11.62,0,0,0-1.57,6.58,19,19,0,0,0,1.07,6.61,10.82,10.82,0,0,0,3,4.55,6.47,6.47,0,0,0,4.35,1.65A5.16,5.16,0,0,0,604.57,961.4Z"
    transform="translate(-229.43 -367.89)"></path>
  <path
    d="M653.93,963.75c0,.23-.06.35-.17.35q-1.45,0-2.26-.06l-3-.06-3.13.06q-.81.06-2.26.06c-.12,0-.17-.12-.17-.35s.06-.35.17-.35a7.11,7.11,0,0,0,2.38-.29,1.75,1.75,0,0,0,1-1.13,8.48,8.48,0,0,0,.29-2.58v-5.92H634.5v5.92a9.35,9.35,0,0,0,.26,2.58,1.66,1.66,0,0,0,1,1.13,7.1,7.1,0,0,0,2.38.29c.12,0,.17.12.17.35s-.06.35-.17.35q-1.45,0-2.26-.06l-3-.06-3.07.06q-.81.06-2.32.06c-.12,0-.17-.12-.17-.35s.06-.35.17-.35a7.39,7.39,0,0,0,2.41-.29,1.66,1.66,0,0,0,1-1.13,9.38,9.38,0,0,0,.26-2.58v-13a9.39,9.39,0,0,0-.26-2.58,1.66,1.66,0,0,0-1-1.13,7.13,7.13,0,0,0-2.38-.29c-.12,0-.17-.12-.17-.35s.06-.35.17-.35q1.45,0,2.26.06l3.07.06,3-.06q.81-.06,2.21-.06c.12,0,.17.12.17.35s-.06.35-.17.35a6,6,0,0,0-2.38.35,1.85,1.85,0,0,0-1,1.19,9.36,9.36,0,0,0-.26,2.58v5.8h12.35v-5.92a9.4,9.4,0,0,0-.26-2.58,1.67,1.67,0,0,0-1-1.13,7.14,7.14,0,0,0-2.38-.29c-.12,0-.17-.12-.17-.35s.06-.35.17-.35q1.45,0,2.26.06l3.07.06,3-.06q.81-.06,2.2-.06c.12,0,.17.12.17.35s-.06.35-.17.35a6,6,0,0,0-2.38.35,1.85,1.85,0,0,0-1,1.19,9.35,9.35,0,0,0-.26,2.58V959.4a9.34,9.34,0,0,0,.26,2.58,1.66,1.66,0,0,0,1,1.13,7.11,7.11,0,0,0,2.38.29C653.87,963.4,653.93,963.52,653.93,963.75Z"
    transform="translate(-229.43 -367.89)"></path>
  <path
    d="M679.68,961a.32.32,0,0,1,.32.26.28.28,0,0,1-.14.38l-6,2.84a1.85,1.85,0,0,1-.52.12,1.62,1.62,0,0,1-1.33-1,6.74,6.74,0,0,1-.75-2.73l-3.6,1.91a24.09,24.09,0,0,1-3,1.33,6.83,6.83,0,0,1-2.26.41,3.72,3.72,0,0,1-2.75-1,3.34,3.34,0,0,1-1-2.46,3,3,0,0,1,1.22-2.49,17.21,17.21,0,0,1,4.29-2l7-2.44v-4.81q0-3.83-1-5.39a3.12,3.12,0,0,0-2.78-1.57,3.59,3.59,0,0,0-3,1.42,6.84,6.84,0,0,0-1.3,3.39,3.88,3.88,0,0,1-.61,1.6,1.76,1.76,0,0,1-1.54.61,2.1,2.1,0,0,1-1.45-.46,1.62,1.62,0,0,1-.52-1.28,4.07,4.07,0,0,1,1.74-2.84,15.75,15.75,0,0,1,4.21-2.55,11.55,11.55,0,0,1,4.44-1,4.68,4.68,0,0,1,3.71,1.6,7.1,7.1,0,0,1,1.39,4.79v10.27a6.49,6.49,0,0,0,.52,3,1.78,1.78,0,0,0,1.68,1,8.31,8.31,0,0,0,2.9-.81Zm-8.47-.93v-5.22l-6,2.26a4.2,4.2,0,0,0-1.88,1.13,2.51,2.51,0,0,0-.55,1.65,2.58,2.58,0,0,0,.7,1.91,2.51,2.51,0,0,0,1.86.7,5.85,5.85,0,0,0,2.32-.64Z"
    transform="translate(-229.43 -367.89)"></path>
  <path
    d="M681.59,963.75c0-.23.06-.35.17-.35a6,6,0,0,0,2.38-.35,1.85,1.85,0,0,0,1-1.19,9.4,9.4,0,0,0,.26-2.58V946.41a9.41,9.41,0,0,0-.26-2.58,1.67,1.67,0,0,0-1-1.13,7.13,7.13,0,0,0-2.38-.29c-.12,0-.17-.12-.17-.35s.06-.35.17-.35q1.45,0,2.26.06l3,.06,2.84-.06q.81-.06,2.15-.06c.12,0,.17.12.17.35s-.06.35-.17.35a5.68,5.68,0,0,0-2.12.29,1.69,1.69,0,0,0-.93,1.13,9.39,9.39,0,0,0-.26,2.58v13a17.46,17.46,0,0,0,.12,2.55,1,1,0,0,0,.64.81,7.59,7.59,0,0,0,2,.17h5.39a7.27,7.27,0,0,0,2-.17,1.08,1.08,0,0,0,.7-.81,11,11,0,0,0,.17-2.44V946.41a10.54,10.54,0,0,0-.23-2.58,1.59,1.59,0,0,0-1-1.13,6.41,6.41,0,0,0-2.23-.29c-.08,0-.12-.12-.12-.35s0-.35.12-.35q1.45,0,2.2.06l2.78.06,2.78-.06q.81-.06,2.2-.06c.12,0,.17.12.17.35s-.06.35-.17.35a5.68,5.68,0,0,0-2.12.29,1.69,1.69,0,0,0-.93,1.13,9.4,9.4,0,0,0-.26,2.58v13a17.5,17.5,0,0,0,.12,2.55,1,1,0,0,0,.64.81,7.59,7.59,0,0,0,2,.17h5.39a7.93,7.93,0,0,0,2.09-.17,1,1,0,0,0,.64-.81,18.89,18.89,0,0,0,.12-2.67V946.41a10.53,10.53,0,0,0-.23-2.58,1.61,1.61,0,0,0-.9-1.13,5.69,5.69,0,0,0-2.12-.29c-.12,0-.17-.12-.17-.35s.06-.35.17-.35q1.33,0,2.09.06l2.73.06,3.07-.06q.81-.06,2.32-.06c.12,0,.17.12.17.35s-.06.35-.17.35a7.4,7.4,0,0,0-2.41.29,1.66,1.66,0,0,0-1,1.13,9.36,9.36,0,0,0-.26,2.58v12.88a9.65,9.65,0,0,0,.26,2.64,1.75,1.75,0,0,0,1,1.16,6.52,6.52,0,0,0,2.38.32c.12,0,.17.12.17.35s-.06.35-.17.35H681.77C681.65,964.1,681.59,964,681.59,963.75Z"
    transform="translate(-229.43 -367.89)"></path>
  <path
    d="M743.88,960.79c.12,0,.22.08.32.23s.11.27,0,.35a14,14,0,0,1-4.09,2.61,11.84,11.84,0,0,1-4.38.81,10.91,10.91,0,0,1-5.89-1.54,10,10,0,0,1-3.74-4.09,12.13,12.13,0,0,1-1.28-5.51,12.4,12.4,0,0,1,1.65-6.29,12.16,12.16,0,0,1,4.49-4.52,12.34,12.34,0,0,1,6.32-1.65,7.12,7.12,0,0,1,4.87,1.54,5.33,5.33,0,0,1,1.74,4.21,2.85,2.85,0,0,1-.15,1,.54.54,0,0,1-.55.35l-14.27.06a16.56,16.56,0,0,0-.29,3,13.06,13.06,0,0,0,2.44,8.21,8,8,0,0,0,6.67,3.16,10.44,10.44,0,0,0,6-1.91Zm-12.5-17.08a7.28,7.28,0,0,0-2.23,3.86l10.79-.23a5.4,5.4,0,0,0-1.28-3.68,4.3,4.3,0,0,0-3.31-1.31A5.91,5.91,0,0,0,731.38,943.71Z"
    transform="translate(-229.43 -367.89)"></path>
  <path
    d="M774.63,963.75c0,.23-.06.35-.17.35q-1.45,0-2.26-.06l-3-.06-3.13.06q-.81.06-2.26.06c-.12,0-.17-.12-.17-.35s.06-.35.17-.35a7.12,7.12,0,0,0,2.38-.29,1.75,1.75,0,0,0,1-1.13,8.48,8.48,0,0,0,.29-2.58V947.45l-12.35,12.41a4.29,4.29,0,0,0,.75,2.87,4.4,4.4,0,0,0,2.9.67c.12,0,.17.12.17.35s-.06.35-.17.35q-1.45,0-2.26-.06l-3-.06-3.07.06q-.81.06-2.32.06c-.12,0-.17-.12-.17-.35s.06-.35.17-.35a7.39,7.39,0,0,0,2.41-.29,1.66,1.66,0,0,0,1-1.13,9.39,9.39,0,0,0,.26-2.58v-13a9.4,9.4,0,0,0-.26-2.58,1.67,1.67,0,0,0-1-1.13,7.12,7.12,0,0,0-2.38-.29c-.12,0-.17-.12-.17-.35s.06-.35.17-.35q1.45,0,2.26.06l3.07.06,3-.06q.81-.06,2.2-.06c.12,0,.17.12.17.35s-.06.35-.17.35a6,6,0,0,0-2.38.35,1.84,1.84,0,0,0-1,1.19,9.39,9.39,0,0,0-.26,2.58v11.72l12.35-12.41a4.06,4.06,0,0,0-.75-2.78,4.56,4.56,0,0,0-2.9-.64c-.12,0-.17-.12-.17-.35s.06-.35.17-.35q1.45,0,2.26.06l3.07.06,3-.06q.81-.06,2.2-.06c.12,0,.17.12.17.35s-.06.35-.17.35a6,6,0,0,0-2.38.35,1.85,1.85,0,0,0-1,1.19,9.36,9.36,0,0,0-.26,2.58V959.4a9.35,9.35,0,0,0,.26,2.58,1.66,1.66,0,0,0,1,1.13,7.1,7.1,0,0,0,2.38.29C774.57,963.4,774.63,963.52,774.63,963.75Zm-10.76-27.61a6.82,6.82,0,0,0,1.13-2.61,7.32,7.32,0,0,1,.81-2.06,1.66,1.66,0,0,1,1.51-.73,1.58,1.58,0,0,1,1.25.49,1.9,1.9,0,0,1,.43,1.31,3.82,3.82,0,0,1-1.07,2.55,7.54,7.54,0,0,1-2.81,1.94,9.39,9.39,0,0,1-3.65.73,9.09,9.09,0,0,1-3.65-.75,7.81,7.81,0,0,1-2.81-2,3.82,3.82,0,0,1-1.07-2.55,1.51,1.51,0,0,1,1.68-1.74,1.62,1.62,0,0,1,1.51.67,9,9,0,0,1,.81,2.18,6.91,6.91,0,0,0,1,2.58,2.89,2.89,0,0,0,2.49.9A3,3,0,0,0,763.87,936.14Z"
    transform="translate(-229.43 -367.89)"></path>
  <path
    d="M337.22,1032.74a10.11,10.11,0,0,1-3.77-4.26,12.87,12.87,0,0,1-1.22-5.51,11.16,11.16,0,0,1,1.89-6.47,12.67,12.67,0,0,1,4.81-4.23,13.17,13.17,0,0,1,6-1.48,10.39,10.39,0,0,1,4.7,1q2,1,2,2.52a1.78,1.78,0,0,1-.55,1.3,2,2,0,0,1-1.48.55,3,3,0,0,1-2.55-1.86,5.07,5.07,0,0,0-1.6-1.8,4.65,4.65,0,0,0-2.52-.58,5.91,5.91,0,0,0-5.07,2.52,11.29,11.29,0,0,0-1.83,6.76,12.68,12.68,0,0,0,2.44,8q2.44,3.16,7.37,3.16a9,9,0,0,0,5.86-1.91h.12a.41.41,0,0,1,.32.17c.1.12.09.21,0,.29a13.58,13.58,0,0,1-4.06,2.67,12.09,12.09,0,0,1-4.52.81A11.39,11.39,0,0,1,337.22,1032.74Z"
    transform="translate(-229.43 -367.89)"></path>
  <path
    d="M374.75,1030.39c.12,0,.22.08.32.23s.11.27,0,.35a14,14,0,0,1-4.09,2.61,11.84,11.84,0,0,1-4.38.81,10.91,10.91,0,0,1-5.89-1.54,10,10,0,0,1-3.74-4.09,12.14,12.14,0,0,1-1.28-5.51,12.39,12.39,0,0,1,1.65-6.29,12.15,12.15,0,0,1,4.49-4.52,12.35,12.35,0,0,1,6.32-1.65,7.12,7.12,0,0,1,4.87,1.54,5.32,5.32,0,0,1,1.74,4.21,2.87,2.87,0,0,1-.15,1,.54.54,0,0,1-.55.35l-14.27.06a16.52,16.52,0,0,0-.29,3,13.07,13.07,0,0,0,2.44,8.21,8,8,0,0,0,6.67,3.16,10.44,10.44,0,0,0,6-1.91Zm-12.5-17.08a7.28,7.28,0,0,0-2.23,3.86l10.79-.23a5.4,5.4,0,0,0-1.28-3.68,4.3,4.3,0,0,0-3.31-1.31A5.91,5.91,0,0,0,362.25,1013.31Z"
    transform="translate(-229.43 -367.89)"></path>
  <path
    d="M409.38,1033.35c0,.23-.06.35-.17.35q-1.51,0-2.38-.06l-2.9-.06-2.78.06q-.7.06-1.91.06c-.08,0-.12-.12-.12-.35s0-.35.12-.35a5,5,0,0,0,2-.29,1.63,1.63,0,0,0,.87-1.13,9.39,9.39,0,0,0,.17-2.58l-.29-14.44L394,1033.7c0,.15-.19.23-.46.23a.55.55,0,0,1-.46-.23l-9-17.57L384,1016l-.12,11.72a7.28,7.28,0,0,0,.78,4.09,3.2,3.2,0,0,0,2.87,1.25c.08,0,.12.12.12.35s0,.35-.12.35q-1.22,0-1.91-.06l-2.38-.06-2.44.06q-.7.06-2,.06c-.08,0-.12-.12-.12-.35s0-.35.12-.35a3.36,3.36,0,0,0,2.93-1.25,7.43,7.43,0,0,0,1-4.09l.12-13.51a5,5,0,0,0-3.89-2.15c-.08,0-.12-.12-.12-.35s0-.35.12-.35l2.78.06,2.61-.06a1.44,1.44,0,0,1,1.19.46,22.15,22.15,0,0,1,1.48,2.49l7.66,15,6.84-16.47a2.17,2.17,0,0,1,.73-1.07,1.65,1.65,0,0,1,1-.38l2.73.06,3.19-.06c.12,0,.17.12.17.35s-.06.35-.17.35a4.91,4.91,0,0,0-3.07.75q-.93.76-.87,3.07l.29,13.17a10.43,10.43,0,0,0,.32,2.61,1.65,1.65,0,0,0,1,1.1,7.13,7.13,0,0,0,2.38.29C409.32,1033,409.38,1033.12,409.38,1033.35Z"
    transform="translate(-229.43 -367.89)"></path>
  <path
    d="M431.76,1030.39c.12,0,.22.08.32.23s.11.27,0,.35a14,14,0,0,1-4.09,2.61,11.84,11.84,0,0,1-4.38.81,10.91,10.91,0,0,1-5.89-1.54,10,10,0,0,1-3.74-4.09,12.14,12.14,0,0,1-1.28-5.51,12.39,12.39,0,0,1,1.65-6.29,12.15,12.15,0,0,1,4.49-4.52,12.35,12.35,0,0,1,6.32-1.65,7.12,7.12,0,0,1,4.87,1.54,5.32,5.32,0,0,1,1.74,4.21,2.87,2.87,0,0,1-.15,1,.54.54,0,0,1-.55.35l-14.27.06a16.52,16.52,0,0,0-.29,3,13.07,13.07,0,0,0,2.44,8.21,8,8,0,0,0,6.67,3.16,10.44,10.44,0,0,0,6-1.91Zm-12.5-17.08a7.28,7.28,0,0,0-2.23,3.86l10.79-.23a5.4,5.4,0,0,0-1.28-3.68,4.3,4.3,0,0,0-3.31-1.31A5.91,5.91,0,0,0,419.26,1013.31Z"
    transform="translate(-229.43 -367.89)"></path>
  <path
    d="M462.5,1033.35q0,.35-.17.35-1.45,0-2.26-.06l-3-.06-3.13.06q-.81.06-2.26.06c-.12,0-.17-.12-.17-.35s.06-.35.17-.35a7.14,7.14,0,0,0,2.38-.29,1.75,1.75,0,0,0,1-1.13,8.49,8.49,0,0,0,.29-2.58v-11.95l-12.35,12.41a4.29,4.29,0,0,0,.75,2.87,4.4,4.4,0,0,0,2.9.67c.12,0,.17.12.17.35s-.06.35-.17.35q-1.45,0-2.26-.06l-3-.06-3.07.06q-.81.06-2.32.06-.17,0-.17-.35c0-.23.06-.35.17-.35a7.42,7.42,0,0,0,2.41-.29,1.66,1.66,0,0,0,1-1.13,9.39,9.39,0,0,0,.26-2.58v-13a9.39,9.39,0,0,0-.26-2.58,1.66,1.66,0,0,0-1-1.13,7.13,7.13,0,0,0-2.38-.29c-.12,0-.17-.12-.17-.35s.06-.35.17-.35q1.45,0,2.26.06l3.07.06,3-.06q.81-.06,2.2-.06c.12,0,.17.12.17.35s-.06.35-.17.35a6,6,0,0,0-2.38.35,1.85,1.85,0,0,0-1,1.19,9.38,9.38,0,0,0-.26,2.58v11.72l12.35-12.41a4.05,4.05,0,0,0-.75-2.78,4.55,4.55,0,0,0-2.9-.64c-.12,0-.17-.12-.17-.35s.06-.35.17-.35q1.45,0,2.26.06l3.07.06,3-.06q.81-.06,2.2-.06c.12,0,.17.12.17.35s-.06.35-.17.35a6,6,0,0,0-2.38.35,1.85,1.85,0,0,0-1,1.19,9.38,9.38,0,0,0-.26,2.58V1029a9.37,9.37,0,0,0,.26,2.58,1.66,1.66,0,0,0,1,1.13,7.14,7.14,0,0,0,2.38.29C462.45,1033,462.5,1033.12,462.5,1033.35Zm-10.76-27.61a6.84,6.84,0,0,0,1.13-2.61,7.31,7.31,0,0,1,.81-2.06,1.66,1.66,0,0,1,1.51-.73,1.58,1.58,0,0,1,1.25.49,1.9,1.9,0,0,1,.44,1.3,3.82,3.82,0,0,1-1.07,2.55,7.53,7.53,0,0,1-2.81,1.94,9.39,9.39,0,0,1-3.65.73,9.09,9.09,0,0,1-3.65-.75,7.82,7.82,0,0,1-2.81-2,3.82,3.82,0,0,1-1.07-2.55,1.51,1.51,0,0,1,1.68-1.74,1.62,1.62,0,0,1,1.51.67,9,9,0,0,1,.81,2.17,6.91,6.91,0,0,0,1,2.58,2.89,2.89,0,0,0,2.49.9A3,3,0,0,0,451.74,1005.74Z"
    transform="translate(-229.43 -367.89)"></path>
  <path
    d="M492.43,1033.35q0,.35-.17.35-1.45,0-2.26-.06l-3-.06-3.13.06q-.81.06-2.26.06c-.12,0-.17-.12-.17-.35s.06-.35.17-.35a7.14,7.14,0,0,0,2.38-.29,1.75,1.75,0,0,0,1-1.13,8.49,8.49,0,0,0,.29-2.58v-5.92H473V1029a9.37,9.37,0,0,0,.26,2.58,1.66,1.66,0,0,0,1,1.13,7.14,7.14,0,0,0,2.38.29c.12,0,.17.12.17.35s-.06.35-.17.35q-1.45,0-2.26-.06l-3-.06-3.07.06q-.81.06-2.32.06-.17,0-.17-.35c0-.23.06-.35.17-.35a7.42,7.42,0,0,0,2.41-.29,1.66,1.66,0,0,0,1-1.13,9.39,9.39,0,0,0,.26-2.58v-13a9.39,9.39,0,0,0-.26-2.58,1.66,1.66,0,0,0-1-1.13,7.13,7.13,0,0,0-2.38-.29c-.12,0-.17-.12-.17-.35s.06-.35.17-.35q1.45,0,2.26.06l3.07.06,3-.06q.81-.06,2.2-.06c.12,0,.17.12.17.35s-.06.35-.17.35a6,6,0,0,0-2.38.35,1.85,1.85,0,0,0-1,1.19,9.38,9.38,0,0,0-.26,2.58v5.8h12.35V1016a9.39,9.39,0,0,0-.26-2.58,1.66,1.66,0,0,0-1-1.13,7.13,7.13,0,0,0-2.38-.29c-.12,0-.17-.12-.17-.35s.06-.35.17-.35q1.45,0,2.26.06l3.07.06,3-.06q.81-.06,2.2-.06c.12,0,.17.12.17.35s-.06.35-.17.35a6,6,0,0,0-2.38.35,1.85,1.85,0,0,0-1,1.19,9.38,9.38,0,0,0-.26,2.58V1029a9.37,9.37,0,0,0,.26,2.58,1.66,1.66,0,0,0,1,1.13,7.14,7.14,0,0,0,2.38.29C492.37,1033,492.43,1033.12,492.43,1033.35Z"
    transform="translate(-229.43 -367.89)"></path>
  <path
    d="M501.62,1032.8a11.17,11.17,0,0,1-4-4.47,13.37,13.37,0,0,1-1.42-6.12,11,11,0,0,1,1.83-6.41,11.34,11.34,0,0,1,4.7-3.94,14,14,0,0,1,5.83-1.3,10.61,10.61,0,0,1,6,1.68,11.15,11.15,0,0,1,3.92,4.44,13,13,0,0,1,1.36,5.83,11.8,11.8,0,0,1-1.65,6.29,11.31,11.31,0,0,1-4.47,4.18,13,13,0,0,1-6.12,1.48A10.77,10.77,0,0,1,501.62,1032.8Zm12.47-1.68q1.77-2.29,1.77-7a16.56,16.56,0,0,0-1.19-6.44,10.57,10.57,0,0,0-3.28-4.44,7.63,7.63,0,0,0-4.76-1.6,5.72,5.72,0,0,0-4.84,2.26,10.61,10.61,0,0,0-1.71,6.5,17.86,17.86,0,0,0,1.16,6.53,11.34,11.34,0,0,0,3.25,4.73,7.15,7.15,0,0,0,4.7,1.74A5.85,5.85,0,0,0,514.09,1031.12Z"
    transform="translate(-229.43 -367.89)"></path>
  <path
    d="M550.2,1033.35c0,.23-.06.35-.17.35q-1.45,0-2.26-.06l-3-.06-3.13.06q-.81.06-2.26.06c-.12,0-.17-.12-.17-.35s.06-.35.17-.35a7.14,7.14,0,0,0,2.38-.29,1.75,1.75,0,0,0,1-1.13,8.49,8.49,0,0,0,.29-2.58v-11.95l-12.35,12.41a4.29,4.29,0,0,0,.75,2.87,4.4,4.4,0,0,0,2.9.67c.12,0,.17.12.17.35s-.06.35-.17.35q-1.45,0-2.26-.06l-3-.06-3.07.06q-.81.06-2.32.06-.17,0-.17-.35c0-.23.06-.35.17-.35a7.42,7.42,0,0,0,2.41-.29,1.66,1.66,0,0,0,1-1.13,9.39,9.39,0,0,0,.26-2.58v-13a9.39,9.39,0,0,0-.26-2.58,1.66,1.66,0,0,0-1-1.13,7.13,7.13,0,0,0-2.38-.29c-.12,0-.17-.12-.17-.35s.06-.35.17-.35q1.45,0,2.26.06l3.07.06,3-.06q.81-.06,2.2-.06c.12,0,.17.12.17.35s-.06.35-.17.35a6,6,0,0,0-2.38.35,1.85,1.85,0,0,0-1,1.19,9.38,9.38,0,0,0-.26,2.58v11.72l12.35-12.41a4.05,4.05,0,0,0-.75-2.78,4.55,4.55,0,0,0-2.9-.64c-.12,0-.17-.12-.17-.35s.06-.35.17-.35q1.45,0,2.26.06l3.07.06,3-.06q.81-.06,2.2-.06c.12,0,.17.12.17.35s-.06.35-.17.35a6,6,0,0,0-2.38.35,1.85,1.85,0,0,0-1,1.19,9.4,9.4,0,0,0-.26,2.58V1029a9.39,9.39,0,0,0,.26,2.58,1.66,1.66,0,0,0,1,1.13,7.13,7.13,0,0,0,2.38.29C550.14,1033,550.2,1033.12,550.2,1033.35Zm-10.76-27.61a6.84,6.84,0,0,0,1.13-2.61,7.29,7.29,0,0,1,.81-2.06,1.65,1.65,0,0,1,1.51-.73,1.57,1.57,0,0,1,1.25.49,1.89,1.89,0,0,1,.44,1.3,3.82,3.82,0,0,1-1.07,2.55,7.53,7.53,0,0,1-2.81,1.94,9.39,9.39,0,0,1-3.65.73,9.09,9.09,0,0,1-3.65-.75,7.82,7.82,0,0,1-2.81-2,3.82,3.82,0,0,1-1.07-2.55,1.51,1.51,0,0,1,1.68-1.74,1.62,1.62,0,0,1,1.51.67,9,9,0,0,1,.81,2.17,6.91,6.91,0,0,0,1,2.58,2.89,2.89,0,0,0,2.49.9A3,3,0,0,0,539.44,1005.74Z"
    transform="translate(-229.43 -367.89)"></path>
  <path
    d="M593.7,1033.35c0,.23-.06.35-.17.35q-1.45,0-2.26-.06l-3-.06-3.13.06q-.81.06-2.26.06c-.12,0-.17-.12-.17-.35s.06-.35.17-.35a7.14,7.14,0,0,0,2.38-.29,1.75,1.75,0,0,0,1-1.13,8.49,8.49,0,0,0,.29-2.58v-11.95l-12.35,12.41a4.28,4.28,0,0,0,.75,2.87,4.4,4.4,0,0,0,2.9.67c.12,0,.17.12.17.35s-.06.35-.17.35q-1.45,0-2.26-.06l-3-.06-3.07.06q-.81.06-2.32.06c-.12,0-.17-.12-.17-.35s.06-.35.17-.35a7.43,7.43,0,0,0,2.41-.29,1.66,1.66,0,0,0,1-1.13A9.38,9.38,0,0,0,571,1029v-13a9.38,9.38,0,0,0-.26-2.58,1.66,1.66,0,0,0-1-1.13,7.13,7.13,0,0,0-2.38-.29c-.12,0-.17-.12-.17-.35s.06-.35.17-.35q1.45,0,2.26.06l3.07.06,3-.06q.81-.06,2.21-.06c.12,0,.17.12.17.35s-.06.35-.17.35a6,6,0,0,0-2.38.35,1.85,1.85,0,0,0-1,1.19,9.36,9.36,0,0,0-.26,2.58v11.72l12.35-12.41a4.05,4.05,0,0,0-.75-2.78,4.55,4.55,0,0,0-2.9-.64c-.12,0-.17-.12-.17-.35s.06-.35.17-.35q1.45,0,2.26.06l3.07.06,3-.06q.81-.06,2.2-.06c.12,0,.17.12.17.35s-.06.35-.17.35a6,6,0,0,0-2.38.35,1.85,1.85,0,0,0-1,1.19,9.35,9.35,0,0,0-.26,2.58V1029a9.34,9.34,0,0,0,.26,2.58,1.66,1.66,0,0,0,1,1.13,7.14,7.14,0,0,0,2.38.29C593.64,1033,593.7,1033.12,593.7,1033.35Z"
    transform="translate(-229.43 -367.89)"></path>
  <path
    d="M602.46,1032.74a10.11,10.11,0,0,1-3.77-4.26,12.87,12.87,0,0,1-1.22-5.51,11.17,11.17,0,0,1,1.88-6.47,12.67,12.67,0,0,1,4.81-4.23,13.17,13.17,0,0,1,6-1.48,10.39,10.39,0,0,1,4.7,1q2,1,2,2.52a1.78,1.78,0,0,1-.55,1.3,2,2,0,0,1-1.48.55,3,3,0,0,1-2.55-1.86,5.06,5.06,0,0,0-1.59-1.8,4.65,4.65,0,0,0-2.52-.58,5.91,5.91,0,0,0-5.08,2.52,11.29,11.29,0,0,0-1.83,6.76,12.69,12.69,0,0,0,2.44,8q2.44,3.16,7.37,3.16a9,9,0,0,0,5.86-1.91h.12a.42.42,0,0,1,.32.17c.1.12.09.21,0,.29a13.58,13.58,0,0,1-4.06,2.67,12.09,12.09,0,0,1-4.52.81A11.39,11.39,0,0,1,602.46,1032.74Z"
    transform="translate(-229.43 -367.89)"></path>
  <path
    d="M626.18,1033.35c0-.23,0-.35.12-.35a7.41,7.41,0,0,0,2.41-.29,1.66,1.66,0,0,0,1-1.13A9.35,9.35,0,0,0,630,1029v-12.88a6.38,6.38,0,0,0-.52-3.16q-.52-.78-2.26-.78a4.48,4.48,0,0,0-3.77,1.57q-1.22,1.57-1.33,5.1c0,.08-.17.12-.38.12s-.32,0-.32-.12l-.12-3.48q-.06-.64-.12-1.54t-.06-2.06a1,1,0,0,1,.06-.43c0-.06.17-.09.41-.09q1.22,0,2.15.06l7.77.06,7.95-.06q1-.06,2.26-.06c.23,0,.37,0,.41.09a1,1,0,0,1,.06.43q0,1.16-.06,2.06t-.12,1.54l-.12,3.48c0,.08-.11.12-.32.12s-.34,0-.38-.12q-.12-3.54-1.33-5.1a4.48,4.48,0,0,0-3.77-1.57q-1.74,0-2.26.78a6.38,6.38,0,0,0-.52,3.16V1029a9.39,9.39,0,0,0,.26,2.58,1.66,1.66,0,0,0,1,1.13,7.13,7.13,0,0,0,2.38.29c.08,0,.12.12.12.35s0,.35-.12.35q-1.51,0-2.32-.06l-2.9-.06-3.07.06q-.87.06-2.38.06Q626.18,1033.7,626.18,1033.35Z"
    transform="translate(-229.43 -367.89)"></path>
  <path
    d="M651.61,1032.8a11.17,11.17,0,0,1-4-4.47,13.36,13.36,0,0,1-1.42-6.12,11,11,0,0,1,1.83-6.41,11.33,11.33,0,0,1,4.7-3.94,14,14,0,0,1,5.83-1.3,10.61,10.61,0,0,1,6,1.68,11.15,11.15,0,0,1,3.92,4.44,13,13,0,0,1,1.36,5.83,11.8,11.8,0,0,1-1.65,6.29,11.31,11.31,0,0,1-4.47,4.18,13,13,0,0,1-6.12,1.48A10.77,10.77,0,0,1,651.61,1032.8Zm12.47-1.68q1.77-2.29,1.77-7a16.54,16.54,0,0,0-1.19-6.44,10.57,10.57,0,0,0-3.28-4.44,7.63,7.63,0,0,0-4.76-1.6,5.71,5.71,0,0,0-4.84,2.26,10.61,10.61,0,0,0-1.71,6.5,17.85,17.85,0,0,0,1.16,6.53,11.34,11.34,0,0,0,3.25,4.73,7.15,7.15,0,0,0,4.7,1.74A5.84,5.84,0,0,0,664.08,1031.12Z"
    transform="translate(-229.43 -367.89)"></path>
  <path
    d="M694.56,1011.83a9,9,0,0,1,3.25,3.71,12.56,12.56,0,0,1,1.22,5.68,13,13,0,0,1-2,7.34,12.77,12.77,0,0,1-10.5,5.89,14.64,14.64,0,0,1-3.25-.32,10.57,10.57,0,0,1-2.9-1.19v12a5.67,5.67,0,0,0,.43,2.55,2.46,2.46,0,0,0,1.65,1.13,15.83,15.83,0,0,0,3.71.32c.12,0,.17.12.17.35s-.06.35-.17.35q-2,0-3.19-.06l-4.18-.06-3.48.06q-.93.06-2.44.06c-.12,0-.17-.12-.17-.35s.06-.35.17-.35a8.52,8.52,0,0,0,2.73-.32,1.92,1.92,0,0,0,1.19-1.13,7.48,7.48,0,0,0,.32-2.55V1016a6.06,6.06,0,0,0-.41-2.52,2.24,2.24,0,0,0-1.42-1.16,10.88,10.88,0,0,0-3-.32c-.12,0-.17-.12-.17-.35s.06-.35.17-.35h7c.46,0,.76.1.9.29a2.41,2.41,0,0,1,.2,1.22v2.73q4.93-5,9.74-5A8.14,8.14,0,0,1,694.56,1011.83Zm-1.22,18.71q2-2.7,2-7.51t-2.15-7.54a6.66,6.66,0,0,0-5.45-2.73,7.64,7.64,0,0,0-3.83,1,15.06,15.06,0,0,0-3.48,2.84v13a11.2,11.2,0,0,0,3.42,2.73,9.88,9.88,0,0,0,4.46.93A6,6,0,0,0,693.34,1030.54Z"
    transform="translate(-229.43 -367.89)"></path>
  <path
    d="M729.53,1033.35c0,.23-.06.35-.17.35q-1.45,0-2.26-.06l-3-.06-3.13.06q-.81.06-2.26.06c-.12,0-.17-.12-.17-.35s.06-.35.17-.35a7.14,7.14,0,0,0,2.38-.29,1.75,1.75,0,0,0,1-1.13,8.49,8.49,0,0,0,.29-2.58v-11.95l-12.35,12.41a4.28,4.28,0,0,0,.75,2.87,4.4,4.4,0,0,0,2.9.67c.12,0,.17.12.17.35s-.06.35-.17.35q-1.45,0-2.26-.06l-3-.06-3.07.06q-.81.06-2.32.06c-.12,0-.17-.12-.17-.35s.06-.35.17-.35a7.43,7.43,0,0,0,2.41-.29,1.66,1.66,0,0,0,1-1.13,9.38,9.38,0,0,0,.26-2.58v-13a9.38,9.38,0,0,0-.26-2.58,1.66,1.66,0,0,0-1-1.13,7.13,7.13,0,0,0-2.38-.29c-.12,0-.17-.12-.17-.35s.06-.35.17-.35q1.45,0,2.26.06l3.07.06,3-.06q.81-.06,2.21-.06c.12,0,.17.12.17.35s-.06.35-.17.35a6,6,0,0,0-2.38.35,1.85,1.85,0,0,0-1,1.19,9.36,9.36,0,0,0-.26,2.58v11.72l12.35-12.41a4.05,4.05,0,0,0-.75-2.78,4.55,4.55,0,0,0-2.9-.64c-.12,0-.17-.12-.17-.35s.06-.35.17-.35q1.45,0,2.26.06l3.07.06,3-.06q.81-.06,2.2-.06c.12,0,.17.12.17.35s-.06.35-.17.35a6,6,0,0,0-2.38.35,1.85,1.85,0,0,0-1,1.19,9.35,9.35,0,0,0-.26,2.58V1029a9.34,9.34,0,0,0,.26,2.58,1.66,1.66,0,0,0,1,1.13,7.14,7.14,0,0,0,2.38.29C729.47,1033,729.53,1033.12,729.53,1033.35Z"
    transform="translate(-229.43 -367.89)"></path>
  <path
    d="M759.46,1033.35c0,.23-.06.35-.17.35q-1.45,0-2.26-.06l-3-.06-3.13.06q-.81.06-2.26.06c-.12,0-.17-.12-.17-.35s.06-.35.17-.35a7.14,7.14,0,0,0,2.38-.29,1.75,1.75,0,0,0,1-1.13,8.49,8.49,0,0,0,.29-2.58v-11.95L740,1029.46a4.28,4.28,0,0,0,.75,2.87,4.4,4.4,0,0,0,2.9.67c.12,0,.17.12.17.35s-.06.35-.17.35q-1.45,0-2.26-.06l-3-.06-3.07.06q-.81.06-2.32.06c-.12,0-.17-.12-.17-.35s.06-.35.17-.35a7.43,7.43,0,0,0,2.41-.29,1.66,1.66,0,0,0,1-1.13,9.38,9.38,0,0,0,.26-2.58v-13a9.38,9.38,0,0,0-.26-2.58,1.66,1.66,0,0,0-1-1.13,7.13,7.13,0,0,0-2.38-.29c-.12,0-.17-.12-.17-.35s.06-.35.17-.35q1.45,0,2.26.06l3.07.06,3-.06q.81-.06,2.21-.06c.12,0,.17.12.17.35s-.06.35-.17.35a6,6,0,0,0-2.38.35,1.85,1.85,0,0,0-1,1.19,9.36,9.36,0,0,0-.26,2.58v11.72l12.35-12.41a4.05,4.05,0,0,0-.75-2.78,4.55,4.55,0,0,0-2.9-.64c-.12,0-.17-.12-.17-.35s.06-.35.17-.35q1.45,0,2.26.06l3.07.06,3-.06q.81-.06,2.2-.06c.12,0,.17.12.17.35s-.06.35-.17.35a6,6,0,0,0-2.38.35,1.85,1.85,0,0,0-1,1.19,9.35,9.35,0,0,0-.26,2.58V1029a9.34,9.34,0,0,0,.26,2.58,1.66,1.66,0,0,0,1,1.13,7.14,7.14,0,0,0,2.38.29C759.4,1033,759.46,1033.12,759.46,1033.35Z"
    transform="translate(-229.43 -367.89)"></path>
  <path
    d="M766.48,997.36a12,12,0,0,1,3.71,0q.87.15.81.38a94.53,94.53,0,0,0-1.45,10.7q-.47,5.71-.93,14.3c0,.12-.14.17-.41.17s-.46-.06-.46-.17q-.29-7.89-.72-13.92a102.17,102.17,0,0,0-1.36-11.08Q765.61,997.51,766.48,997.36Zm-.09,36.31a2.55,2.55,0,0,1-.67-1.89,2.3,2.3,0,0,1,.67-1.74,2.62,2.62,0,0,1,1.88-.64,2.43,2.43,0,0,1,1.8.64,2.35,2.35,0,0,1,.64,1.74,2.62,2.62,0,0,1-.64,1.89,2.38,2.38,0,0,1-1.8.67A2.55,2.55,0,0,1,766.39,1033.67Z"
    transform="translate(-229.43 -367.89)"></path>
</svg>