<svg xmlns="http://www.w3.org/2000/svg" id="Слой_1" data-name="Слой 1" viewBox="0 0 867.99 400">
  <title>Будем рады</title>
  <path
    d="M138.06,490.56q-.28,2.45-.39,4.76t-.1,3.5q0,1.26.07,2.42t.14,1.92h-1.61a33.56,33.56,0,0,0-1.19-6.54,5.65,5.65,0,0,0-2.62-3.43,12,12,0,0,0-5.56-1h-3.71a12.79,12.79,0,0,0-3.6.39,2.42,2.42,0,0,0-1.65,1.61,12.69,12.69,0,0,0-.42,3.81V532.7q0,3.71.84,4.86t3.85,1.16q4.83,0,7.31-1.79a8.91,8.91,0,0,0,3.4-4.83,23.29,23.29,0,0,0,.91-6.69,21.23,21.23,0,0,0-1.16-7.59,8.16,8.16,0,0,0-3.85-4.41,15.49,15.49,0,0,0-7.24-1.44L119,512l-3.32.07-2.24,0-.14-1.33q3.29,0,6.3-.07t4.27-.07a22.9,22.9,0,0,1,7.38,1.09,14.46,14.46,0,0,1,5.29,3,12.49,12.49,0,0,1,3.15,4.65,16.16,16.16,0,0,1,1.05,5.92,16.39,16.39,0,0,1-1.58,7,12.49,12.49,0,0,1-5.56,5.6q-4,2.21-11.27,2.21-1.82,0-3.6-.1t-5.21-.1q-2,0-4.37,0t-3.89.17v-1.4a14.4,14.4,0,0,0,3.6-.56,2.52,2.52,0,0,0,1.65-1.68,12.73,12.73,0,0,0,.42-3.78V498a12.69,12.69,0,0,0-.42-3.81,2.62,2.62,0,0,0-1.65-1.68,12,12,0,0,0-3.6-.53v-1.4l7.35.14q3.92.07,7.38.07h5.57q2.73,0,6.23,0T138.06,490.56Z"
    transform="translate(-105.23 -489.58)" />
  <path
    d="M189.93,490.56V492a5.24,5.24,0,0,0-2.66,1.72,21.55,21.55,0,0,0-2.94,4.51L168,530.67h-1.19l-18.9-34.72a10.22,10.22,0,0,0-2.34-3.25,3.08,3.08,0,0,0-1.72-.67v-1.47q.91.07,1.89.1l2,.07q1.05,0,2.24,0h3.22q1.68,0,3.39-.07l3.19-.14V492a7.6,7.6,0,0,0-4.17,1q-1.57,1,0,4.1l14.56,27.16-.77.42,11.48-23q2-3.85,1.92-5.95a3,3,0,0,0-1.65-2.91,11,11,0,0,0-4.55-.87v-1.4l4.13.14q2.1.07,3.92.07t3-.07Zm-21.7,36.68,1.26.49-3.29,6.65a27.68,27.68,0,0,1-1.61,2.87,11.92,11.92,0,0,1-1.47,1.82,6.26,6.26,0,0,1-2.55,1.57,8.94,8.94,0,0,1-2.7.46,5.54,5.54,0,0,1-3.5-1.08,3.7,3.7,0,0,1-1.4-3.12,3.51,3.51,0,0,1,1.08-2.69,3.71,3.71,0,0,1,2.63-1,3.91,3.91,0,0,1,2.52.84,3,3,0,0,1,1.05,2.45,3.29,3.29,0,0,1-.56,1.93,3.9,3.9,0,0,1-1.33,1.22,1,1,0,0,0,.42.07,4.62,4.62,0,0,0,3.33-1.4,14.29,14.29,0,0,0,2.69-4Z"
    transform="translate(-105.23 -489.58)" />
  <path
    d="M227.31,490.56V492a11.94,11.94,0,0,0-3.6.53,2.62,2.62,0,0,0-1.65,1.68,12.7,12.7,0,0,0-.42,3.81V532.7q0,3.85,1.05,4.94t4.62,1.08h2.17q-.28,2.45-.39,4.76T229,547a35.21,35.21,0,0,0,.21,4.34h-1.61a34.39,34.39,0,0,0-1.19-6.58,6,6,0,0,0-2.62-3.54,11.27,11.27,0,0,0-5.56-1.08h-20a11.26,11.26,0,0,0-5.56,1.08,5.81,5.81,0,0,0-2.59,3.54,40.17,40.17,0,0,0-1.23,6.58h-1.61a35.31,35.31,0,0,0,.21-4.34q0-1.19-.1-3.5t-.39-4.76h22.47q3.57,0,4.62-1.08t1.05-4.94V498q0-3.85-1.05-4.94T209.46,492h-.91a10.22,10.22,0,0,0-3.57.46,2.45,2.45,0,0,0-1.47,1.75,27.05,27.05,0,0,0-.63,3.81q-.42,4.76-.81,10.43T201,519.64a61.57,61.57,0,0,1-2.17,10.19,19.63,19.63,0,0,1-4,7.42,8.43,8.43,0,0,1-6.58,2.8v-1.33a7,7,0,0,0,5.39-2.42,18.25,18.25,0,0,0,3.54-6.54,55.72,55.72,0,0,0,2.13-9.42q.77-5.28,1.19-11t.77-11.34q.21-3.71-.84-4.79T195.6,492v-1.4l3.5.14q2,.07,3.71.07t3.12-.1q1.5-.1,3-.1,2.66,0,4.83.1t5.18.1q1.4,0,2.94,0l3-.07Q226.33,490.63,227.31,490.56Z"
    transform="translate(-105.23 -489.58)" />
  <path
    d="M268.68,490.56q-.28,2.45-.39,4.76t-.1,3.5q0,1.26.07,2.42t.14,1.92h-1.61a33.59,33.59,0,0,0-1.19-6.54,5.65,5.65,0,0,0-2.62-3.43,12,12,0,0,0-5.56-1H251.6a12.79,12.79,0,0,0-3.6.39,2.42,2.42,0,0,0-1.65,1.61,12.69,12.69,0,0,0-.42,3.81V532.7a12.73,12.73,0,0,0,.42,3.78,2.42,2.42,0,0,0,1.65,1.65,12.73,12.73,0,0,0,3.6.39h5.11a14.82,14.82,0,0,0,6.69-1.19,6.94,6.94,0,0,0,3.29-3.89,30.65,30.65,0,0,0,1.5-7.31h1.61a47.74,47.74,0,0,0-.21,5q0,1.33.1,3.81t.39,5.15q-3.57-.14-8-.17t-8,0h-5.57q-3.46,0-7.38,0t-7.35.17v-1.4a14.4,14.4,0,0,0,3.6-.56,2.52,2.52,0,0,0,1.65-1.68,12.73,12.73,0,0,0,.42-3.78V498a12.69,12.69,0,0,0-.42-3.81,2.62,2.62,0,0,0-1.65-1.68,12,12,0,0,0-3.6-.53v-1.4l7.35.14q3.92.07,7.38.07h5.57q3.22,0,7.31,0T268.68,490.56Zm-12,23.94v1.4H243.83v-1.4Zm2-9.24q-.28,4-.24,6.09t0,3.85q0,1.75.07,3.85t.35,6.09h-1.61q-.28-2.24-.67-4.37a6.67,6.67,0,0,0-1.68-3.5q-1.3-1.37-4.37-1.37v-1.4q3.08,0,4.3-1.61a8.34,8.34,0,0,0,1.58-3.78q.35-2.17.63-3.85Z"
    transform="translate(-105.23 -489.58)" />
  <path
    d="M331.47,490.56V492a11.94,11.94,0,0,0-3.6.53,2.62,2.62,0,0,0-1.65,1.68,12.7,12.7,0,0,0-.42,3.81V532.7a12.75,12.75,0,0,0,.42,3.78,2.52,2.52,0,0,0,1.65,1.68,14.38,14.38,0,0,0,3.6.56v1.4q-1.61-.14-4-.17t-4.86,0q-2.73,0-5.11,0t-3.85.17v-1.4a14.4,14.4,0,0,0,3.6-.56,2.52,2.52,0,0,0,1.65-1.68,12.75,12.75,0,0,0,.42-3.78V494.2l.28.21-17.15,46.06H301.3L283.66,495v37a13.59,13.59,0,0,0,.45,4,3.15,3.15,0,0,0,1.82,2,12.35,12.35,0,0,0,4.09.73v1.4q-1.26-.14-3.29-.17t-3.85,0q-1.75,0-3.54,0t-3,.17v-1.4A9.89,9.89,0,0,0,280,538a3.1,3.1,0,0,0,1.65-2,14.66,14.66,0,0,0,.42-4V498a12.69,12.69,0,0,0-.42-3.81,2.62,2.62,0,0,0-1.65-1.68,12,12,0,0,0-3.6-.53v-1.4q1.19.07,3,.14t3.54.07q1.54,0,3.18-.07l2.77-.14,15.89,41.86-1.19.56,15.75-42.21h3.29q2.45,0,4.86-.07T331.47,490.56Z"
    transform="translate(-105.23 -489.58)" />
  <path
    d="M354.78,490.56q1.47.07,3.85.14t4.69.07q3.29,0,6.3-.07t4.27-.07q8.47,0,12.67,3.85a12.87,12.87,0,0,1,4.2,9.94,18.17,18.17,0,0,1-.84,5.29,13.73,13.73,0,0,1-2.91,5.11,14.9,14.9,0,0,1-5.63,3.81,23.88,23.88,0,0,1-9,1.47h-6.72v-1.4h6q5,0,7.59-1.89a9.35,9.35,0,0,0,3.57-5,22.57,22.57,0,0,0,.94-6.65q0-6.65-2.62-9.94t-9-3.29q-3.22,0-4.2,1.19T367,498V532.7a10.34,10.34,0,0,0,.52,3.78,2.9,2.9,0,0,0,2.06,1.68,22.13,22.13,0,0,0,4.48.56v1.4q-1.82-.14-4.62-.17t-5.67,0q-2.73,0-5.11,0t-3.85.17v-1.4a14.4,14.4,0,0,0,3.6-.56,2.52,2.52,0,0,0,1.65-1.68,12.73,12.73,0,0,0,.42-3.78V498a12.69,12.69,0,0,0-.42-3.81,2.62,2.62,0,0,0-1.65-1.68,12,12,0,0,0-3.6-.53Z"
    transform="translate(-105.23 -489.58)" />
  <path
    d="M412.53,490.21l17.08,44a7.36,7.36,0,0,0,2.38,3.53,5.12,5.12,0,0,0,2.45.95v1.4q-1.4-.14-3.43-.17t-4.06,0q-2.73,0-5.11,0t-3.85.17v-1.4q3.57-.14,4.55-1.23t-.42-4.65L409.1,498l1.12-.91L398,528.78a16.2,16.2,0,0,0-1.4,5.92,3.39,3.39,0,0,0,1.61,3,9.36,9.36,0,0,0,4.48,1v1.4q-2-.14-4.1-.17t-4,0q-1.75,0-3,0a22.35,22.35,0,0,0-2.28.17v-1.4a7,7,0,0,0,2.87-1.65,11.19,11.19,0,0,0,2.66-4.45l16.45-42.42h1.12ZM421.07,520v1.4H400.21l.7-1.4Z"
    transform="translate(-105.23 -489.58)" />
  <path
    d="M474.55,490.56V492a11.94,11.94,0,0,0-3.6.53,2.62,2.62,0,0,0-1.65,1.68,12.7,12.7,0,0,0-.42,3.81V532.7q0,3.85,1.05,4.94t4.62,1.08h2.17q-.28,2.45-.39,4.76t-.1,3.5a35.21,35.21,0,0,0,.21,4.34h-1.61a34.39,34.39,0,0,0-1.19-6.58A6,6,0,0,0,471,541.2a11.27,11.27,0,0,0-5.56-1.08h-20a11.26,11.26,0,0,0-5.56,1.08,5.81,5.81,0,0,0-2.59,3.54,40.17,40.17,0,0,0-1.23,6.58h-1.61a35.31,35.31,0,0,0,.21-4.34q0-1.19-.1-3.5t-.39-4.76H456.7q3.57,0,4.62-1.08t1.05-4.94V498q0-3.85-1.05-4.94T456.7,492h-.91a10.22,10.22,0,0,0-3.57.46,2.45,2.45,0,0,0-1.47,1.75,27.05,27.05,0,0,0-.63,3.81q-.42,4.76-.81,10.43t-1.12,11.23A61.57,61.57,0,0,1,446,529.83a19.63,19.63,0,0,1-4,7.42,8.43,8.43,0,0,1-6.58,2.8v-1.33a7,7,0,0,0,5.39-2.42,18.25,18.25,0,0,0,3.54-6.54,55.72,55.72,0,0,0,2.13-9.42q.77-5.28,1.19-11t.77-11.34q.21-3.71-.84-4.79T442.84,492v-1.4l3.5.14q2,.07,3.71.07t3.12-.1q1.5-.1,3-.1,2.66,0,4.83.1t5.18.1q1.4,0,2.94,0l3-.07Q473.57,490.63,474.55,490.56Z"
    transform="translate(-105.23 -489.58)" />
  <path
    d="M500.24,490.56V492a18.34,18.34,0,0,0-4.48.53,3,3,0,0,0-2.06,1.68,10.31,10.31,0,0,0-.52,3.81V532.7q0,3.85.84,4.94t4.06,1.08q4.69,0,7.14-1.85a9.33,9.33,0,0,0,3.36-4.87,22.67,22.67,0,0,0,.91-6.58,20.82,20.82,0,0,0-1.16-7.42,8.69,8.69,0,0,0-3.67-4.51,13.19,13.19,0,0,0-6.79-1.51q-2.17,0-4.83.07t-3.85.07l-.14-1.33q3.29,0,6.3-.07t4.27-.07a21.5,21.5,0,0,1,9.42,1.82,12.74,12.74,0,0,1,5.6,5,14,14,0,0,1,1.85,7.21,17.83,17.83,0,0,1-.84,5.25,13.47,13.47,0,0,1-2.9,5,14.8,14.8,0,0,1-5.64,3.75,24.4,24.4,0,0,1-9,1.44q-1.61,0-3.64-.1t-4.48-.1q-2.73,0-5.11,0t-3.85.17v-1.4a14.4,14.4,0,0,0,3.6-.56,2.52,2.52,0,0,0,1.65-1.68,12.73,12.73,0,0,0,.42-3.78V498a12.69,12.69,0,0,0-.42-3.81,2.62,2.62,0,0,0-1.65-1.68A12,12,0,0,0,481,492v-1.4q1.47.07,3.85.14t5.11.07q2.87,0,5.67-.07T500.24,490.56Zm37.1,0V492a11.94,11.94,0,0,0-3.6.53,2.62,2.62,0,0,0-1.65,1.68,12.69,12.69,0,0,0-.42,3.81V532.7a12.73,12.73,0,0,0,.42,3.78,2.52,2.52,0,0,0,1.65,1.68,14.38,14.38,0,0,0,3.6.56v1.4q-1.61-.14-4-.17t-4.87,0q-2.73,0-5.11,0t-3.85.17v-1.4a14.4,14.4,0,0,0,3.6-.56,2.52,2.52,0,0,0,1.65-1.68,12.73,12.73,0,0,0,.42-3.78V498a12.69,12.69,0,0,0-.42-3.81,2.62,2.62,0,0,0-1.65-1.68,12,12,0,0,0-3.6-.53v-1.4q1.47.07,3.85.14t5.11.07q2.45,0,4.87-.07T537.34,490.56Z"
    transform="translate(-105.23 -489.58)" />
  <path
    d="M560.65,490.56q1.47.07,3.85.14t4.69.07q3.29,0,6.3-.07t4.27-.07q7.35,0,11.06,3.08a9.82,9.82,0,0,1,3.71,7.91,12,12,0,0,1-1,4.79,11.45,11.45,0,0,1-3.36,4.27,18.06,18.06,0,0,1-6.27,3.12v.14a21.8,21.8,0,0,1,8.65,2.63,11.21,11.21,0,0,1,4.38,4.52,12.79,12.79,0,0,1-3.18,15.23q-4.45,3.82-12.36,3.81-1.54,0-4.62-.1t-7.42-.1q-2.45,0-4.83,0t-3.85.17v-1.4a14.4,14.4,0,0,0,3.61-.56,2.52,2.52,0,0,0,1.64-1.68,12.7,12.7,0,0,0,.42-3.78V498a12.65,12.65,0,0,0-.42-3.81,2.62,2.62,0,0,0-1.64-1.68,12,12,0,0,0-3.61-.53ZM578,492q-3.22,0-4.2,1.19t-1,4.83V532.7q0,3.64,1,4.73t4.24,1.08q6.86,0,10-3.19t3.11-9.06q0-5.39-2.91-8.33T578.71,515H571.5V513.8h6a11,11,0,0,0,6.37-1.58A8,8,0,0,0,587,508a18.37,18.37,0,0,0,.84-5.63q0-5.18-2.27-7.81T578,492Z"
    transform="translate(-105.23 -489.58)" />
  <path
    d="M621.62,490.56V492a11.94,11.94,0,0,0-3.61.53,2.62,2.62,0,0,0-1.64,1.68,12.65,12.65,0,0,0-.42,3.81V532.7a12.7,12.7,0,0,0,.42,3.78,2.52,2.52,0,0,0,1.64,1.68,14.38,14.38,0,0,0,3.61.56v1.4q-1.61-.14-4-.17t-4.87,0q-2.73,0-5.11,0t-3.85.17v-1.4a14.39,14.39,0,0,0,3.6-.56,2.52,2.52,0,0,0,1.65-1.68,12.73,12.73,0,0,0,.42-3.78V498a12.69,12.69,0,0,0-.42-3.81,2.62,2.62,0,0,0-1.65-1.68,12,12,0,0,0-3.6-.53v-1.4q1.47.07,3.85.14t5.11.07q2.45,0,4.87-.07T621.62,490.56Zm19.67,4.62q-.14,1.47-.21,3l-28,39.69.21-3Zm11-4.62V492a11.94,11.94,0,0,0-3.61.53,2.62,2.62,0,0,0-1.64,1.68,12.65,12.65,0,0,0-.42,3.81V532.7a12.69,12.69,0,0,0,.42,3.78,2.52,2.52,0,0,0,1.64,1.68,14.38,14.38,0,0,0,3.61.56v1.4q-1.47-.14-3.85-.17t-5.11,0q-2.38,0-4.83,0t-4.06.17v-1.4a14.39,14.39,0,0,0,3.6-.56,2.52,2.52,0,0,0,1.65-1.68,12.73,12.73,0,0,0,.42-3.78V498a12.69,12.69,0,0,0-.42-3.81,2.62,2.62,0,0,0-1.65-1.68,12,12,0,0,0-3.6-.53v-1.4q1.61.07,4.06.14t4.83.07q2.73,0,5.11-.07T652.28,490.56Z"
    transform="translate(-105.23 -489.58)" />
  <path
    d="M695.75,490.56V492a12,12,0,0,0-3.61.53,2.62,2.62,0,0,0-1.64,1.68,12.72,12.72,0,0,0-.42,3.81V532.7q0,3.85,1.05,4.94t4.62,1.08h2.17q-.28,2.45-.38,4.76t-.11,3.5a35.08,35.08,0,0,0,.21,4.34H696a34.31,34.31,0,0,0-1.19-6.58,6,6,0,0,0-2.62-3.54,11.27,11.27,0,0,0-5.56-1.08h-20a11.27,11.27,0,0,0-5.57,1.08,5.81,5.81,0,0,0-2.59,3.54,40.22,40.22,0,0,0-1.22,6.58h-1.61a35.54,35.54,0,0,0,.21-4.34q0-1.19-.1-3.5t-.39-4.76H677.9q3.57,0,4.62-1.08t1.05-4.94V498q0-3.85-1.05-4.94T677.9,492H677a10.22,10.22,0,0,0-3.57.46,2.45,2.45,0,0,0-1.47,1.75,27.05,27.05,0,0,0-.63,3.81q-.42,4.76-.8,10.43t-1.12,11.23a61.42,61.42,0,0,1-2.17,10.19,19.63,19.63,0,0,1-4,7.42,8.43,8.43,0,0,1-6.58,2.8v-1.33a7,7,0,0,0,5.39-2.42,18.25,18.25,0,0,0,3.54-6.54,55.72,55.72,0,0,0,2.13-9.42q.77-5.28,1.19-11t.77-11.34q.21-3.71-.84-4.79T664,492v-1.4l3.5.14q2,.07,3.71.07t3.12-.1q1.5-.1,3-.1,2.66,0,4.83.1t5.18.1q1.4,0,2.94,0l3-.07Q694.77,490.63,695.75,490.56Z"
    transform="translate(-105.23 -489.58)" />
  <path
    d="M737.12,490.56q-.28,2.45-.39,4.76t-.1,3.5q0,1.26.07,2.42t.14,1.92h-1.61a33.63,33.63,0,0,0-1.19-6.54,5.66,5.66,0,0,0-2.62-3.43,12,12,0,0,0-5.57-1H720a12.78,12.78,0,0,0-3.6.39,2.42,2.42,0,0,0-1.65,1.61,12.69,12.69,0,0,0-.42,3.81V532.7a12.73,12.73,0,0,0,.42,3.78,2.42,2.42,0,0,0,1.65,1.65,12.73,12.73,0,0,0,3.6.39h5.11a14.82,14.82,0,0,0,6.68-1.19,6.94,6.94,0,0,0,3.29-3.89,30.65,30.65,0,0,0,1.5-7.31h1.61a47.58,47.58,0,0,0-.21,5q0,1.33.11,3.81t.38,5.15q-3.57-.14-8-.17t-8,0h-5.57q-3.46,0-7.38,0t-7.35.17v-1.4a14.4,14.4,0,0,0,3.61-.56,2.52,2.52,0,0,0,1.64-1.68,12.7,12.7,0,0,0,.42-3.78V498a12.65,12.65,0,0,0-.42-3.81,2.62,2.62,0,0,0-1.64-1.68,12,12,0,0,0-3.61-.53v-1.4l7.35.14q3.92.07,7.38.07h5.57q3.22,0,7.31,0T737.12,490.56Zm-12,23.94v1.4H712.27v-1.4Zm2-9.24q-.28,4-.24,6.09t0,3.85q0,1.75.07,3.85t.35,6.09h-1.61q-.28-2.24-.67-4.37a6.67,6.67,0,0,0-1.68-3.5q-1.3-1.37-4.37-1.37v-1.4q3.08,0,4.3-1.61a8.33,8.33,0,0,0,1.58-3.78q.35-2.17.63-3.85Z"
    transform="translate(-105.23 -489.58)" />
  <path
    d="M783.32,490.56q-.28,2.66-.38,5.15t-.11,3.81q0,1.68.07,3.15t.14,2.59h-1.61a43.63,43.63,0,0,0-1.33-7.74,6.76,6.76,0,0,0-2.94-4.09q-2.1-1.26-6.51-1.26h-3.78V532a12.68,12.68,0,0,0,.52,4.2,3.05,3.05,0,0,0,2.07,1.89,18.55,18.55,0,0,0,4.48.63v1.4q-1.82-.14-4.62-.17t-5.67,0q-3.15,0-5.92,0t-4.44.17v-1.4a18.55,18.55,0,0,0,4.48-.63,3.06,3.06,0,0,0,2.07-1.89,12.66,12.66,0,0,0,.52-4.2V492.17h-3.78q-4.34,0-6.47,1.26a6.72,6.72,0,0,0-3,4.09,43.72,43.72,0,0,0-1.33,7.74h-1.61q.14-1.12.18-2.59t0-3.15q0-1.33-.11-3.81t-.38-5.15l6.4.14q3.47.07,7,.07H770q3.47,0,7-.07Z"
    transform="translate(-105.23 -489.58)" />
  <path
    d="M807.54,490.56V492a18.34,18.34,0,0,0-4.48.53,3,3,0,0,0-2.06,1.68,10.29,10.29,0,0,0-.53,3.81V532.7q0,3.85.84,4.94t4.06,1.08q4.69,0,7.14-1.85a9.33,9.33,0,0,0,3.36-4.87,22.69,22.69,0,0,0,.91-6.58,20.81,20.81,0,0,0-1.16-7.42,8.68,8.68,0,0,0-3.67-4.51,13.2,13.2,0,0,0-6.79-1.51q-2.17,0-4.83.07t-3.85.07l-.14-1.33q3.29,0,6.3-.07t4.27-.07a21.51,21.51,0,0,1,9.42,1.82,12.74,12.74,0,0,1,5.6,5,14,14,0,0,1,1.86,7.21,17.85,17.85,0,0,1-.84,5.25,13.45,13.45,0,0,1-2.91,5,14.79,14.79,0,0,1-5.63,3.75,24.4,24.4,0,0,1-9,1.44q-1.61,0-3.64-.1t-4.48-.1q-2.73,0-5.11,0t-3.85.17v-1.4a14.4,14.4,0,0,0,3.6-.56,2.53,2.53,0,0,0,1.65-1.68,12.76,12.76,0,0,0,.42-3.78V498a12.72,12.72,0,0,0-.42-3.81,2.63,2.63,0,0,0-1.65-1.68,12,12,0,0,0-3.6-.53v-1.4q1.47.07,3.85.14t5.11.07q2.87,0,5.67-.07T807.54,490.56Z"
    transform="translate(-105.23 -489.58)" />
  <path
    d="M846.32,490.56q1.47.07,3.85.14t4.69.07q3.29,0,6.3-.07t4.27-.07q7.35,0,11.06,3.08a9.82,9.82,0,0,1,3.71,7.91,12,12,0,0,1-1,4.79,11.45,11.45,0,0,1-3.36,4.27,18.07,18.07,0,0,1-6.26,3.12v.14a21.8,21.8,0,0,1,8.65,2.63,11.21,11.21,0,0,1,4.38,4.52,12.78,12.78,0,0,1-3.19,15.23q-4.45,3.82-12.36,3.81-1.54,0-4.62-.1t-7.42-.1q-2.45,0-4.83,0t-3.85.17v-1.4a14.39,14.39,0,0,0,3.6-.56,2.52,2.52,0,0,0,1.65-1.68,12.73,12.73,0,0,0,.42-3.78V498a12.69,12.69,0,0,0-.42-3.81,2.62,2.62,0,0,0-1.65-1.68,12,12,0,0,0-3.6-.53Zm17.36,1.4q-3.22,0-4.2,1.19t-1,4.83V532.7q0,3.64,1,4.73t4.24,1.08q6.86,0,10-3.19t3.12-9.06q0-5.39-2.91-8.33T864.38,515h-7.21V513.8h6a11,11,0,0,0,6.37-1.58,8,8,0,0,0,3.08-4.2,18.37,18.37,0,0,0,.84-5.63q0-5.18-2.27-7.81T863.68,492Z"
    transform="translate(-105.23 -489.58)" />
  <path
    d="M909.11,490.21l17.08,44a7.36,7.36,0,0,0,2.38,3.53,5.13,5.13,0,0,0,2.45.95v1.4q-1.4-.14-3.43-.17t-4.06,0q-2.73,0-5.11,0t-3.85.17v-1.4q3.57-.14,4.55-1.23t-.42-4.65l-13-34.79,1.12-.91-12.18,31.64a16.21,16.21,0,0,0-1.4,5.92,3.39,3.39,0,0,0,1.61,3,9.37,9.37,0,0,0,4.48,1v1.4q-2-.14-4.09-.17t-4,0q-1.75,0-3,0a22.35,22.35,0,0,0-2.28.17v-1.4a7,7,0,0,0,2.87-1.65,11.19,11.19,0,0,0,2.66-4.45L908,490.21h1.12ZM917.64,520v1.4H896.79l.7-1.4Z"
    transform="translate(-105.23 -489.58)" />
  <path
    d="M955.58,489.58a18.28,18.28,0,0,1,7.59,1.37,26.08,26.08,0,0,1,5.29,3.18q1.4,1.05,2.13.25t1-3.81h1.61q-.14,2.59-.21,6.3t-.07,9.8h-1.61q-.49-3-.91-4.79a15.57,15.57,0,0,0-1-3,13.58,13.58,0,0,0-1.58-2.52,12.46,12.46,0,0,0-5.46-4.17,18.76,18.76,0,0,0-6.93-1.29,11.52,11.52,0,0,0-6.2,1.71,14.89,14.89,0,0,0-4.76,4.94,26.22,26.22,0,0,0-3.08,7.77,44.09,44.09,0,0,0-1.09,10.22,40.92,40.92,0,0,0,1.19,10.4,23.93,23.93,0,0,0,3.33,7.6,14.63,14.63,0,0,0,5,4.65,12.93,12.93,0,0,0,6.26,1.58,19.06,19.06,0,0,0,6.58-1.26,11,11,0,0,0,5.39-4.06,12.11,12.11,0,0,0,2.13-4.41,55,55,0,0,0,1.08-6.65h1.61q0,6.37.07,10.25t.21,6.54h-1.61q-.28-3-.95-3.78t-2.21.21a36.6,36.6,0,0,1-5.5,3.19,17.59,17.59,0,0,1-7.46,1.36,22.17,22.17,0,0,1-11.66-3,20.13,20.13,0,0,1-7.77-8.68A34.64,34.64,0,0,1,936.2,502a22.48,22.48,0,0,1,7.88-9.17A20.48,20.48,0,0,1,955.58,489.58Z"
    transform="translate(-105.23 -489.58)" />
  <path
    d="M125.74,650.12v-1.4a14.4,14.4,0,0,0,3.6-.56,2.52,2.52,0,0,0,1.65-1.68,12.73,12.73,0,0,0,.42-3.78V608a12.69,12.69,0,0,0-.42-3.81,2.62,2.62,0,0,0-1.65-1.68,12,12,0,0,0-3.6-.53v-1.4q1.47.07,3.85.14t5.11.07q2.45,0,4.87-.07t4-.14V602a11.94,11.94,0,0,0-3.6.53,2.62,2.62,0,0,0-1.65,1.68,12.69,12.69,0,0,0-.42,3.81V642.7a12.73,12.73,0,0,0,.42,3.78,2.52,2.52,0,0,0,1.65,1.68,14.38,14.38,0,0,0,3.6.56v1.4q-1.61-.14-4-.17t-4.87,0q-2.73,0-5.11,0T125.74,650.12Zm9.73-24.22v-1.4h27.65v1.4ZM155,650.12v-1.4a14.4,14.4,0,0,0,3.6-.56,2.52,2.52,0,0,0,1.65-1.68,12.75,12.75,0,0,0,.42-3.78V608a12.7,12.7,0,0,0-.42-3.81,2.63,2.63,0,0,0-1.65-1.68A12,12,0,0,0,155,602v-1.4q1.61.07,4.06.14t4.83.07q2.73,0,5.11-.07t3.85-.14V602a11.94,11.94,0,0,0-3.6.53,2.62,2.62,0,0,0-1.65,1.68,12.7,12.7,0,0,0-.42,3.81V642.7a12.75,12.75,0,0,0,.42,3.78,2.52,2.52,0,0,0,1.65,1.68,14.38,14.38,0,0,0,3.6.56v1.4q-1.47-.14-3.85-.17t-5.11,0q-2.38,0-4.83,0T155,650.12Z"
    transform="translate(-105.23 -489.58)" />
  <path
    d="M198.4,600.21l17.08,44a7.36,7.36,0,0,0,2.38,3.53,5.12,5.12,0,0,0,2.45.95v1.4q-1.4-.14-3.43-.17t-4.06,0q-2.73,0-5.11,0t-3.85.17v-1.4q3.57-.14,4.55-1.23t-.42-4.65L195,608l1.12-.91-12.18,31.64a16.2,16.2,0,0,0-1.4,5.92,3.39,3.39,0,0,0,1.61,3,9.36,9.36,0,0,0,4.48,1v1.4q-2-.14-4.1-.17t-4,0q-1.75,0-3,0a22.35,22.35,0,0,0-2.28.17v-1.4a7,7,0,0,0,2.87-1.65,11.19,11.19,0,0,0,2.66-4.45l16.45-42.42h1.12ZM206.94,630v1.4H186.08l.7-1.4Z"
    transform="translate(-105.23 -489.58)" />
  <path
    d="M240.26,650.12v-1.4a14.4,14.4,0,0,0,3.6-.56,2.52,2.52,0,0,0,1.65-1.68,12.73,12.73,0,0,0,.42-3.78V608a12.69,12.69,0,0,0-.42-3.81,2.62,2.62,0,0,0-1.65-1.68,12,12,0,0,0-3.6-.53v-1.4q1.47.07,3.85.14t5.11.07q2.45,0,4.87-.07t4-.14V602a11.94,11.94,0,0,0-3.6.53,2.62,2.62,0,0,0-1.65,1.68,12.69,12.69,0,0,0-.42,3.81V642.7a12.73,12.73,0,0,0,.42,3.78,2.52,2.52,0,0,0,1.65,1.68,14.38,14.38,0,0,0,3.6.56v1.4q-1.61-.14-4-.17t-4.87,0q-2.73,0-5.11,0T240.26,650.12ZM250,625.9v-1.4h27.65v1.4Zm19.53,24.22v-1.4a14.4,14.4,0,0,0,3.6-.56,2.52,2.52,0,0,0,1.65-1.68,12.75,12.75,0,0,0,.42-3.78V608a12.7,12.7,0,0,0-.42-3.81,2.63,2.63,0,0,0-1.65-1.68,12,12,0,0,0-3.6-.53v-1.4q1.61.07,4.06.14t4.83.07q2.73,0,5.11-.07t3.85-.14V602a11.94,11.94,0,0,0-3.6.53,2.62,2.62,0,0,0-1.65,1.68,12.7,12.7,0,0,0-.42,3.81V642.7a12.75,12.75,0,0,0,.42,3.78,2.52,2.52,0,0,0,1.65,1.68,14.38,14.38,0,0,0,3.6.56v1.4q-1.47-.14-3.85-.17t-5.11,0q-2.38,0-4.83,0T269.52,650.12Z"
    transform="translate(-105.23 -489.58)" />
  <path
    d="M312.92,600.21l17.08,44a7.36,7.36,0,0,0,2.38,3.53,5.12,5.12,0,0,0,2.45.95v1.4q-1.4-.14-3.43-.17t-4.06,0q-2.73,0-5.11,0t-3.85.17v-1.4q3.57-.14,4.55-1.23t-.42-4.65l-13-34.79,1.12-.91-12.18,31.64a16.2,16.2,0,0,0-1.4,5.92,3.39,3.39,0,0,0,1.61,3,9.36,9.36,0,0,0,4.48,1v1.4q-2-.14-4.1-.17t-4,0q-1.75,0-3,0a22.35,22.35,0,0,0-2.28.17v-1.4a7,7,0,0,0,2.87-1.65,11.19,11.19,0,0,0,2.66-4.45l16.45-42.42h1.12ZM321.46,630v1.4H300.6l.7-1.4Z"
    transform="translate(-105.23 -489.58)" />
  <path
    d="M402,600.56V602a11.94,11.94,0,0,0-3.6.53,2.62,2.62,0,0,0-1.65,1.68,12.7,12.7,0,0,0-.42,3.81V642.7a12.75,12.75,0,0,0,.42,3.78,2.52,2.52,0,0,0,1.65,1.68,14.38,14.38,0,0,0,3.6.56v1.4q-1.47-.14-3.85-.17t-5.11,0q-2.66,0-5.71.1t-6.75.1q-2.17,0-4.17-.07l-3.64-.1q-1.65,0-3,0-2,0-4.83.1t-6.23.1q-3.85,0-6.79-.1t-5.6-.1q-2.73,0-5.11,0t-3.85.17v-1.4a14.4,14.4,0,0,0,3.6-.56,2.52,2.52,0,0,0,1.65-1.68,12.73,12.73,0,0,0,.42-3.78V608a12.69,12.69,0,0,0-.42-3.81,2.62,2.62,0,0,0-1.65-1.68,12,12,0,0,0-3.6-.53v-1.4q1.47.07,3.85.14t5.11.07q2.24,0,4.45-.07l3.74-.14V602a9.11,9.11,0,0,0-3.15.53,2.55,2.55,0,0,0-1.44,1.68,13.79,13.79,0,0,0-.38,3.81V642.7q0,3.85,1,4.94t4.62,1.08h5.53q3.57,0,4.62-1.08t1.05-4.94V608a15.13,15.13,0,0,0-.35-3.81,2.45,2.45,0,0,0-1.4-1.68,9.36,9.36,0,0,0-3.22-.53v-1.4l3.78.14q2.24.07,4.41.07,2.52,0,4.73-.07t3.54-.14V602a9.44,9.44,0,0,0-3.19.53,2.44,2.44,0,0,0-1.44,1.68,15.06,15.06,0,0,0-.35,3.81V642.7q0,3.85,1,4.94t4.62,1.08h5.53q3.57,0,4.62-1.08t1.05-4.94V608a15.13,15.13,0,0,0-.35-3.81,2.45,2.45,0,0,0-1.4-1.68,9.36,9.36,0,0,0-3.22-.53v-1.4l3.78.14q2.24.07,4.41.07,2.73,0,5.11-.07T402,600.56Z"
    transform="translate(-105.23 -489.58)" />
  <path
    d="M442.77,600.56q-.28,2.45-.39,4.76t-.1,3.5q0,1.26.07,2.42t.14,1.92h-1.61a33.59,33.59,0,0,0-1.19-6.54,5.65,5.65,0,0,0-2.62-3.43,12,12,0,0,0-5.56-1h-5.81a12.79,12.79,0,0,0-3.6.39,2.42,2.42,0,0,0-1.65,1.61A12.69,12.69,0,0,0,420,608V642.7a12.73,12.73,0,0,0,.42,3.78,2.42,2.42,0,0,0,1.65,1.65,12.73,12.73,0,0,0,3.6.39h5.11a14.82,14.82,0,0,0,6.69-1.19,6.94,6.94,0,0,0,3.29-3.89,30.65,30.65,0,0,0,1.5-7.31h1.61a47.74,47.74,0,0,0-.21,5q0,1.33.1,3.81t.39,5.15q-3.57-.14-8-.17t-8,0h-5.57q-3.46,0-7.38,0t-7.35.17v-1.4a14.4,14.4,0,0,0,3.6-.56,2.52,2.52,0,0,0,1.65-1.68,12.73,12.73,0,0,0,.42-3.78V608a12.69,12.69,0,0,0-.42-3.81,2.62,2.62,0,0,0-1.65-1.68,12,12,0,0,0-3.6-.53v-1.4l7.35.14q3.92.07,7.38.07h5.57q3.22,0,7.31,0T442.77,600.56Zm-12,23.94v1.4H417.92v-1.4Zm2-9.24q-.28,4-.24,6.09t0,3.85q0,1.75.07,3.85t.35,6.09h-1.61q-.28-2.24-.67-4.37a6.67,6.67,0,0,0-1.68-3.5q-1.3-1.37-4.37-1.37v-1.4q3.08,0,4.3-1.61a8.34,8.34,0,0,0,1.58-3.78q.35-2.17.63-3.85Z"
    transform="translate(-105.23 -489.58)" />
  <path
    d="M505.56,600.56V602a11.94,11.94,0,0,0-3.6.53,2.62,2.62,0,0,0-1.65,1.68,12.7,12.7,0,0,0-.42,3.81V642.7a12.75,12.75,0,0,0,.42,3.78,2.52,2.52,0,0,0,1.65,1.68,14.38,14.38,0,0,0,3.6.56v1.4q-1.61-.14-4-.17t-4.86,0q-2.73,0-5.11,0t-3.85.17v-1.4a14.4,14.4,0,0,0,3.6-.56,2.52,2.52,0,0,0,1.65-1.68,12.75,12.75,0,0,0,.42-3.78V604.2l.28.21-17.15,46.06h-1.12L457.75,605v37a13.59,13.59,0,0,0,.45,4,3.15,3.15,0,0,0,1.82,2,12.35,12.35,0,0,0,4.09.73v1.4q-1.26-.14-3.29-.17t-3.85,0q-1.75,0-3.54,0t-3,.17v-1.4a9.89,9.89,0,0,0,3.6-.73,3.1,3.1,0,0,0,1.65-2,14.66,14.66,0,0,0,.42-4V608a12.69,12.69,0,0,0-.42-3.81,2.62,2.62,0,0,0-1.65-1.68,12,12,0,0,0-3.6-.53v-1.4q1.19.07,3,.14t3.54.07q1.54,0,3.18-.07l2.77-.14,15.89,41.86-1.19.56,15.75-42.21h3.29q2.45,0,4.86-.07T505.56,600.56Z"
    transform="translate(-105.23 -489.58)" />
  <path
    d="M576,600.56V602a11.94,11.94,0,0,0-3.6.53,2.62,2.62,0,0,0-1.65,1.68,12.69,12.69,0,0,0-.42,3.81V642.7a12.73,12.73,0,0,0,.42,3.78,2.52,2.52,0,0,0,1.65,1.68,14.38,14.38,0,0,0,3.6.56v1.4q-1.47-.14-3.85-.17t-5.11,0q-2.38,0-4.83,0t-4.06.17v-1.4a14.39,14.39,0,0,0,3.6-.56,2.52,2.52,0,0,0,1.65-1.68,12.73,12.73,0,0,0,.42-3.78V608q0-3.85-1-4.94T558.13,602H546.72q-3.57,0-4.62,1.08T541,608V642.7a12.73,12.73,0,0,0,.42,3.78,2.52,2.52,0,0,0,1.65,1.68,14.38,14.38,0,0,0,3.6.56v1.4q-1.61-.14-4-.17t-4.87,0q-2.73,0-5.11,0t-3.85.17v-1.4a14.4,14.4,0,0,0,3.6-.56,2.52,2.52,0,0,0,1.65-1.68,12.73,12.73,0,0,0,.42-3.78V608a12.69,12.69,0,0,0-.42-3.81,2.62,2.62,0,0,0-1.65-1.68,12,12,0,0,0-3.6-.53v-1.4q1.47.07,3.85.14t5.11.07q4.13,0,8.19-.1t6.51-.1q2.45,0,6.44.1t8,.1q2.73,0,5.11-.07T576,600.56Z"
    transform="translate(-105.23 -489.58)" />
  <path
    d="M581.86,600.56q1.47.07,3.85.14t4.69.07q3.29,0,6.3-.07t4.27-.07q8.47,0,12.67,3.85a12.87,12.87,0,0,1,4.2,9.94,18.15,18.15,0,0,1-.84,5.29,13.73,13.73,0,0,1-2.9,5.11,14.91,14.91,0,0,1-5.63,3.81,23.88,23.88,0,0,1-9,1.47h-6.72v-1.4h6q5,0,7.59-1.89a9.35,9.35,0,0,0,3.57-5,22.57,22.57,0,0,0,.94-6.65q0-6.65-2.62-9.94t-9-3.29q-3.22,0-4.2,1.19T594,608V642.7a10.33,10.33,0,0,0,.52,3.78,2.9,2.9,0,0,0,2.07,1.68,22.12,22.12,0,0,0,4.48.56v1.4q-1.82-.14-4.62-.17t-5.67,0q-2.73,0-5.11,0t-3.85.17v-1.4a14.39,14.39,0,0,0,3.6-.56,2.52,2.52,0,0,0,1.65-1.68,12.73,12.73,0,0,0,.42-3.78V608a12.69,12.69,0,0,0-.42-3.81,2.62,2.62,0,0,0-1.65-1.68,12,12,0,0,0-3.6-.53Z"
    transform="translate(-105.23 -489.58)" />
  <path
    d="M639.61,600.21l17.08,44a7.36,7.36,0,0,0,2.38,3.53,5.13,5.13,0,0,0,2.45.95v1.4q-1.4-.14-3.43-.17t-4.06,0q-2.73,0-5.11,0t-3.85.17v-1.4q3.57-.14,4.55-1.23t-.42-4.65l-13-34.79,1.12-.91-12.18,31.64a16.21,16.21,0,0,0-1.4,5.92,3.39,3.39,0,0,0,1.61,3,9.37,9.37,0,0,0,4.48,1v1.4q-2-.14-4.09-.17t-4,0q-1.75,0-3,0a22.35,22.35,0,0,0-2.28.17v-1.4a7,7,0,0,0,2.87-1.65,11.19,11.19,0,0,0,2.66-4.45l16.45-42.42h1.12ZM648.15,630v1.4H627.29l.7-1.4Z"
    transform="translate(-105.23 -489.58)" />
  <path
    d="M679.86,599.58q6.23,0,10.12,2.83a8.9,8.9,0,0,1,3.82,7.73,10.34,10.34,0,0,1-1.33,5.25,13.81,13.81,0,0,1-3.46,4,22.18,22.18,0,0,1-4.62,2.8,27.38,27.38,0,0,1-4.79,1.68,25.56,25.56,0,0,1,6,.88,18.67,18.67,0,0,1,5.46,2.42,12.81,12.81,0,0,1,3.92,4,10.45,10.45,0,0,1,1.47,5.6,11.85,11.85,0,0,1-1.58,6.16,13.8,13.8,0,0,1-4.3,4.48,21.16,21.16,0,0,1-6.16,2.77,27,27,0,0,1-7.21.94,21.29,21.29,0,0,1-6.37-.81,18.27,18.27,0,0,1-4-1.71,9.07,9.07,0,0,1-2.34-2.17,4.56,4.56,0,0,1-.94-2.8,3.59,3.59,0,0,1,3.71-3.71,4,4,0,0,1,2.73,1,3.53,3.53,0,0,1,1.12,2.8,3.46,3.46,0,0,1-.8,2.38,3.8,3.8,0,0,1-2.13,1.19,6.77,6.77,0,0,0,3.5,1.85,20.17,20.17,0,0,0,5.74.81q6.23,0,9.17-3.57a13.52,13.52,0,0,0,2.94-8.89,16.3,16.3,0,0,0-1.26-6.54,10.62,10.62,0,0,0-3.74-4.62,10.8,10.8,0,0,0-6.06-1.79,15.13,15.13,0,0,1-1.43.63,4.37,4.37,0,0,1-1.58.28,1.89,1.89,0,0,1-1-.28,1,1,0,0,1-.46-.91q0-1.12,1.47-1.12a9,9,0,0,1,1.61.14l1.47.28a12.87,12.87,0,0,0,5-2.77,9.42,9.42,0,0,0,2.52-4.16,20,20,0,0,0,.74-5.74q0-4.76-1.75-7.35t-6-2.59a9.05,9.05,0,0,0-5.95,2,12.84,12.84,0,0,0-3.68,5,19.66,19.66,0,0,0-1.5,6.44h-1.61q0-4.41,0-7.1t-.1-4.34q-.07-1.64-.21-2.83h1.61a10.7,10.7,0,0,0,.52,2.27,1.11,1.11,0,0,0,1.09.8,5.06,5.06,0,0,0,2.31-1l1.92-1.15a10.61,10.61,0,0,1,2.55-1A15.25,15.25,0,0,1,679.86,599.58Z"
    transform="translate(-105.23 -489.58)" />
  <path
    d="M738,600.56V602a11.94,11.94,0,0,0-3.6.53,2.62,2.62,0,0,0-1.65,1.68,12.69,12.69,0,0,0-.42,3.81V642.7q0,3.85,1,4.94t4.62,1.08h2.17q-.28,2.45-.39,4.76t-.1,3.5a35.34,35.34,0,0,0,.21,4.34h-1.61a34.47,34.47,0,0,0-1.19-6.58,6,6,0,0,0-2.62-3.54,11.27,11.27,0,0,0-5.57-1.08h-20a11.26,11.26,0,0,0-5.56,1.08,5.8,5.8,0,0,0-2.59,3.54,40.11,40.11,0,0,0-1.23,6.58h-1.61a35.08,35.08,0,0,0,.21-4.34q0-1.19-.11-3.5t-.38-4.76h22.47q3.57,0,4.62-1.08t1-4.94V608q0-3.85-1-4.94T720.11,602h-.91a10.22,10.22,0,0,0-3.57.46,2.45,2.45,0,0,0-1.47,1.75,27.05,27.05,0,0,0-.63,3.81q-.42,4.76-.81,10.43t-1.12,11.23a61.72,61.72,0,0,1-2.17,10.19,19.64,19.64,0,0,1-4,7.42,8.44,8.44,0,0,1-6.58,2.8v-1.33a7,7,0,0,0,5.39-2.42,18.25,18.25,0,0,0,3.54-6.54,55.72,55.72,0,0,0,2.13-9.42q.77-5.28,1.19-11t.77-11.34q.21-3.71-.84-4.79T706.25,602v-1.4l3.5.14q2,.07,3.71.07t3.12-.1q1.5-.1,3-.1,2.66,0,4.83.1t5.18.1q1.4,0,2.94,0l3-.07Q737,600.63,738,600.56Z"
    transform="translate(-105.23 -489.58)" />
  <path
    d="M744.4,650.12v-1.4a14.4,14.4,0,0,0,3.6-.56,2.53,2.53,0,0,0,1.65-1.68,12.76,12.76,0,0,0,.42-3.78V608a12.72,12.72,0,0,0-.42-3.81,2.63,2.63,0,0,0-1.65-1.68,12,12,0,0,0-3.6-.53v-1.4q1.47.07,3.85.14t5.11.07q2.45,0,4.87-.07t4-.14V602a12,12,0,0,0-3.61.53,2.62,2.62,0,0,0-1.64,1.68,12.69,12.69,0,0,0-.42,3.81V642.7a12.73,12.73,0,0,0,.42,3.78,2.52,2.52,0,0,0,1.64,1.68,14.39,14.39,0,0,0,3.61.56v1.4q-1.61-.14-4-.17t-4.87,0q-2.73,0-5.11,0T744.4,650.12Zm9.73-24.22v-1.4h27.65v1.4Zm19.53,24.22v-1.4a14.42,14.42,0,0,0,3.61-.56,2.52,2.52,0,0,0,1.64-1.68,12.76,12.76,0,0,0,.42-3.78V608a12.72,12.72,0,0,0-.42-3.81,2.63,2.63,0,0,0-1.64-1.68,12,12,0,0,0-3.61-.53v-1.4q1.61.07,4.06.14t4.83.07q2.73,0,5.11-.07t3.85-.14V602a12,12,0,0,0-3.61.53,2.62,2.62,0,0,0-1.64,1.68,12.72,12.72,0,0,0-.42,3.81V642.7a12.76,12.76,0,0,0,.42,3.78,2.52,2.52,0,0,0,1.64,1.68,14.39,14.39,0,0,0,3.61.56v1.4q-1.47-.14-3.85-.17t-5.11,0q-2.38,0-4.83,0T773.66,650.12Z"
    transform="translate(-105.23 -489.58)" />
  <path
    d="M815.24,600.56V602a11.94,11.94,0,0,0-3.6.53,2.62,2.62,0,0,0-1.65,1.68,12.69,12.69,0,0,0-.42,3.81V642.7a12.73,12.73,0,0,0,.42,3.78,2.52,2.52,0,0,0,1.65,1.68,14.38,14.38,0,0,0,3.6.56v1.4q-1.61-.14-4-.17t-4.87,0q-2.73,0-5.11,0t-3.85.17v-1.4a14.4,14.4,0,0,0,3.61-.56,2.52,2.52,0,0,0,1.64-1.68,12.7,12.7,0,0,0,.42-3.78V608a12.65,12.65,0,0,0-.42-3.81,2.62,2.62,0,0,0-1.64-1.68,12,12,0,0,0-3.61-.53v-1.4q1.47.07,3.85.14t5.11.07q2.45,0,4.87-.07T815.24,600.56Zm19.67,4.62q-.14,1.47-.21,3l-28,39.69.21-3Zm11-4.62V602a11.94,11.94,0,0,0-3.6.53,2.62,2.62,0,0,0-1.65,1.68,12.68,12.68,0,0,0-.42,3.81V642.7a12.73,12.73,0,0,0,.42,3.78,2.52,2.52,0,0,0,1.65,1.68,14.38,14.38,0,0,0,3.6.56v1.4q-1.47-.14-3.85-.17t-5.11,0q-2.38,0-4.83,0t-4.06.17v-1.4a14.4,14.4,0,0,0,3.61-.56,2.52,2.52,0,0,0,1.64-1.68,12.73,12.73,0,0,0,.42-3.78V608a12.69,12.69,0,0,0-.42-3.81,2.62,2.62,0,0,0-1.64-1.68A12,12,0,0,0,828,602v-1.4q1.61.07,4.06.14t4.83.07q2.73,0,5.11-.07T845.9,600.56Z"
    transform="translate(-105.23 -489.58)" />
  <path
    d="M869.63,600.56V602a12,12,0,0,0-3.61.53,2.62,2.62,0,0,0-1.64,1.68A12.69,12.69,0,0,0,864,608V642.7a12.73,12.73,0,0,0,.42,3.78,2.52,2.52,0,0,0,1.64,1.68,14.39,14.39,0,0,0,3.61.56v1.4q-1.61-.14-4-.17t-4.87,0q-2.73,0-5.11,0t-3.85.17v-1.4a14.4,14.4,0,0,0,3.6-.56,2.53,2.53,0,0,0,1.65-1.68,12.76,12.76,0,0,0,.42-3.78V608a12.72,12.72,0,0,0-.42-3.81,2.63,2.63,0,0,0-1.65-1.68,12,12,0,0,0-3.6-.53v-1.4q1.47.07,3.85.14t5.11.07q2.45,0,4.87-.07T869.63,600.56Zm-.77,23.24a30.2,30.2,0,0,1,7,.77,12,12,0,0,1,5.56,2.94,12.4,12.4,0,0,1,3.29,6.44l2,8.82a24.58,24.58,0,0,0,1.4,4.52,2.1,2.1,0,0,0,2.17,1.23,3.23,3.23,0,0,0,2-.77,12.83,12.83,0,0,0,1.71-1.89l1.05.77a14.07,14.07,0,0,1-2.94,3.22,7.23,7.23,0,0,1-4.55,1.26,7.44,7.44,0,0,1-4.45-1.44q-2-1.43-3-6.12l-2-8.68a33.94,33.94,0,0,0-1.47-5.11,7,7,0,0,0-2.66-3.4,9.7,9.7,0,0,0-5.39-1.23h-6V623.8Zm-4.9,1.33V623.8a10.21,10.21,0,0,0,4.94-1.23,11.6,11.6,0,0,0,3.32-2.83l6.72-8.54a22.64,22.64,0,0,0,3.15-5q.84-2-.07-3.11T878.17,602v-1.4l4.13.14q2.1.07,3.92.07,3.85,0,6-.21V602a11.39,11.39,0,0,0-4.2,1.44,14.84,14.84,0,0,0-4.06,3.68L869.7,625.13Z"
    transform="translate(-105.23 -489.58)" />
  <path
    d="M934.16,600.56q-.28,2.45-.38,4.76t-.11,3.5q0,1.26.07,2.42t.14,1.92h-1.61a33.55,33.55,0,0,0-1.19-6.54,5.65,5.65,0,0,0-2.62-3.43,12,12,0,0,0-5.56-1h-5.81a12.79,12.79,0,0,0-3.6.39,2.42,2.42,0,0,0-1.65,1.61,12.72,12.72,0,0,0-.42,3.81V642.7a12.76,12.76,0,0,0,.42,3.78,2.42,2.42,0,0,0,1.65,1.65,12.73,12.73,0,0,0,3.6.39h5.11a14.81,14.81,0,0,0,6.68-1.19,6.94,6.94,0,0,0,3.29-3.89,30.6,30.6,0,0,0,1.5-7.31h1.61a47.58,47.58,0,0,0-.21,5q0,1.33.11,3.81t.38,5.15q-3.57-.14-8-.17t-8,0H914q-3.46,0-7.38,0t-7.35.17v-1.4a14.41,14.41,0,0,0,3.61-.56,2.52,2.52,0,0,0,1.64-1.68,12.73,12.73,0,0,0,.42-3.78V608a12.69,12.69,0,0,0-.42-3.81,2.62,2.62,0,0,0-1.64-1.68,12,12,0,0,0-3.61-.53v-1.4l7.35.14q3.92.07,7.38.07h5.57q3.22,0,7.31,0T934.16,600.56Zm-12,23.94v1.4H909.31v-1.4Zm2-9.24q-.28,4-.24,6.09t0,3.85q0,1.75.07,3.85t.35,6.09h-1.61q-.28-2.24-.66-4.37a6.69,6.69,0,0,0-1.68-3.5q-1.3-1.37-4.37-1.37v-1.4q3.08,0,4.3-1.61a8.34,8.34,0,0,0,1.57-3.78q.35-2.17.63-3.85Z"
    transform="translate(-105.23 -489.58)" />
  <path
    d="M948.09,642.14a4.54,4.54,0,1,1-3.15,1.33A4.31,4.31,0,0,1,948.09,642.14Zm0-46.76a3.17,3.17,0,0,1,2.28.91,4,4,0,0,1,.95,3q0,2.73-.39,6.79t-.91,9q-.53,4.94-.91,10.36t-.39,11h-1.26q0-5.53-.39-11t-.91-10.36q-.53-4.94-.91-9t-.38-6.79a4.05,4.05,0,0,1,.94-3A3.17,3.17,0,0,1,948.09,595.38Z"
    transform="translate(-105.23 -489.58)" />
</svg>