<svg xmlns="http://www.w3.org/2000/svg" id="Слой_1" data-name="Слой 1" viewBox="0 0 901.2 449.73">
  <defs>
    <style>
      .cls-1 {
        fill: #fff;
      }

      .cls-2 {
        opacity: 0.12;
      }
    </style>
  </defs>
  <title>До свадьбы</title>
  <path class="cls-1"
    d="M-774.52,690.26c0-8.8,6.41-21.23,21.4-21.23,12.22,0,21.34,7.71,21.34,20.36,0,12.16-8.58,22.21-21.67,22.21C-768.33,711.6-774.52,700-774.52,690.26Zm37.53.65c0-13-7.93-20-16.51-20-9.07,0-15.86,6-15.86,17.87,0,12.65,7.6,20.8,17.38,20.8C-747.1,709.54-737,706.71-737,690.91Z"
    transform="translate(1025.52 -261.87)" />
  <path class="cls-1"
    d="M-712.5,705.74c-5.27-4.72-6.57-10.92-6.57-16.07A21.68,21.68,0,0,1-713,674.84c3.26-3.26,8.2-5.81,16.56-5.81a46.55,46.55,0,0,1,7.87.65c2.06.38,3.75.54,5.76.81a.51.51,0,0,1,.49.6c0,.43-.16,1.09-.27,3-.11,1.79-.11,4.78-.16,5.59s-.16,1.14-.49,1.14-.43-.38-.43-1.14a7.52,7.52,0,0,0-2.28-5.54c-1.9-1.63-6.08-3.1-10.86-3.1-7.22,0-10.59,2.12-12.49,4-4,3.8-4.89,8.63-4.89,14.17a19.61,19.61,0,0,0,19.6,19.88c4.07,0,7.28-.49,9.45-2.72a10.34,10.34,0,0,0,2-4.56c.11-.6.22-.81.54-.81s.38.38.38.81a56.33,56.33,0,0,1-1.19,7c-.33,1-.43,1.14-1.41,1.58-2.17.87-6.3,1.25-9.77,1.25C-702.73,711.6-708.21,709.59-712.5,705.74Z"
    transform="translate(1025.52 -261.87)" />
  <path class="cls-1"
    d="M-650.32,695.09c0,5.21,0,9.5.27,11.78.16,1.57.49,2.77,2.12,3a23.75,23.75,0,0,0,2.44.22c.33,0,.43.16.43.33s-.27.43-.87.43c-3,0-6.41-.16-6.68-.16s-3.69.16-5.32.16c-.6,0-.87-.11-.87-.43,0-.16.11-.33.43-.33a8.4,8.4,0,0,0,1.63-.22c1.09-.22,1.36-1.41,1.57-3,.27-2.28.27-6.57.27-11.78v-23c-2.66.05-5.38.05-8,.11-3.37.05-4.67.43-5.54,1.74a9.53,9.53,0,0,0-.92,1.68c-.16.43-.33.54-.54.54s-.27-.16-.27-.49c0-.54,1.09-5.21,1.19-5.65s.33-1,.54-1a10.16,10.16,0,0,0,2.39.65c1.57.16,3.64.27,4.29.27h20.36a21.7,21.7,0,0,0,3.86-.27c.81-.11,1.3-.27,1.52-.27s.27.33.27.65c0,1.63-.16,5.38-.16,6s-.16.71-.38.71-.38-.16-.43-.92c0-.22-.05-.38-.05-.6-.16-1.63-1.47-2.88-6.68-3-2.28-.05-4.56-.05-6.84-.11Z"
    transform="translate(1025.52 -261.87)" />
  <path class="cls-1"
    d="M-619.36,694.82a.57.57,0,0,0-.54.43l-3.26,9.61a11.46,11.46,0,0,0-.76,3.64c0,1.09,1,1.58,2,1.58h.49c.54,0,.71.11.71.33s-.49.43-1,.43c-1.3,0-3.48-.16-4.07-.16s-3.58.16-6.14.16c-.71,0-1-.11-1-.43s.27-.33.76-.33a11.5,11.5,0,0,0,1.3-.11c2.5-.33,3.58-2.39,4.56-5.1L-614,671.14c.65-1.79.87-2.12,1.19-2.12s.54.27,1.19,2c.81,2.06,9.34,24.49,12.65,32.75,2,4.83,3.53,5.7,4.67,6a7.16,7.16,0,0,0,2.12.33c.33,0,.6.05.6.33s-.49.43-1.09.43c-.81,0-4.78,0-8.53-.11-1-.05-1.63-.05-1.63-.38s.16-.33.38-.38.65-.6.33-1.47l-5.05-13.36a.48.48,0,0,0-.49-.33Zm11-2c.27,0,.27-.16.22-.38l-5.16-14.66q-.41-1.22-.81,0l-4.78,14.66c-.11.27,0,.38.16.38Z"
    transform="translate(1025.52 -261.87)" />
  <path class="cls-1"
    d="M-578.41,704.87a11.46,11.46,0,0,0-.76,3.64c0,1.09,1,1.58,2,1.58h.49c.54,0,.71.11.71.33s-.49.43-1,.43c-1.3,0-3.48-.16-4.07-.16s-3.58.16-6.14.16c-.71,0-1-.11-1-.43s.27-.33.76-.33a11.5,11.5,0,0,0,1.3-.11c2.5-.33,3.58-2.39,4.56-5.1l12.33-33.72c.65-1.79.87-2.12,1.19-2.12s.54.27,1.19,2c.81,2.06,9.34,24.49,12.65,32.75,2,4.83,3.53,5.7,4.67,6a7.16,7.16,0,0,0,2.12.33c.33,0,.6.05.6.33s-.49.43-1.09.43c-.81,0-4.78,0-8.53-.11-1-.05-1.63-.05-1.63-.38s.16-.33.38-.38.65-.6.33-1.47l-11.24-30.41q-.41-1.22-.81,0Z"
    transform="translate(1025.52 -261.87)" />
  <path class="cls-1"
    d="M-539.2,690.26c0-8.8,6.41-21.23,21.4-21.23,12.22,0,21.34,7.71,21.34,20.36,0,12.16-8.58,22.21-21.67,22.21C-533,711.6-539.2,700-539.2,690.26Zm37.53.65c0-13-7.93-20-16.51-20-9.07,0-15.86,6-15.86,17.87,0,12.65,7.6,20.8,17.38,20.8C-511.77,709.54-501.67,706.71-501.67,690.91Z"
    transform="translate(1025.52 -261.87)" />
  <path class="cls-1"
    d="M-477.18,705.74c-5.27-4.72-6.57-10.92-6.57-16.07a21.68,21.68,0,0,1,6.08-14.83c3.26-3.26,8.2-5.81,16.56-5.81a46.55,46.55,0,0,1,7.87.65c2.06.38,3.75.54,5.76.81a.51.51,0,0,1,.49.6c0,.43-.16,1.09-.27,3-.11,1.79-.11,4.78-.16,5.59s-.16,1.14-.49,1.14-.43-.38-.43-1.14a7.52,7.52,0,0,0-2.28-5.54c-1.9-1.63-6.08-3.1-10.86-3.1-7.22,0-10.59,2.12-12.49,4-4,3.8-4.89,8.63-4.89,14.17a19.61,19.61,0,0,0,19.6,19.88c4.07,0,7.28-.49,9.45-2.72a10.34,10.34,0,0,0,2-4.56c.11-.6.22-.81.54-.81s.38.38.38.81a56.33,56.33,0,0,1-1.19,7c-.33,1-.43,1.14-1.41,1.58-2.17.87-6.3,1.25-9.77,1.25C-467.4,711.6-472.89,709.59-477.18,705.74Z"
    transform="translate(1025.52 -261.87)" />
  <path class="cls-1"
    d="M-432.8,710.84c-.6,0-.87-.11-.87-.43,0-.16.22-.33.65-.33a7.16,7.16,0,0,0,1.47-.11c1.09-.22,1.3-1.52,1.52-3.1.27-2.28.27-6.57.27-11.78v-9.56c0-8.47,0-10-.11-11.73s-.65-2.77-1.85-3a7.14,7.14,0,0,0-1.68-.22c-.22,0-.43-.11-.43-.33s.27-.43.87-.43c1.79,0,5.05.16,5.32.16s3.64-.16,5.27-.16c.6,0,.87.11.87.43s-.22.33-.43.33a8.1,8.1,0,0,0-1.36.16c-1.47.27-1.9,1.19-2,3.1-.11,1.74-.11,3.26-.11,11.73v1.41c0,.22.05.27.22.27h1.47c6.25,0,9,.76,11.35,2a10.73,10.73,0,0,1,6,9.94c0,5.21-4.13,11.84-13.41,11.84-2.17,0-6.19-.33-7.77-.33C-427.86,710.68-431.17,710.84-432.8,710.84Zm7.39-18.14c0,5.48,0,10.37.11,12.92a2.85,2.85,0,0,0,1.47,2.72,10.94,10.94,0,0,0,4.83.92c4.45,0,7.82-2.77,7.82-8.85,0-3.8-1-6.84-4-9.18-2.23-1.79-5.59-2.39-10-2.28a.25.25,0,0,0-.22.27Z"
    transform="translate(1025.52 -261.87)" />
  <path class="cls-1"
    d="M-760.14,384.07c-4.82,35.77-18.36,67.89-41.16,96a135.71,135.71,0,0,1-42.22,35.19c-20.08,10.56-41.38,13.7-63.66,9.89-10.86-1.86-21.64-4.18-32.41-6.53-12.2-2.66-24.44-5-36.92-5.78-.91-.07-1.81-.1-2.71-.21a8.23,8.23,0,0,0-7.26,2.65,135.86,135.86,0,0,1-11.09,9.54,38.65,38.65,0,0,1-12.29,6.79,25.07,25.07,0,0,1-7.41,1.34c-7,0-10.35-5.95-6.88-12a18.09,18.09,0,0,1,6.54-6.36,34.69,34.69,0,0,1,11.55-4.54c5.14-1,10.31-1.9,15.52-2.39a8.9,8.9,0,0,0,6.53-3.2c3.14-3.74,6.49-7.29,9.59-11.07,16.06-19.59,30.86-40.14,45.7-60.66.32-.44.53-.95,1.06-1.9-1.32-.71-2.26-1.22-3.2-1.71-21.93-11.35-33.5-29.65-35.7-54-1.46-16.22,2.86-31.21,11.19-45,9.89-16.42,23.38-29.35,39.62-39.42a125,125,0,0,1,54.45-18.54c15.24-1.47,30.34-.57,45.06,4.13.68.22,1.38.36,2.35.6,1.33-1.1,2.65-2.29,4.08-3.35,4.06-3,8.1-6.06,12.3-8.85a16.45,16.45,0,0,1,8.7-2.73,6,6,0,0,1,5.24,2.29,4.25,4.25,0,0,1-.64,6.25c-.6.5-1.92.93-2.4.61-2.27-1.48-4.23-.44-6.11.56a48.3,48.3,0,0,0-11.88,8.88c1,.7,1.83,1.36,2.73,1.86,20.16,11.12,32.36,28.38,38.63,50.16C-758.38,349.44-757.81,366.73-760.14,384.07ZM-994,513.28a4.27,4.27,0,0,0-1.45-.41c-4.88.41-9.73,1-14.29,2.88a51.15,51.15,0,0,0-7.15,3.74,8.82,8.82,0,0,0-3.66,4.57,2.44,2.44,0,0,0,2.16,3.47,17.75,17.75,0,0,0,4.29-.37C-1007.93,525.83-998.37,519.21-994,513.28ZM-764,364.61a100,100,0,0,0-6.52-37.72C-777.3,309-788.71,295-805.83,286a37.61,37.61,0,0,0-3.52-1.41c-4.92,3.71-8.84,8.22-12.73,12.73a564,564,0,0,0-38.72,49.58c-7.26,10.6-14.22,21.39-21.58,31.91-10.87,15.57-22,31-32.95,46.47-.88,1.26-2.27,2.3-2.22,4.32,4.16,1.53,8.48,1.72,12.78,1.92,11.14.5,22-1.6,32.75-4s21.38-5.41,32.09-8c6.14-1.51,12.29-3.09,18.65-3.37a20.4,20.4,0,0,1,5.34.45,4.46,4.46,0,0,1,3.36,3.86,5.35,5.35,0,0,1-5.63,6.32c-3-.09-5.06-1.64-6.35-4.54a25.22,25.22,0,0,0-9.6.37c-8.46,1.91-16.93,3.79-25.36,5.83-11.78,2.85-23.56,5.6-35.69,6.63a77.08,77.08,0,0,1-22.11-1.23c-1.2-.25-2.42-.39-3.87-.61-18.1,24.76-36.06,49.47-55.93,72.72a.88.88,0,0,0-.13.51c0,.16,0,.33.09.9a21.26,21.26,0,0,0,2.38.39A228,228,0,0,1-941.49,512c10.8,2.18,21.58,4.52,32.39,6.68a104,104,0,0,0,27,2.15A95.89,95.89,0,0,0-840.5,508a129.09,129.09,0,0,0,41.19-37.13C-776.29,439.27-764.6,403.75-764,364.61ZM-925.2,427.39c1.25-1.57,2.29-2.79,3.25-4.09,17.63-23.89,34.59-48.23,50.57-73.24a531.92,531.92,0,0,1,50.82-66.93,25.42,25.42,0,0,0,1.63-2.29c-1.1-.45-1.91-.87-2.76-1.11a90.45,90.45,0,0,0-20.83-3.36,123.48,123.48,0,0,0-40.7,5.33,121.74,121.74,0,0,0-62.6,42.69A78.54,78.54,0,0,0-961,355.91c-4.91,22.32.34,41.93,16,58.61A50.7,50.7,0,0,0-925.2,427.39Z"
    transform="translate(1025.52 -261.87)" />
  <path class="cls-1"
    d="M-703.25,448.6a9.22,9.22,0,0,1-2.2,1.71c-4,2-7.93,4-12,5.75a34,34,0,0,1-14.17,2.76c-.94,0-1.87,0-2.84,0-.84,1.39-1.63,2.64-2.38,3.91a75.63,75.63,0,0,1-19.47,21.36,38.7,38.7,0,0,1-5.13,3.19,12.22,12.22,0,0,1-3.39,1.24c-4.11.86-7.19-1.23-8-5.37a18.19,18.19,0,0,1,.57-8.38,53.63,53.63,0,0,1,10-18.76c2-2.52,4.16-4.93,6.25-7.4.87-1,1.76-2,2.78-3.23l-.71-3c-1-4.21-.82-8.29,1.55-12.07a14.16,14.16,0,0,1,8.49-6.41,11.55,11.55,0,0,1,13.82,6.28,20.57,20.57,0,0,1,1.45,13,75.57,75.57,0,0,1-2.51,8.49c-.35,1.12-.84,2.2-1.45,3.77A27.34,27.34,0,0,0-719,453.64a68.08,68.08,0,0,0,10.77-5.49,23.5,23.5,0,0,1,3.61-1.76,1.69,1.69,0,0,1,1.41.44A1.16,1.16,0,0,1-703.25,448.6ZM-738.6,458c-1.89-1-3.58-1.79-5.14-2.78s-3.24-2.35-5.23-3.8c-5.62,7.3-11.39,14-15.73,21.79a44.72,44.72,0,0,0-2.73,6.68,8.42,8.42,0,0,0-.36,2.77,1.87,1.87,0,0,0,2.08,1.93,10.56,10.56,0,0,0,5.28-1.77,39.82,39.82,0,0,0,9.63-7.87,99.66,99.66,0,0,0,11.11-14.78C-739.29,459.53-739,458.82-738.6,458Zm6.46-19.82a8.88,8.88,0,0,0-.15-2.41,26.41,26.41,0,0,0-1.77-5.31c-1.78-3.36-4.73-4.58-8.49-3.93-5.59,1-11.71,7.44-8.12,16.28l2.18-1.64c.75-.56,1.48-1.17,2.28-1.66a6.23,6.23,0,0,1,1.84-.76,2,2,0,0,1,2.39,2.05c0,1.59-1,2.73-1.78,4-.95,1.57-2.54,2.75-3,4.59,3.31,3.34,6.07,4.79,10.08,5.23C-734.17,449.46-732.2,444.09-732.14,438.19Z"
    transform="translate(1025.52 -261.87)" />
  <path class="cls-1"
    d="M-581.11,446.19c.48,1.27-.58,1.94-1.25,2.74-.25.31-.56.58-.84.86a160.46,160.46,0,0,1-46.36,31.82,86.24,86.24,0,0,1-8.75,3,10.39,10.39,0,0,1-2.38.44A8.49,8.49,0,0,1-650,478.9a8,8,0,0,1-.39-1.56c-.12-1.07-.16-2.15-.24-3.22a26,26,0,0,1,1.77-9.08c5.16-13.52,12.35-25.7,23.76-35a60.2,60.2,0,0,1,6.57-4.67,31.62,31.62,0,0,1,5.5-2.48c4.83-1.79,10.42-.17,12.45,6.81a12.31,12.31,0,0,1-1.36,10.13,6.08,6.08,0,0,1-1.54,1.82,2.17,2.17,0,0,1-1.8.31,2,2,0,0,1-.86-1.6c0-.92.48-1.81.59-2.74a22.25,22.25,0,0,0,.28-4.8c-.36-3.34-2.87-4.9-6.09-3.85a20.28,20.28,0,0,0-4,2,37,37,0,0,0-8.35,7,64.88,64.88,0,0,0-5.65,6.84,139.66,139.66,0,0,0-12.81,22.85,52.9,52.9,0,0,0-2.22,6.9,6.83,6.83,0,0,0-.2,2.4c.19,2.43,1.42,3.56,3.9,3.75a14,14,0,0,0,6.29-1.23,125.91,125.91,0,0,0,21.59-10.9,197.7,197.7,0,0,0,22.5-17.07c1.92-1.67,3.89-3.33,5.92-4.87C-582.92,445.5-581.37,445.4-581.11,446.19Z"
    transform="translate(1025.52 -261.87)" />
  <path class="cls-1"
    d="M-466.31,340.45a21,21,0,0,1-3.56,9.35,68,68,0,0,1-10.46,12.79c-7.65,7.39-15.37,14.71-22.89,22.24-18.38,18.41-38.06,35.39-57.62,52.49a141.38,141.38,0,0,1-21.38,15.86c-2.35,1.39-4,3.73-5.57,7.47,1.07-.69,1.82-1.16,2.56-1.66A88.69,88.69,0,0,1-568,449.37a25.45,25.45,0,0,1,5-1.57c4.57-.8,7.56,1.3,8.61,5.78a15.48,15.48,0,0,1-.08,7.21c-.74,3-1.81,5.89-2.8,8.82-.38,1.12-1,2.19-1.62,3.65a13,13,0,0,0,2.53-.38,90.81,90.81,0,0,0,18.65-9.53q4.85-3.29,9.48-6.88A36.24,36.24,0,0,0-519.08,446c1.21-.1,1.53.72,1.41,1.53a5.65,5.65,0,0,1-1,2.59c-4.52,5.86-8.7,12-15.08,16.14-4.42,2.83-8.86,5.63-13.43,8.2a44,44,0,0,1-13.21,4.87,9.22,9.22,0,0,0-5.64,3.49,107.58,107.58,0,0,1-15.61,15.76,54.35,54.35,0,0,1-13,8.08,25.57,25.57,0,0,1-13,2.16c-6.81-.76-12-5.12-13.61-11.45a13.4,13.4,0,0,1,1.59-10.49,17.29,17.29,0,0,1,10.77-8c1.55-.44,3.11-.8,4.78-1.22,1.22-2.26,2.55-4.44,3.63-6.74A142.64,142.64,0,0,1-588.89,451c13.21-19.35,26.86-38.39,41.32-56.85a384.87,384.87,0,0,1,31.88-36.48,176.33,176.33,0,0,1,16-14.15A80.67,80.67,0,0,1-484.22,334a26.85,26.85,0,0,1,9.29-2.58C-469.4,331-465.76,334.73-466.31,340.45ZM-574.7,482.51c-.49-.25-.72-.48-.93-.46-6.86.6-13.69-.19-20.52-.5a12,12,0,0,0-4.85.31c-.65,1-1.28,2-2,3a9.46,9.46,0,0,1-1.87,2.07,2.33,2.33,0,0,1-1.82.22c-.33-.1-.63-.85-.67-1.32a26.61,26.61,0,0,1,.21-3.07c-3,.65-4.07,1.06-5.54,2.28-3.75,3.11-5.31,7.08-4.09,11.84s4.34,7.25,9,8.09a12.5,12.5,0,0,0,5.58-.22,33.89,33.89,0,0,0,12.86-6.46,80.81,80.81,0,0,0,13.66-14.18C-575.26,483.64-575,483-574.7,482.51Zm-21.76-6.38c-.21.22-.61.69-1.08,1.27a24.2,24.2,0,0,0,2.49.22c2.83.09,5.65.31,8.47.17,4.7-.22,9.39-.65,14.08-1a3.72,3.72,0,0,0,3.29-2c2-3.8,4.14-7.54,5.94-11.44a14.41,14.41,0,0,0,1.28-8.65,13.17,13.17,0,0,0-2.28.2c-1.94.53-3.9,1-5.77,1.77C-580.65,460.73-588.83,468.05-596.46,476.13Zm126.24-137c0-2.87-1.18-4-4-3.75a14.09,14.09,0,0,0-4.3,1,62.54,62.54,0,0,0-7.54,3.81,120.75,120.75,0,0,0-18.85,14.5c-9.27,8.49-17.25,18.13-25.09,27.91-15.72,19.67-30.65,39.93-45.63,60.16-.39.54-2,2.94-2.35,3.48.15.2.95-.72,1.67-1.24,1-.79,2.11-1.53,3.09-2.38q10.51-9.15,21-18.33c8.81-7.73,17.78-15.27,26.32-23.27,14.94-14,29.65-28.19,44.42-42.34a45.11,45.11,0,0,0,8.4-10.8,37.67,37.67,0,0,0,2.39-5.53A9.1,9.1,0,0,0-470.22,339.12Z"
    transform="translate(1025.52 -261.87)" />
  <path class="cls-1"
    d="M-438.64,447.13a14.62,14.62,0,0,1-2.19,2.84c-3.78,3.66-7.55,7.31-11.42,10.86-6,5.56-12.09,11.12-18.3,16.49a118.76,118.76,0,0,1-10.59,8.06,39.93,39.93,0,0,1-7.13,3.74,18.19,18.19,0,0,1-5.06,1.21c-3.9.44-6.77-1.24-8.65-4.65a22,22,0,0,1-2.51-13.27,44.77,44.77,0,0,1,2.53-11c.35-.95,1-1.87.75-3.06-1.54.14-2.38,1.27-3.45,2-4,2.78-7.89,5.62-11.89,8.36a25.72,25.72,0,0,1-3.92,2.06,10.63,10.63,0,0,1-2.7.81c-4.9.75-7.89-1.72-7.85-6.66a15.17,15.17,0,0,1,.86-5.14,42.14,42.14,0,0,1,3.52-7.67,43.58,43.58,0,0,1,21.47-18.23,29.22,29.22,0,0,1,6.21-1.69c4.52-.71,8.27.5,10.6,4.79.12.21.39.34.81.69.8-.79,1.57-1.65,2.44-2.4,1.72-1.5,3.43-3,5.26-4.37a7.5,7.5,0,0,1,3-1.2,3.11,3.11,0,0,1,3.71,3.58,6.62,6.62,0,0,1-1.23,2.9c-1.13,1.5-2.49,2.83-3.77,4.2-3.84,4.15-7.81,8.19-11.51,12.45A41.74,41.74,0,0,0-498,467.55c-1.33,4.14-2.11,8.36-1.31,12.73.12.65.21,1.33.38,2,1.22,4.4,3.39,5.75,7.84,4.49A23.58,23.58,0,0,0-484.8,484a88.49,88.49,0,0,0,9.83-7c10.78-9.15,21.42-18.46,31.51-28.38a35,35,0,0,1,3.37-2.85,1.15,1.15,0,0,1,1.1,0C-438.72,446.13-438.44,446.84-438.64,447.13Zm-58.75,3.24a7.19,7.19,0,0,0,1.75-1.65c2-2.71,3.86-5.47,5.77-8.17-2.72-3.23-4.28-3.72-7.67-2.16a32.76,32.76,0,0,0-4.85,2.85c-7.85,5.4-14,12.47-19.67,20a18.4,18.4,0,0,0-1.58,2.79,1.52,1.52,0,0,0,.14,2.06,14.33,14.33,0,0,0,2.85-.68,37.27,37.27,0,0,0,5.73-2.94C-509,458.55-503.19,454.45-497.39,450.37Z"
    transform="translate(1025.52 -261.87)" />
  <path class="cls-1"
    d="M-348.91,447.38c0,.23-.29.44-.49.62s-.6.55-.92.8c-12.25,9.52-24.7,18.66-38.8,25.37q-19.71,9.36-40.1,17.12a14.53,14.53,0,0,0-5.86,4.06q-14.82,16.57-28.9,33.77-10.49,12.82-21.27,25.41a279.39,279.39,0,0,1-29.46,29.93,111.35,111.35,0,0,1-17,12.31,61.82,61.82,0,0,1-17.08,7.14,31.59,31.59,0,0,1-8.82.75,19.83,19.83,0,0,1-18.13-13.76,32,32,0,0,1-.26-19.1A53.49,53.49,0,0,1-564.7,551a92.21,92.21,0,0,1,19.47-16.89A200.67,200.67,0,0,1-523.32,522c13.81-6.79,28.21-12.06,42.78-16.93,11.36-3.8,22.67-7.76,34-11.59a12.34,12.34,0,0,0,5.62-3.69c4.94-5.7,10-11.26,15.07-16.88.62-.7,1.17-1.45,2.13-2.64-1.41.36-2.29.53-3.13.82a44.47,44.47,0,0,1-9.45,2.07,17.23,17.23,0,0,1-6.8-.53c-4.49-1.31-6.62-4.34-6.31-9.06a21.57,21.57,0,0,1,2-7.38,51.84,51.84,0,0,1,6.91-11.36,68.17,68.17,0,0,1,14.83-13.61,41.47,41.47,0,0,1,12.43-5.7,21.92,21.92,0,0,1,8.41-.57,14.22,14.22,0,0,1,9.34,5.12,8.3,8.3,0,0,1,1.63,3.18,2.22,2.22,0,0,1-2.87,2.71c-.89-.27-1.73-.73-2.61-1.08a15.59,15.59,0,0,0-9.91-.58,42.9,42.9,0,0,0-6.12,2,61.35,61.35,0,0,0-21.05,14.69A33.36,33.36,0,0,0-443.21,462c-1.52,4-.44,5.54,3.75,5.83a29.38,29.38,0,0,0,9.19-1.06,56.87,56.87,0,0,0,13.45-5.44,24.78,24.78,0,0,0,6.31-5c5.67-6.13,11.45-12.18,17.19-18.24a43.31,43.31,0,0,1,8.71-7.18,20.87,20.87,0,0,1,3.25-1.58,2.17,2.17,0,0,1,2.56.67,2.36,2.36,0,0,1,.26,2.66,9.65,9.65,0,0,1-1.33,2c-1.4,1.64-2.87,3.22-4.28,4.85-12.58,14.58-26.14,28.27-38.94,42.63-.85,1-2,1.72-2.38,3.09,1.12.54,1.93-.2,2.75-.52,12.4-4.89,24.67-10.13,36.55-16.17a196.43,196.43,0,0,0,26.81-16.49c2.39-1.75,4.79-3.49,7.2-5.21a10.44,10.44,0,0,1,2.11-1.17,1.09,1.09,0,0,1,1,.26A2.43,2.43,0,0,1-348.91,447.38Zm-100.55,51.48c-1.58.45-2.59.69-3.57,1q-15.31,5.12-30.6,10.29a370,370,0,0,0-40.1,16,155.12,155.12,0,0,0-23.1,13.22A76.14,76.14,0,0,0-562,553.17a51.52,51.52,0,0,0-9.89,18.36,27.15,27.15,0,0,0,.23,17.45c2.82,7.58,9.12,11.4,17.11,10.39a34.24,34.24,0,0,0,11.94-3.54,122.07,122.07,0,0,0,10.75-6.37A122.29,122.29,0,0,0-516,576.32a360.84,360.84,0,0,0,28.78-31.13q18.45-22.23,36.79-44.53A16.59,16.59,0,0,0-449.45,498.86Z"
    transform="translate(1025.52 -261.87)" />
  <path class="cls-1"
    d="M-303,447.06a10,10,0,0,1-1.06,1.71,69.53,69.53,0,0,1-28.67,24.17,12.66,12.66,0,0,1-1.47.67,9.56,9.56,0,0,0-5.81,5.12,35.3,35.3,0,0,1-11.44,12.86,22.86,22.86,0,0,1-5.7,3c-5.38,1.73-10.89-.51-12-7.14a23.31,23.31,0,0,1,.68-10A59.93,59.93,0,0,1-362.46,463a97.91,97.91,0,0,1,20.19-25.56c1.62-1.42,3.31-2.76,5-4a17.24,17.24,0,0,1,3.14-1.8c1.42-.63,2.66-.44,3.35.44a2.72,2.72,0,0,1,0,3.39,34.82,34.82,0,0,1-3.44,4.45c-2.59,2.75-5.34,5.34-7.92,8.08s-5.26,5.77-7.87,8.68c-.53.59-1,1.23-1.5,1.86l.45.49c.85-.36,1.68-.76,2.55-1.07a8.82,8.82,0,0,1,11.93,8.2c0,1.58,0,3.18,0,5.1a28.72,28.72,0,0,0,3.14-1.11A65.3,65.3,0,0,0-313,455c2.25-2.5,4.39-5.11,6.6-7.64.69-.8,1.46-1.52,2.12-2.17C-303.08,445.55-302.68,446.16-303,447.06Zm-40.38,31.07c.1-.19,0-.51-.08-.92-1.58,0-3.19.09-4.78,0a8,8,0,0,1-7.84-8.11c0-1.18,0-2.36,0-3.54-.14,0-.34,0-.38.05a49.52,49.52,0,0,0-7.19,14.8,21.67,21.67,0,0,0-.72,6.76c.16,3.27,2.26,4.77,5.53,4.16a15.21,15.21,0,0,0,4.51-1.64C-349.53,487-346.14,482.85-343.42,478.13Zm3.52-12.37a4.45,4.45,0,0,0-5.69-3.7,8.17,8.17,0,0,0-6.21,6.26,4.36,4.36,0,0,0,4.14,5.63A15,15,0,0,0-341,472.9,10.08,10.08,0,0,0-339.9,465.77Z"
    transform="translate(1025.52 -261.87)" />
  <path class="cls-1"
    d="M-183.8,351.95a4.38,4.38,0,0,1-2.6,3.38,28.77,28.77,0,0,1-10.35,3.24,43.13,43.13,0,0,1-18.32-2.1,78,78,0,0,1-14.3-6.55c-6.31-3.62-12.55-7.37-18.86-11-3.62-2.07-7.29-4.07-11-5.94a33,33,0,0,0-9.55-3.18,16.71,16.71,0,0,0-3.61-.25c-3.6.22-5.81,2.1-6.2,5.72a27.69,27.69,0,0,0,.17,7.24,129.66,129.66,0,0,0,6.66,25.35c1.75,4.67,3.8,9.21,5.59,13.86,2.42,6.28,4.85,12.56,7.06,18.91a73.7,73.7,0,0,1,3.57,20.23,39,39,0,0,1-1.73,13.16,58.42,58.42,0,0,1-7.27,15.7,101.67,101.67,0,0,1-15.86,19.32c-.5.46-1,.93-1.44,1.42-.16.19-1.18.87-1.34,1.21a12.18,12.18,0,0,0,2.08-.41c5.24-1.75,10.52-3.36,15.68-5.3a81,81,0,0,0,16.58-8.32c5.15-3.44,10.26-6.94,15.4-10.4,1.09-.73,2-1.86,3.46-1.79.64.55.8,1.18.27,1.78a19.09,19.09,0,0,1-2,1.94c-1.55,1.3-3.22,2.47-4.68,3.85-8.83,8.37-19.32,14.1-30.24,19.15-.85.39-1.75.72-2.58,1.16-7.51,3.91-15.62,5.82-23.87,7.24a16,16,0,0,0-4.57,1.47,52,52,0,0,1-6.69,2.82,17.51,17.51,0,0,1-5.14.87,8.62,8.62,0,0,1-8.75-5.89,19.08,19.08,0,0,1-.46-11.93,45.21,45.21,0,0,1,3-8.32,68.92,68.92,0,0,1,22-26.44,76,76,0,0,1,14.58-8.61,41.43,41.43,0,0,1,5.76-1.92,6.54,6.54,0,0,1,4.73.45,3.44,3.44,0,0,1,1,5.71,14.89,14.89,0,0,1-2.94,2.12c-3.46,2.08-7,4.08-10.42,6.19A101.48,101.48,0,0,0-297,449.32a71,71,0,0,0-12.25,15,26.29,26.29,0,0,0-3.78,8.87,14.42,14.42,0,0,0-.12,4.79,4,4,0,0,0,4.17,3.65,14.5,14.5,0,0,0,5.13-.72,37.38,37.38,0,0,0,6.88-3.34,83.89,83.89,0,0,0,28.26-29.43A45,45,0,0,0-264,413c-2.62-10.16-5.79-20.18-8.85-30.22-2.62-8.63-5.86-17.07-7.85-25.89-1-4.32-1.79-8.7-2.52-13.07a20.25,20.25,0,0,1,1.1-10.33c1.65-4.57,4.88-7.06,9.76-7a30.63,30.63,0,0,1,7.53,1.2c5.12,1.35,9.76,3.85,14.32,6.47,6.43,3.69,12.81,7.44,19.23,11.14a87.68,87.68,0,0,0,13.42,6.54,39.85,39.85,0,0,0,17,2.79,28.54,28.54,0,0,0,5.14-.94,9.24,9.24,0,0,0,5.34-3.43,6.43,6.43,0,0,1,1.41-1.42,3,3,0,0,1,3.41-.25A3.32,3.32,0,0,1-183.8,351.95Z"
    transform="translate(1025.52 -261.87)" />
  <path class="cls-1"
    d="M-124.38,446.62a9.08,9.08,0,0,1-1.75,2.18c-9.06,8.46-18.09,16.94-28.07,24.34a135.21,135.21,0,0,1-15.44,10.3,42.22,42.22,0,0,1-12.79,4.82c-8.2,1.5-13.36-2.06-14.67-10.32A27.56,27.56,0,0,1-196,465.18a55.61,55.61,0,0,1,5.74-12.43l1.89-3.08c-2.2,0-3.57,1.29-5.16,2.17-1.77,1-3.48,2.05-5.27,3s-3.38,1.66-5.13,2.36-3.78,1.43-5.71,2-3.62.92-5.47,1.38c-2.54,9.55-8.94,15.92-16.69,21.17a21.7,21.7,0,0,1-5,2.54c-4.59,1.58-8.09-.49-8.94-5.26a23.26,23.26,0,0,1,.4-9.22,44.26,44.26,0,0,1,5.27-13.05,130.49,130.49,0,0,1,21.16-26.92c1.82-1.78,3.91-3.3,5.89-4.91a17.23,17.23,0,0,1,1.67-1.13,2.87,2.87,0,0,1,3.39-.16c.88.61,1.09,1.88.21,3.32a66.18,66.18,0,0,1-4.79,7c-3.11,3.89-6.41,7.63-9.6,11.45-.58.69-1,1.47-1.6,2.32,5.62,1,7.15,2.47,8.47,7.89.12.51.22,1,.34,1.65,1.36.65,2.67.08,3.92-.22a43.45,43.45,0,0,0,13.46-5.35c4.76-3,9.42-6.24,14-9.49a19.72,19.72,0,0,0,3.43-3.38c2.63-3.06,5.11-6.25,7.8-9.27a47.34,47.34,0,0,1,5.28-5,6.27,6.27,0,0,1,2.9-1.22,2.46,2.46,0,0,1,2.68,3.1,9.08,9.08,0,0,1-1.47,2.83c-1.62,2.15-3.34,4.21-5,6.31-4.76,5.85-9.57,11.66-14.26,17.56a55,55,0,0,0-8.33,13.31,27.48,27.48,0,0,0-2.22,8.15,13.48,13.48,0,0,0-.12,1.62c.22,5.55,2.34,10,10,8.67a24.32,24.32,0,0,0,5.42-1.48,64.61,64.61,0,0,0,8.64-4.34,177,177,0,0,0,22.49-16.41c6-5.22,11.94-10.48,17.93-15.7a18.24,18.24,0,0,1,2.61-1.87,1.15,1.15,0,0,1,1.09.21C-124.44,445.62-124.21,446.32-124.38,446.62ZM-218.56,461c-2.12-.68-4.16-1.24-6.13-2s-2.84-2.95-4.5-4.55c-4,5.74-8,11.14-11,17.18a19.58,19.58,0,0,0-1.18,3,14,14,0,0,0-.61,3.14c-.21,3.29,1.19,4.45,4.43,3.59a15.61,15.61,0,0,0,4-1.75,36.88,36.88,0,0,0,11.61-11A18.55,18.55,0,0,0-218.56,461Zm.07-3.23A6,6,0,0,0-220,453a2.4,2.4,0,0,0-2.85-.9,2.79,2.79,0,0,0-2.06,1.72,2.52,2.52,0,0,0,1.3,2.72A6.55,6.55,0,0,0-218.5,457.79Z"
    transform="translate(1025.52 -261.87)" />
 
</svg>